<svg width="25" height="25" viewBox="0 0 25 25" fill="none" xmlns="http://www.w3.org/2000/svg">
<path d="M12.5 22.9167C6.75622 22.9167 2.08334 18.2438 2.08334 12.5C2.08334 6.75621 6.75622 2.08334 12.5 2.08334C18.2438 2.08334 22.9167 6.75621 22.9167 12.5C22.9167 18.2438 18.2438 22.9167 12.5 22.9167ZM12.5 3.125C7.33059 3.125 3.12501 7.33058 3.12501 12.5C3.12501 17.6694 7.33059 21.875 12.5 21.875C17.6694 21.875 21.875 17.6694 21.875 12.5C21.875 7.33058 17.6694 3.125 12.5 3.125ZM11.5755 8.21615C11.5755 7.70834 11.9922 7.29167 12.5 7.29167C13.0208 7.29167 13.4245 7.69532 13.4245 8.21615C13.4245 8.73698 13.0208 9.14063 12.5 9.14063C11.9922 9.14063 11.5755 8.72396 11.5755 8.21615ZM11.8164 10.4688H13.1836V17.7083H11.8164V10.4688Z" fill="#71767C"/>
</svg>
