<svg width="25" height="25" viewBox="0 0 25 25" fill="none" xmlns="http://www.w3.org/2000/svg">
<path d="M6.77084 6.25H7.81251V16.6667H6.77084V6.25ZM10.9383 6.25H9.3728V16.6667H10.9383V6.25ZM6.77084 18.75H7.81251V17.7083H6.77084V18.75ZM5.72918 6.25H4.16368V16.6667H5.72918V6.25ZM9.37423 18.75H10.9397V17.7083H9.37423V18.75ZM2.08334 18.75H3.12501V6.25H2.08334V18.75ZM4.16524 18.75H5.73048V17.7083H4.16537L4.16524 18.75ZM18.7499 16.6667H19.7915V6.25H18.7499V16.6667ZM11.979 18.75H13.0207V6.25H11.979V18.75ZM21.3527 6.25V18.75H22.9181V6.25H21.3529H21.3527ZM16.6665 16.6667H17.7082V6.25H16.6665V16.6667ZM18.7499 18.75H19.7915V17.7083H18.7499V18.75ZM16.6665 18.75H17.7082V17.7083H16.6665V18.75ZM14.0624 18.75H15.104V17.7083H14.0624V18.75ZM14.0624 16.6667H15.104V6.25H14.0624V16.6667Z" fill="#71767C"/>
</svg>
