<svg width="1628" height="6" viewBox="0 0 1628 6" fill="none" xmlns="http://www.w3.org/2000/svg">
<g clip-path="url(#clip0_54_257)">
<path d="M1718 0H0V6H1718V0Z" fill="url(#paint0_linear_54_257)"/>
<path d="M277.908 5.99997H489.729L415.979 3L277.908 5.99997Z" fill="url(#paint1_linear_54_257)"/>
<path d="M850.672 0H743.375L685.112 3.00003L738.135 6H850.672V0Z" fill="url(#paint2_linear_54_257)"/>
<path d="M497.584 0H497.506L415.979 3.00003L489.729 6L603.159 3.00003L497.584 0Z" fill="url(#paint3_linear_54_257)"/>
<path d="M743.375 0H497.584L603.159 3.00003L489.729 6H738.135L685.112 3.00003L743.375 0Z" fill="url(#paint4_linear_54_257)"/>
<path d="M275.794 0H132.179V1.85697L213.539 3.00003L132.179 4.14308V6H277.908L226.035 3.00003L275.794 0Z" fill="#AF1917"/>
<path d="M497.506 0H275.794L415.979 3.00003L497.506 0Z" fill="url(#paint5_linear_54_257)"/>
<path d="M132.179 0H0L132.179 1.85697V0Z" fill="#931813"/>
<path d="M213.539 3.00005L132.179 1.85699V4.1431L213.539 3.00005Z" fill="#B12638"/>
<path d="M0 5.99999H132.179V4.14307L0 5.99999Z" fill="#931813"/>
<path d="M132.179 1.85697L0 0V6L132.179 4.14308V1.85697Z" fill="#942331"/>
<path d="M275.794 0L226.035 3.00003L277.908 6L415.979 3.00003L275.794 0Z" fill="#D51317"/>
<path d="M1524.33 5.08236C1528.49 4.5855 1548.16 4.01267 1568.98 3.40614C1572.31 3.30915 1575.69 3.21056 1579.07 3.11054C1575.69 3.00307 1572.3 2.89703 1568.97 2.79272C1548.15 2.14078 1528.48 1.5251 1524.33 0.99104C1521.11 0.576448 1527.69 0.266304 1545.55 -6.10352e-05H1436.47C1418.62 0.357695 1412.03 0.569369 1415.26 0.983961C1419.41 1.51797 1439.09 2.13368 1459.9 2.78559C1490.74 3.75129 1526.44 4.86455 1514.98 5.99993H1545.6C1527.71 5.752 1521.1 5.46848 1524.33 5.08236Z" fill="url(#paint6_linear_54_257)"/>
<path d="M1459.9 2.78571C1439.08 2.1338 1419.41 1.51809 1415.26 0.984083C1412.03 0.569491 1418.62 0.357806 1436.47 6.10352e-05H1352.25C1365.7 1.05614 1343.27 2.08967 1319.92 3.26547C1306.3 3.95154 1292.2 4.66086 1288.55 5.23586C1285.92 5.64934 1289.42 5.87737 1292.8 6.00007H1514.98C1526.44 4.86468 1490.74 3.7514 1459.9 2.78571Z" fill="url(#paint7_linear_54_257)"/>
<path d="M1579.07 3.1106C1575.69 3.21061 1572.31 3.30921 1568.98 3.4062C1548.16 4.01273 1528.49 4.58556 1524.33 5.08242C1521.1 5.46854 1527.71 5.75205 1545.6 6.00001H1624.01C1634.24 4.98719 1606.97 3.99786 1579.07 3.1106Z" fill="#169A39"/>
<path d="M1616.9 0C1642.28 1.08346 1611.08 2.16195 1579.07 3.1106C1606.97 3.99787 1634.24 4.9872 1624.01 6H1718V0H1616.9Z" fill="url(#paint8_linear_54_257)"/>
<path d="M1288.55 5.2358C1292.2 4.6608 1306.3 3.95148 1319.92 3.26541C1343.27 2.08961 1365.7 1.05608 1352.25 0H1183.98C1180.61 0.223425 1177.14 0.375605 1179.76 0.819242C1183.42 1.43722 1197.5 2.1996 1211.12 2.93695C1231.18 4.02252 1250.56 5.0681 1247.1 6H1292.79C1289.42 5.8773 1285.92 5.64928 1288.55 5.2358Z" fill="url(#paint9_linear_54_257)"/>
<path d="M850.672 0V6L892.705 3.00003L850.672 0Z" fill="#283587"/>
<path d="M1524.33 0.991101C1528.48 1.52516 1548.15 2.14083 1568.97 2.79279C1572.3 2.89709 1575.69 3.00313 1579.07 3.1106C1611.08 2.16195 1642.28 1.08346 1616.9 0H1545.54C1527.69 0.266365 1521.11 0.576509 1524.33 0.991101Z" fill="url(#paint10_linear_54_257)"/>
<path d="M1211.13 2.93695C1197.5 2.1996 1183.42 1.43722 1179.77 0.819242C1177.14 0.375594 1180.62 0.223414 1183.98 0H1085.37C1088.99 0.786092 1081.8 1.66965 1068.84 3.1477C1061.37 3.99989 1049.82 5.31151 1052.13 6H1247.11C1250.56 5.06811 1231.19 4.02252 1211.13 2.93695Z" fill="url(#paint11_linear_54_257)"/>
<path d="M850.672 0L892.705 3.00003L850.672 6H984.945L985.08 0H850.672Z" fill="url(#paint12_linear_54_257)"/>
<path d="M1068.84 3.1477C1081.8 1.66965 1088.99 0.786092 1085.36 0H985.08L984.945 6H1052.13C1049.82 5.31151 1061.37 3.99989 1068.84 3.1477Z" fill="url(#paint13_linear_54_257)"/>
</g>
<defs>
<linearGradient id="paint0_linear_54_257" x1="0" y1="3" x2="1718" y2="3" gradientUnits="userSpaceOnUse">
<stop stop-color="#942331"/>
<stop offset="0.0361" stop-color="#931813"/>
<stop offset="0.0846" stop-color="#B12638"/>
<stop offset="0.1237" stop-color="#AF1917"/>
<stop offset="0.1257" stop-color="#B11917"/>
<stop offset="0.1533" stop-color="#CB1517"/>
<stop offset="0.1697" stop-color="#D51317"/>
<stop offset="0.1755" stop-color="#CE1B24"/>
<stop offset="0.1876" stop-color="#BB2742"/>
<stop offset="0.205" stop-color="#9B326B"/>
<stop offset="0.2142" stop-color="#88357F"/>
<stop offset="0.2436" stop-color="#853580"/>
<stop offset="0.2638" stop-color="#6E368C"/>
<stop offset="0.2911" stop-color="#3A4190"/>
<stop offset="0.3242" stop-color="#14387F"/>
<stop offset="0.3926" stop-color="#2B2F75"/>
<stop offset="0.4181" stop-color="#312A6F"/>
<stop offset="0.4756" stop-color="#2A3281"/>
<stop offset="0.494" stop-color="#283587"/>
<stop offset="0.5581" stop-color="#1D61A1"/>
<stop offset="0.5667" stop-color="#2169A5"/>
<stop offset="0.6085" stop-color="#3D8FB6"/>
<stop offset="0.6393" stop-color="#53A7BE"/>
<stop offset="0.6556" stop-color="#5BB0C0"/>
<stop offset="0.6748" stop-color="#53ADBE"/>
<stop offset="0.6993" stop-color="#36A3BA"/>
<stop offset="0.7266" stop-color="#0095B3"/>
<stop offset="0.7426" stop-color="#008BAE"/>
<stop offset="0.798" stop-color="#009490"/>
<stop offset="0.8875" stop-color="#00A24C"/>
<stop offset="1" stop-color="#00937D"/>
</linearGradient>
<linearGradient id="paint1_linear_54_257" x1="489.73" y1="4.49999" x2="277.908" y2="4.49999" gradientUnits="userSpaceOnUse">
<stop stop-color="#88357F"/>
<stop offset="0.3354" stop-color="#88357F"/>
<stop offset="0.5997" stop-color="#8B2E64"/>
<stop offset="0.871" stop-color="#8E284A"/>
<stop offset="1" stop-color="#8F2540"/>
</linearGradient>
<linearGradient id="paint2_linear_54_257" x1="855.107" y1="0.0058448" x2="855.102" y2="4.07256" gradientUnits="userSpaceOnUse">
<stop stop-color="#312A6F"/>
<stop offset="0.2427" stop-color="#312A6F"/>
<stop offset="0.418" stop-color="#2F2D72"/>
<stop offset="0.6245" stop-color="#2B337A"/>
<stop offset="0.8457" stop-color="#1E3E87"/>
<stop offset="1" stop-color="#024995"/>
</linearGradient>
<linearGradient id="paint3_linear_54_257" x1="415.979" y1="3" x2="603.16" y2="3" gradientUnits="userSpaceOnUse">
<stop stop-color="#6E368C"/>
<stop offset="1" stop-color="#3A4190"/>
</linearGradient>
<linearGradient id="paint4_linear_54_257" x1="743.375" y1="3" x2="489.73" y2="3" gradientUnits="userSpaceOnUse">
<stop stop-color="#14387F"/>
<stop offset="0.2311" stop-color="#1D3880"/>
<stop offset="0.5045" stop-color="#313881"/>
<stop offset="0.7981" stop-color="#493984"/>
<stop offset="1" stop-color="#5C3986"/>
</linearGradient>
<linearGradient id="paint5_linear_54_257" x1="499.203" y1="1.50001" x2="270.057" y2="1.50001" gradientUnits="userSpaceOnUse">
<stop stop-color="#88357F"/>
<stop offset="0.3354" stop-color="#88357F"/>
<stop offset="0.5997" stop-color="#8B2E64"/>
<stop offset="0.871" stop-color="#8E284A"/>
<stop offset="1" stop-color="#8F2540"/>
</linearGradient>
<linearGradient id="paint6_linear_54_257" x1="1496.77" y1="-5.01449e-05" x2="1496.77" y2="5.99995" gradientUnits="userSpaceOnUse">
<stop stop-color="#94BD55"/>
<stop offset="0.3332" stop-color="#8CBC68"/>
<stop offset="0.6886" stop-color="#85BB74"/>
<stop offset="1" stop-color="#83BB78"/>
</linearGradient>
<linearGradient id="paint7_linear_54_257" x1="1270.49" y1="0.0637723" x2="1270.5" y2="6.38407" gradientUnits="userSpaceOnUse">
<stop stop-color="#00A24C"/>
<stop offset="0.1984" stop-color="#00A150"/>
<stop offset="0.4785" stop-color="#009D5C"/>
<stop offset="0.8055" stop-color="#009770"/>
<stop offset="1" stop-color="#00937D"/>
</linearGradient>
<linearGradient id="paint8_linear_54_257" x1="1648.53" y1="0" x2="1648.53" y2="6" gradientUnits="userSpaceOnUse">
<stop stop-color="#699F60"/>
<stop offset="0.096" stop-color="#5A9955"/>
<stop offset="0.2648" stop-color="#449148"/>
<stop offset="0.4524" stop-color="#318C40"/>
<stop offset="0.6718" stop-color="#23893B"/>
<stop offset="1" stop-color="#1D893A"/>
</linearGradient>
<linearGradient id="paint9_linear_54_257" x1="1267.57" y1="0" x2="1267.57" y2="6" gradientUnits="userSpaceOnUse">
<stop stop-color="#00B5DD"/>
<stop offset="0.2243" stop-color="#00B0D8"/>
<stop offset="0.5483" stop-color="#00A3C9"/>
<stop offset="0.9313" stop-color="#008FB3"/>
<stop offset="1" stop-color="#008BAE"/>
</linearGradient>
<linearGradient id="paint10_linear_54_257" x1="1501.78" y1="2.44509" x2="1501.79" y2="0.3489" gradientUnits="userSpaceOnUse">
<stop stop-color="#62B16E"/>
<stop offset="1" stop-color="#86B857"/>
</linearGradient>
<linearGradient id="paint11_linear_54_257" x1="1024.85" y1="0.133617" x2="1024.87" y2="6.49072" gradientUnits="userSpaceOnUse">
<stop stop-color="#009AD2"/>
<stop offset="0.3786" stop-color="#19A1CD"/>
<stop offset="1" stop-color="#5BB0C0"/>
</linearGradient>
<linearGradient id="paint12_linear_54_257" x1="917.876" y1="0" x2="917.876" y2="6" gradientUnits="userSpaceOnUse">
<stop stop-color="#174290"/>
<stop offset="0.2651" stop-color="#1C4D98"/>
<stop offset="0.8022" stop-color="#2A6DAF"/>
<stop offset="1" stop-color="#327AB9"/>
</linearGradient>
<linearGradient id="paint13_linear_54_257" x1="1035.62" y1="6" x2="1035.62" y2="0" gradientUnits="userSpaceOnUse">
<stop stop-color="#3E9AC9"/>
<stop offset="1" stop-color="#1D61A1"/>
</linearGradient>
<clipPath id="clip0_54_257">
<rect width="1718" height="6" fill="white"/>
</clipPath>
</defs>
</svg>
