<svg width="178" height="71" viewBox="0 0 178 71" fill="none" xmlns="http://www.w3.org/2000/svg">
<g clip-path="url(#clip0_50_79)">
<path fill-rule="evenodd" clip-rule="evenodd" d="M79.0546 35.0237C79.8861 34.7024 80.5995 34.1348 81.0992 33.3971C81.5989 32.6593 81.8612 31.7866 81.8508 30.8958C81.8508 27.1807 79.2135 25.339 75.5912 25.339H66.0907V45.534H76.4173C79.5948 45.534 82.7087 43.3113 82.7087 39.9137C82.7087 35.881 79.0546 35.0554 79.0546 35.0237ZM71.0475 29.5304H74.7333C74.9877 29.5151 75.2424 29.5538 75.4806 29.6442C75.7189 29.7345 75.9353 29.8743 76.1154 30.0544C76.2956 30.2344 76.4355 30.4507 76.5259 30.6888C76.6163 30.9268 76.6551 31.1814 76.6398 31.4356C76.6348 31.6896 76.5785 31.94 76.4741 32.1717C76.3697 32.4034 76.2194 32.6115 76.0324 32.7836C75.8454 32.9557 75.6254 33.0882 75.3857 33.173C75.1461 33.2578 74.8917 33.2933 74.638 33.2773H71.0475V29.5304ZM74.7651 41.3108H71.0475V37.3417H74.6697C76.4809 37.3417 77.3388 38.1355 77.3388 39.3104C77.3388 40.771 76.2585 41.3108 74.7651 41.3108Z" fill="#ED0007"/>
<path fill-rule="evenodd" clip-rule="evenodd" d="M93.639 24.8309C87.7926 24.8309 84.3609 29.4986 84.3609 35.4047C84.3609 41.3426 87.7926 45.9785 93.639 45.9785C99.5173 45.9785 102.917 41.3426 102.917 35.4047C102.917 29.4986 99.5173 24.8309 93.639 24.8309ZM93.639 41.152C90.7794 41.152 89.3495 38.58 89.3495 35.4047C89.3495 32.2294 90.7794 29.6892 93.639 29.6892C96.4987 29.6892 97.9604 32.2612 97.9604 35.4047C97.9604 38.6118 96.4987 41.152 93.639 41.152Z" fill="#ED0007"/>
<path fill-rule="evenodd" clip-rule="evenodd" d="M113.689 33.2773L112.99 33.1185C111.274 32.7692 109.908 32.3247 109.908 31.0863C109.908 29.7527 111.21 29.2129 112.354 29.2129C113.134 29.2251 113.904 29.3978 114.615 29.7201C115.325 30.0424 115.962 30.5075 116.485 31.0863L119.63 27.9745C118.201 26.3551 115.881 24.7992 112.259 24.7992C108.001 24.7992 104.76 27.1807 104.76 31.1498C104.76 34.7697 107.366 36.5479 110.543 37.2147L111.242 37.3734C113.879 37.9132 114.864 38.326 114.864 39.5962C114.864 40.8028 113.784 41.5966 112.132 41.5966C110.162 41.5966 108.382 40.7393 107.016 38.9928L103.807 42.1682C105.586 44.2956 107.842 45.9468 112.195 45.9468C115.976 45.9468 120.012 43.7876 120.012 39.3739C120.075 34.7697 116.58 33.8806 113.689 33.2773Z" fill="#ED0007"/>
<path fill-rule="evenodd" clip-rule="evenodd" d="M131.323 41.152C129.099 41.152 126.78 39.3103 126.78 35.2777C126.78 31.6896 128.94 29.6891 131.196 29.6891C132.976 29.6891 134.024 30.5147 134.85 31.9436L138.918 29.2446C136.884 26.1645 134.469 24.8627 131.133 24.8627C125.032 24.8627 121.728 29.5939 121.728 35.3094C121.728 41.3108 125.382 46.0103 131.069 46.0103C135.073 46.0103 136.979 44.6131 139.045 41.6283L134.946 38.8658C134.12 40.1994 133.23 41.152 131.323 41.152Z" fill="#ED0007"/>
<path fill-rule="evenodd" clip-rule="evenodd" d="M152.485 25.339V32.7692H146.353V25.339H141.046V45.534H146.353V37.5639H152.485V45.534H157.792V25.339H152.485Z" fill="#ED0007"/>
<path d="M35.5237 20.195C32.4947 20.195 29.5336 21.0926 27.0151 22.7744C24.4965 24.4561 22.5335 26.8464 21.3743 29.643C20.2151 32.4397 19.9118 35.517 20.5028 38.4859C21.0937 41.4548 22.5524 44.1819 24.6942 46.3223C26.8361 48.4627 29.565 49.9204 32.5359 50.5109C35.5068 51.1015 38.5861 50.7984 41.3846 49.64C44.1831 48.4816 46.575 46.5199 48.2579 44.003C49.9408 41.4861 50.839 38.5271 50.839 35.5C50.8368 31.4415 49.2225 27.5499 46.3508 24.6802C43.4792 21.8104 39.5849 20.1972 35.5237 20.195ZM35.5237 49.3761C32.7775 49.3761 30.0929 48.5623 27.8094 47.0376C25.526 45.5129 23.7463 43.3457 22.6953 40.8102C21.6444 38.2747 21.3694 35.4846 21.9052 32.7929C22.4409 30.1012 23.7634 27.6287 25.7053 25.6881C27.6472 23.7475 30.1213 22.4259 32.8148 21.8905C35.5083 21.3551 38.3002 21.6299 40.8375 22.6802C43.3747 23.7304 45.5433 25.5089 47.069 27.7909C48.5948 30.0728 49.4091 32.7556 49.4091 35.5C49.4054 39.179 47.9412 42.7063 45.338 45.3077C42.7348 47.9092 39.2052 49.3724 35.5237 49.3761Z" fill="black"/>
<path d="M41.8468 25.9423H40.7983V31.1816H30.281V25.9423H29.2006C27.6185 26.9857 26.3201 28.4049 25.4217 30.073C24.5234 31.741 24.0531 33.6057 24.0531 35.5C24.0531 37.3943 24.5234 39.259 25.4217 40.9271C26.3201 42.5951 27.6185 44.0144 29.2006 45.0577H30.281V39.8184H40.7983V45.0577H41.8468C43.429 44.0144 44.7274 42.5951 45.6258 40.9271C46.5241 39.259 46.9944 37.3943 46.9944 35.5C46.9944 33.6057 46.5241 31.741 45.6258 30.073C44.7274 28.4049 43.429 26.9857 41.8468 25.9423ZM28.8194 42.9938C27.7602 42.0532 26.9125 40.8991 26.332 39.6075C25.7515 38.3158 25.4513 36.916 25.4513 35.5C25.4513 34.0841 25.7515 32.6842 26.332 31.3926C26.9125 30.1009 27.7602 28.9468 28.8194 28.0063V42.9938ZM40.7983 38.3578H30.281V32.6105H40.7983V38.3578ZM42.2281 42.962V39.7867V31.1816V28.0063C43.2781 28.949 44.1178 30.1021 44.6925 31.3904C45.2673 32.6788 45.5644 34.0736 45.5644 35.4841C45.5644 36.8947 45.2673 38.2895 44.6925 39.5779C44.1178 40.8662 43.2781 42.0192 42.2281 42.962Z" fill="black"/>
</g>
<defs>
<clipPath id="clip0_50_79">
<rect width="178" height="71" fill="white"/>
</clipPath>
</defs>
</svg>
