<svg width="30" height="30" viewBox="0 0 30 30" fill="none" xmlns="http://www.w3.org/2000/svg">
<path d="M23.75 8.75001H23.125H6.87513H6.24999V6.25007H10H20H23.75V8.75001ZM21.875 24.9999C21.875 25.6892 21.3142 26.25 20.6251 26.25H9.37507C8.68574 26.25 8.12499 25.6892 8.12499 24.9999V10.0001H10.6251V18.75H11.875V10.0001H14.3751V18.75H15.625V10.0001H18.125V18.75H19.375V10.0001H21.875L21.875 24.9999ZM12.5001 3.74993H17.5C18.1893 3.74993 18.7501 4.31068 18.7501 5H11.2501C11.2501 4.31067 11.8108 3.74993 12.5001 3.74993ZM25 5H20C20 3.62156 18.8785 2.50006 17.5 2.50006H12.5001C11.1215 2.50006 10 3.62156 10 5H5.00012V10.0001H6.87513V24.9999C6.87513 26.3784 7.99662 27.5001 9.37506 27.5001H20.6251C22.0035 27.5001 23.125 26.3784 23.125 24.9999V10.0001H25L25 5Z" fill="#FF5152"/>
</svg>
