<svg width="25" height="25" viewBox="0 0 25 25" fill="none" xmlns="http://www.w3.org/2000/svg">
<path d="M10.9518 17.7083C10.9948 18.0898 11.1289 18.4453 11.3346 18.75H7.29165V17.7083H8.85415V15.625H2.08331V4.16667H19.2708V7.42579C19.026 7.33855 18.763 7.29167 18.4896 7.29167H18.2291V5.20834H3.12498V14.5833H10.9375V15.625H9.89581V17.7083H10.9518ZM13.8711 17.7083H13.2812C13.138 17.7083 13.0208 17.5912 13.0208 17.4479V9.63542C13.0208 9.49219 13.138 9.375 13.2812 9.375H18.4896C18.6328 9.375 18.75 9.49219 18.75 9.63542V10.4831C18.9166 10.4401 19.0911 10.4167 19.2708 10.4167H19.7916V9.63542C19.7916 9.21094 19.5872 8.83204 19.2708 8.59506C19.0459 8.42499 18.7715 8.33309 18.4896 8.33334H13.2812C12.5638 8.33334 11.9791 8.91797 11.9791 9.63542V17.4479C11.9791 17.5378 11.9883 17.625 12.0052 17.7083C12.1263 18.3021 12.6536 18.75 13.2812 18.75H17.4687C17.2843 18.4338 17.1872 18.0744 17.1875 17.7083H13.8711ZM22.9166 12.5V17.7083C22.9166 18.2826 22.4492 18.75 21.875 18.75H19.2708C19.1453 18.7503 19.0208 18.7274 18.9036 18.6823C18.7055 18.6078 18.5348 18.4747 18.4143 18.3007C18.2937 18.1266 18.2292 17.92 18.2291 17.7083V12.5C18.2291 12.1159 18.4388 11.7787 18.75 11.599C18.908 11.5066 19.0878 11.4581 19.2708 11.4583H21.875C22.4492 11.4583 22.9166 11.9258 22.9166 12.5ZM21.875 12.5H19.2708V17.7083H21.875V12.5ZM15.625 16.1458C15.625 16.284 15.6799 16.4164 15.7775 16.5141C15.8752 16.6118 16.0077 16.6667 16.1458 16.6667C16.2839 16.6667 16.4164 16.6118 16.5141 16.5141C16.6118 16.4164 16.6666 16.284 16.6666 16.1458C16.6666 16.0077 16.6118 15.8752 16.5141 15.7776C16.4164 15.6799 16.2839 15.625 16.1458 15.625C16.0077 15.625 15.8752 15.6799 15.7775 15.7776C15.6799 15.8752 15.625 16.0077 15.625 16.1458Z" fill="#71767C"/>
</svg>
