<svg width="32" height="23" viewBox="0 0 32 23" fill="none" xmlns="http://www.w3.org/2000/svg">
<path d="M0 21.3929H7.9508V23H0V21.3929ZM30.7794 7.19979L30.2172 7.76803L30.213 7.76381L17.1031 21.0136L9.24329 22.9995L11.2083 15.0558L24.8762 1.23359C26.5037 -0.411198 29.1519 -0.411198 30.7793 1.23359C32.4069 2.87858 32.4069 5.5549 30.7794 7.19979ZM16.6967 19.1515L27.4998 8.23325L23.862 4.53982L13.0506 15.4666L16.6967 19.1515ZM11.4288 20.7907L15.1415 19.8526L12.3569 17.0384L11.4288 20.7907ZM29.655 2.36998C28.6893 1.39388 27.1428 1.35346 26.1288 2.24884L24.9864 3.40342L28.6242 7.09687L29.7749 5.93382C30.6607 4.90917 30.6208 3.34618 29.655 2.36998Z" fill="#0096E8"/>
</svg>
