<svg width="34" height="34" viewBox="0 0 34 34" fill="none" xmlns="http://www.w3.org/2000/svg">
<path d="M12.33 18.6646C12.1389 18.1304 12.0414 17.5673 12.0417 17C12.0417 14.2658 14.2659 12.0417 17 12.0417C17.5839 12.0417 18.144 12.1438 18.6646 12.33L17.4973 13.4975C17.3344 13.4743 17.1693 13.4583 17 13.4583C15.0472 13.4583 13.4584 15.0471 13.4584 17C13.4584 17.1693 13.4743 17.3343 13.4973 17.4972L12.33 18.6646ZM20.5026 16.5028C20.5256 16.6657 20.5417 16.8307 20.5417 17C20.5417 18.9529 18.9529 20.5417 17 20.5417C16.8307 20.5417 16.6657 20.5257 16.5028 20.5027L15.3353 21.67C15.8695 21.8611 16.4327 21.9587 17 21.9583C19.7342 21.9583 21.9584 19.7342 21.9584 17C21.9584 16.4162 21.8562 15.856 21.6701 15.3354L20.5026 16.5028ZM28.126 6.87597L27.1241 5.87403L5.87406 27.124L6.876 28.126L28.126 6.87597ZM30.3719 16.6607C30.3039 16.5364 28.7357 13.7045 25.6052 11.4001L24.5896 12.4157C26.9549 14.1072 28.4143 16.1943 28.9236 17C28.0036 18.4547 23.9902 24.0833 17 24.0833C15.7929 24.0842 14.5918 23.9118 13.4336 23.5716L12.3612 24.6442L12.3385 24.7083C13.8308 25.2337 15.3992 25.5 17 25.5C25.8191 25.5 30.1901 17.6724 30.3719 17.3393L30.5568 17L30.3719 16.6607ZM8.39484 22.6001L9.409 21.5858C7.04334 19.8946 5.58577 17.8061 5.0763 17C5.99642 15.5453 10.0098 9.91667 17 9.91667C18.2184 9.91667 19.4146 10.0899 20.5663 10.4284L21.6401 9.3546L21.6623 9.29192C20.1695 8.76633 18.6009 8.5 17 8.5C8.18093 8.5 3.80998 16.3276 3.62811 16.6607L3.44324 17L3.62811 17.3393C3.69487 17.4615 5.26312 20.2943 8.39484 22.5999V22.6001Z" fill="#71767C"/>
</svg>
