<svg width="25" height="25" viewBox="0 0 25 25" fill="none" xmlns="http://www.w3.org/2000/svg">
<path d="M19.1292 19.1292L19.8658 19.8658C17.835 21.8965 15.1675 22.9117 12.5 22.9117C9.83256 22.9117 7.16498 21.8965 5.13425 19.8658C1.07292 15.8042 1.07292 9.19585 5.13425 5.13413C9.19584 1.0728 15.8042 1.0728 19.8658 5.13413L19.1292 5.87072C15.4738 2.21551 9.52618 2.21551 5.87084 5.87072C2.21563 9.52606 2.21563 15.4736 5.87084 19.1291C9.52605 22.7845 15.4737 22.7843 19.1292 19.1291V19.1292ZM18.5975 16.5142L22.6116 12.5L18.5975 8.48582L17.8608 9.22254L20.6176 11.9792H13.5417V13.0209H20.6176L17.8608 15.7775L18.5975 16.5142Z" fill="#006EAD"/>
</svg>
