<svg width="34" height="34" viewBox="0 0 34 34" fill="none" xmlns="http://www.w3.org/2000/svg">
<path d="M24.7916 12.75V10.625C24.7916 6.32861 21.2964 2.83334 17 2.83334C12.7036 2.83334 9.20829 6.32861 9.20829 10.625V12.75H5.66663V31.1667H28.3333V12.75H24.7916ZM10.625 10.625C10.625 7.1099 13.4849 4.25 17 4.25C20.5151 4.25 23.375 7.1099 23.375 10.625V12.75H10.625V10.625ZM26.9166 29.75H7.08329V14.1667H26.9166V29.75ZM14.875 26.2083H19.125V22.4122C19.5785 21.8972 19.8333 21.2318 19.8333 20.5417C19.8333 19.7374 19.4898 18.9683 18.8903 18.4312C18.5924 18.1652 18.2418 17.9649 17.8613 17.8433C17.4809 17.7218 17.0791 17.6818 16.6821 17.7259C15.372 17.8697 14.3207 18.9261 14.1826 20.2381C14.0977 21.0433 14.3481 21.8193 14.875 22.4131V26.2083ZM15.5914 20.3865C15.6593 19.743 16.1946 19.2045 16.8369 19.134C17.2472 19.0883 17.6412 19.2139 17.9449 19.4863C18.0932 19.6192 18.2118 19.7819 18.2931 19.9638C18.3744 20.1456 18.4164 20.3425 18.4166 20.5417C18.4161 20.7406 18.3737 20.9372 18.2923 21.1186C18.2108 21.3001 18.0921 21.4624 17.9438 21.595L17.7083 21.8062V24.7917H16.2916V21.806L16.0561 21.595C15.8876 21.4454 15.7575 21.2576 15.6766 21.0473C15.5958 20.8371 15.5666 20.6105 15.5914 20.3865Z" fill="#71767C"/>
</svg>
