<svg width="25" height="32" viewBox="0 0 25 32" fill="none" xmlns="http://www.w3.org/2000/svg">
<path d="M16.1458 12H17.1875V15.3333H16.1458V12ZM16.1458 20H17.1875V16.6667H16.1458V20ZM19.7916 16C19.7916 17.838 20.9599 19.3333 22.3958 19.3333H22.9166V24.6667H2.08331V19.3333H2.60415C4.04008 19.3333 5.20831 17.838 5.20831 16C5.20831 14.162 4.04008 12.6667 2.60415 12.6667H2.08331V7.33333H22.9166V12.6667H22.3958C20.9599 12.6667 19.7916 14.162 19.7916 16ZM21.875 11.3808V8.66667H17.1875V10.6667H16.1458V8.66667H3.12498V11.3808C4.88943 11.7053 6.24998 13.653 6.24998 16C6.24998 18.347 4.88943 20.2947 3.12498 20.6192V23.3333H16.1458V21.3333H17.1875V23.3333H21.875V20.6192C20.1105 20.2947 18.75 18.347 18.75 16C18.75 13.653 20.1105 11.7053 21.875 11.3808Z" fill="#71767C"/>
</svg>
