<svg width="25" height="25" viewBox="0 0 25 25" fill="none" xmlns="http://www.w3.org/2000/svg">
<path d="M14.2318 13.2031C15.9635 12.513 17.1875 10.8333 17.1875 8.85416C17.1875 6.26301 15.0911 4.16666 12.5 4.16666C9.90885 4.16666 7.8125 6.26301 7.8125 8.85416C7.8125 10.8333 9.03646 12.513 10.7682 13.2031C7.2526 13.9713 4.6875 17.0443 4.6875 20.8333H5.72917C5.72917 17.0312 8.69792 14.0625 12.5 14.0625C16.3021 14.0625 19.2708 17.0312 19.2708 20.8333H20.3125C20.3125 17.0443 17.7474 13.9713 14.2318 13.2031ZM8.85417 8.85416C8.85417 6.84895 10.4948 5.20832 12.5 5.20832C14.5052 5.20832 16.1458 6.84895 16.1458 8.85416C16.1458 10.8594 14.5052 12.5 12.5 12.5C10.4948 12.5 8.85417 10.8594 8.85417 8.85416Z" fill="#71767C"/>
</svg>
