<svg width="25" height="25" viewBox="0 0 25 25" fill="none" xmlns="http://www.w3.org/2000/svg">
<path d="M18.6607 16.5649C19.9547 15.7925 20.8236 14.3787 20.8236 12.7654C20.8236 10.3268 18.8397 8.34298 16.4013 8.34298C13.9629 8.34298 11.9792 10.3268 11.9792 12.7652C11.9792 14.3803 12.8499 15.7952 14.1461 16.5672C11.6672 17.5246 9.89584 20.0091 9.89584 22.9165H10.9375C10.9375 19.7576 13.3908 17.1875 16.4063 17.1875C19.4218 17.1875 21.875 19.7576 21.875 22.9165H22.9167C22.9167 20.007 21.1427 17.5207 18.6607 16.5649ZM13.0208 12.7654C13.0208 10.9012 14.5373 9.38464 16.4013 9.38464C18.2654 9.38464 19.7819 10.9012 19.7819 12.7652C19.7819 14.6293 18.2654 16.1458 16.4013 16.1458C14.5373 16.1458 13.0208 14.6294 13.0208 12.7654ZM8.33334 14.0625V12.5H2.08334V2.08334H18.75V7.82215H18.7266C18.4001 7.668 18.059 7.54687 17.7083 7.46056V3.12501H3.12501V11.4583H11.0966C11.0123 11.7998 10.9613 12.1487 10.9443 12.5H9.37501V14.0625L11.4583 14.0624V15.104L7.29168 15.1042V14.0625H8.33334Z" fill="#71767C"/>
</svg>
