<svg width="34" height="34" viewBox="0 0 34 34" fill="none" xmlns="http://www.w3.org/2000/svg">
<path d="M19.3552 17.9563C21.7104 17.0177 23.375 14.7333 23.375 12.0417C23.375 8.51771 20.524 5.66667 17 5.66667C13.476 5.66667 10.625 8.51771 10.625 12.0417C10.625 14.7333 12.2896 17.0177 14.6448 17.9563C9.86354 19.001 6.375 23.1802 6.375 28.3333H7.79167C7.79167 23.1625 11.8292 19.125 17 19.125C22.1708 19.125 26.2083 23.1625 26.2083 28.3333H27.625C27.625 23.1802 24.1365 19.001 19.3552 17.9563ZM12.0417 12.0417C12.0417 9.31459 14.2729 7.08334 17 7.08334C19.7271 7.08334 21.9583 9.31459 21.9583 12.0417C21.9583 14.7688 19.7271 17 17 17C14.2729 17 12.0417 14.7688 12.0417 12.0417Z" fill="#71767C"/>
</svg>
