<svg width="25" height="25" viewBox="0 0 25 25" fill="none" xmlns="http://www.w3.org/2000/svg">
<path d="M4.42707 22.9352C3.79612 22.9352 3.20287 22.6894 2.75668 22.2433C2.31055 21.7971 2.06482 21.2039 2.06482 20.5729C2.06482 19.942 2.31055 19.3487 2.75668 18.9025L9.00668 12.6525L9.7433 13.3891L3.4933 19.6391C3.24382 19.8886 3.10649 20.2202 3.10649 20.5729C3.10649 20.9257 3.24382 21.2573 3.4933 21.5067C3.74272 21.7562 4.07434 21.8935 4.42707 21.8935C4.77981 21.8935 5.11143 21.7562 5.36085 21.5067L11.6108 15.2567L12.3475 15.9933L6.09747 22.2433C5.65127 22.6894 5.05802 22.9352 4.42707 22.9352ZM18.9657 8.33333H20.6212L22.8447 4.26966L20.7303 2.15524L16.6667 4.37876V6.03428L13.1733 9.52752L13.91 10.2641L17.7083 6.46572V4.99624L20.5457 3.44372L21.5563 4.45429L20.0038 7.29167H18.5343L14.7358 11.09L15.4725 11.8266L18.9657 8.33333ZM22.9167 18.8151C22.9167 18.8819 22.9148 18.9482 22.9116 19.0142C22.9105 19.0378 22.9084 19.0613 22.9068 19.0849C22.9041 19.1268 22.9013 19.1686 22.8973 19.2102C22.8945 19.2396 22.8908 19.2689 22.8874 19.2982C22.8833 19.333 22.8791 19.3677 22.8742 19.4022C22.8694 19.4355 22.8639 19.4688 22.8583 19.502C22.8534 19.5311 22.8483 19.56 22.8428 19.5889C22.8356 19.6262 22.828 19.6634 22.8198 19.7005C22.8147 19.7237 22.8093 19.7467 22.8038 19.7697C22.7938 19.8113 22.7835 19.8528 22.7722 19.8942C22.7677 19.9107 22.7629 19.9271 22.7582 19.9436C22.7448 19.9902 22.731 20.0367 22.716 20.083C22.7131 20.0917 22.71 20.1003 22.7072 20.1089C22.6897 20.1614 22.6715 20.2138 22.6519 20.2657L22.6516 20.2664C22.5592 20.5105 22.4446 20.7435 22.3095 20.9627L19.9442 18.5975C19.5729 18.2262 18.9688 18.2262 18.5975 18.5975C18.2262 18.9688 18.2262 19.5729 18.5975 19.9442L20.9627 22.3095C20.7439 22.4443 20.5114 22.5587 20.2679 22.651L20.2656 22.6519C20.2131 22.6717 20.1601 22.6902 20.107 22.7078C20.0992 22.7104 20.0915 22.7132 20.0836 22.7157C20.0367 22.731 19.9895 22.745 19.9422 22.7586C19.9264 22.7631 19.9107 22.7677 19.8949 22.772C19.853 22.7834 19.8109 22.7939 19.7688 22.804C19.7463 22.8094 19.7238 22.8146 19.7012 22.8196C19.6637 22.8279 19.626 22.8356 19.5883 22.8429C19.5598 22.8483 19.5313 22.8533 19.5026 22.8582C19.4691 22.8639 19.4355 22.8694 19.4019 22.8742C19.3676 22.8791 19.3332 22.8833 19.2986 22.8873C19.2691 22.8908 19.2396 22.8945 19.21 22.8973C19.1686 22.9013 19.1269 22.9041 19.0851 22.9068C19.0615 22.9084 19.0379 22.9105 19.0142 22.9116C18.9482 22.9148 18.8819 22.9167 18.8151 22.9167C16.5535 22.9167 14.7135 21.0767 14.7135 18.8151C14.7135 18.7463 14.7154 18.6779 14.7187 18.6097C14.7188 18.6089 14.7189 18.6081 14.7189 18.6074C14.7225 18.5335 14.7286 18.4601 14.7361 18.387C14.7375 18.3758 14.7389 18.3645 14.7401 18.3532C14.7401 18.353 14.7401 18.3529 14.7402 18.3528C14.7465 18.2957 14.7539 18.2389 14.7627 18.1824C14.7646 18.1709 14.7665 18.1594 14.7684 18.1478C14.7684 18.1478 14.7684 18.1477 14.7684 18.1476C14.7761 18.1007 14.7842 18.0538 14.7935 18.0072C14.7935 18.0072 14.7935 18.0072 14.7935 18.0072C14.795 17.9996 14.7968 17.9919 14.7985 17.9843C14.81 17.9283 14.8225 17.8725 14.8364 17.817C14.8364 17.817 14.8364 17.817 14.8364 17.817C14.8434 17.7893 14.851 17.7617 14.8585 17.7342C14.8585 17.7342 14.8585 17.7341 14.8585 17.7342C14.8677 17.7007 14.877 17.6671 14.887 17.6338C14.887 17.6338 14.887 17.6338 14.887 17.6338C14.8977 17.5983 14.9091 17.563 14.9208 17.5278C14.9208 17.5278 14.9208 17.5278 14.9208 17.5278C14.9427 17.462 14.9661 17.3966 14.9914 17.3318C14.9922 17.3297 14.9929 17.3276 14.9937 17.3256C14.9968 17.3176 14.9994 17.3096 15.0026 17.3017L14.592 16.8911L13.4114 15.7106L12.154 14.4531L7.6983 9.99743C7.69039 10.0006 7.68234 10.0032 7.67442 10.0063C7.67235 10.0071 7.67026 10.0078 7.6682 10.0086C7.60337 10.0339 7.53801 10.0573 7.47224 10.0792C7.47226 10.0791 7.47223 10.0792 7.47224 10.0792C7.43704 10.0909 7.40171 10.1022 7.36626 10.1129C7.36627 10.1129 7.36624 10.1129 7.36626 10.1129C7.33297 10.123 7.29944 10.1323 7.26593 10.1414C7.26597 10.1414 7.26589 10.1414 7.26593 10.1414C7.23838 10.149 7.21074 10.1566 7.18304 10.1635C7.18306 10.1635 7.18302 10.1635 7.18304 10.1635C7.12758 10.1775 7.07173 10.19 7.01569 10.2015C7.00806 10.2032 7.00046 10.2049 6.99281 10.2065C6.99282 10.2065 6.99279 10.2065 6.99281 10.2065C6.94623 10.2158 6.89932 10.2239 6.85236 10.2316C6.8523 10.2316 6.85222 10.2316 6.85216 10.2316C6.84064 10.2335 6.82912 10.2354 6.81761 10.2373C6.76108 10.2461 6.70425 10.2535 6.6472 10.2598C6.64706 10.2598 6.64694 10.2599 6.6468 10.2599C6.6355 10.2611 6.62422 10.2625 6.61294 10.2639C6.53986 10.2714 6.46649 10.2774 6.39262 10.2811C6.39185 10.2811 6.39107 10.2812 6.39029 10.2813C6.32213 10.2846 6.25368 10.2865 6.18488 10.2865C3.92328 10.2865 2.08332 8.4465 2.08332 6.1849C2.08332 6.11811 2.0852 6.05178 2.08836 5.98578C2.08949 5.96216 2.09159 5.93869 2.09313 5.91514C2.09585 5.87323 2.09868 5.83136 2.10266 5.78981C2.10549 5.76039 2.10914 5.73112 2.1126 5.7018C2.11668 5.66704 2.12086 5.6323 2.12581 5.59781C2.13062 5.56445 2.13607 5.53121 2.1417 5.498C2.1466 5.46894 2.15171 5.43996 2.15722 5.4111C2.16437 5.37379 2.17202 5.33657 2.18022 5.29947C2.18532 5.27631 2.19071 5.25327 2.1962 5.23025C2.20615 5.18866 2.21651 5.14715 2.22779 5.10585C2.23228 5.0893 2.23712 5.0729 2.24182 5.05643C2.25519 5.0098 2.26898 4.96326 2.28402 4.91704C2.28685 4.90834 2.28993 4.89975 2.29281 4.89107C2.31029 4.83856 2.32847 4.78623 2.34812 4.73429L2.34838 4.73359C2.44076 4.48954 2.55542 4.25653 2.69047 4.03726L5.0558 6.40252C5.42709 6.77382 6.03121 6.77382 6.40251 6.40252C6.77381 6.03123 6.77381 5.42711 6.40251 5.05581L4.03725 2.69048C4.25606 2.55571 4.48858 2.44128 4.73208 2.34899L4.73434 2.34814C4.78689 2.32826 4.83984 2.30984 4.89296 2.29218C4.90078 2.28958 4.90851 2.28681 4.91635 2.28426C4.96325 2.26898 5.01047 2.25498 5.0578 2.24144C5.07356 2.23695 5.08926 2.23232 5.10509 2.228C5.14696 2.21656 5.18903 2.20608 5.2312 2.19599C5.25365 2.19064 5.27615 2.18538 5.29875 2.1804C5.33628 2.1721 5.37393 2.16436 5.41169 2.15712C5.44014 2.15169 5.46872 2.14667 5.49737 2.14183C5.53089 2.13614 5.56445 2.13064 5.59813 2.12579C5.63236 2.12088 5.66682 2.11672 5.70133 2.11267C5.73085 2.10918 5.76033 2.1055 5.78995 2.10265C5.83136 2.0987 5.8731 2.09587 5.91486 2.09316C5.93852 2.09161 5.9621 2.08951 5.9858 2.08837C6.05179 2.08522 6.11811 2.08333 6.18488 2.08333C8.44649 2.08333 10.2864 3.92329 10.2864 6.1849C10.2864 6.25369 10.2846 6.32214 10.2812 6.3903C10.2812 6.39108 10.2811 6.39186 10.2811 6.39264C10.2774 6.4665 10.2714 6.53988 10.2639 6.61295C10.2625 6.62423 10.2611 6.63551 10.2599 6.64681C10.2598 6.64695 10.2598 6.64708 10.2598 6.64721C10.2534 6.70427 10.2461 6.76109 10.2373 6.81763C10.2354 6.82913 10.2335 6.84065 10.2316 6.85217C10.2316 6.85224 10.2315 6.85231 10.2315 6.85237C10.2239 6.89933 10.2158 6.94619 10.2065 6.99277C10.2065 6.99275 10.2065 6.99279 10.2065 6.99277C10.2049 7.00042 10.2032 7.00807 10.2015 7.0157C10.19 7.07174 10.1775 7.12755 10.1635 7.18301C10.1635 7.183 10.1635 7.18303 10.1635 7.18301C10.1566 7.21071 10.149 7.23828 10.1414 7.26583C10.1415 7.26579 10.1414 7.26587 10.1414 7.26583C10.1323 7.29934 10.123 7.33294 10.1129 7.36622C10.1129 7.3662 10.1129 7.36624 10.1129 7.36622C10.1022 7.40167 10.0909 7.437 10.0792 7.4722C10.0792 7.47218 10.0792 7.47221 10.0792 7.4722C10.0573 7.53797 10.0339 7.60338 10.0086 7.66821C10.0078 7.67028 10.0071 7.67237 10.0063 7.67443C10.0032 7.68236 10.0006 7.69041 9.99742 7.69831L11.5885 9.28942L13.151 10.8519L16.8824 14.5833L17.3017 15.0026C17.3096 14.9994 17.3176 14.9968 17.3256 14.9937C17.3276 14.9929 17.3297 14.9922 17.3318 14.9914C17.3966 14.9661 17.462 14.9427 17.5277 14.9208C17.5277 14.9209 17.5278 14.9208 17.5277 14.9208C17.5629 14.9091 17.5983 14.8978 17.6337 14.8871C17.6337 14.8871 17.6337 14.8871 17.6337 14.8871C17.667 14.877 17.7005 14.8677 17.734 14.8586C17.734 14.8586 17.7341 14.8586 17.734 14.8586C17.7616 14.851 17.7892 14.8434 17.8169 14.8365C17.8169 14.8365 17.817 14.8365 17.8169 14.8365C17.8724 14.8225 17.9282 14.81 17.9843 14.7985C17.9919 14.7968 17.9995 14.7951 18.0072 14.7935C18.0072 14.7935 18.0072 14.7935 18.0072 14.7935C18.0538 14.7842 18.1007 14.7761 18.1476 14.7685C18.1477 14.7684 18.1478 14.7684 18.1478 14.7684C18.1593 14.7665 18.1709 14.7646 18.1824 14.7627C18.2389 14.7539 18.2957 14.7465 18.3528 14.7402C18.3529 14.7402 18.353 14.7401 18.3532 14.7401C18.3645 14.7389 18.3758 14.7375 18.387 14.7361C18.4601 14.7286 18.5335 14.7226 18.6074 14.7189C18.6081 14.7189 18.6089 14.7188 18.6097 14.7187C18.6779 14.7154 18.7463 14.7135 18.8151 14.7135C21.0767 14.7135 22.9167 16.5535 22.9167 18.8151ZM21.875 18.8151C21.875 17.1279 20.5023 15.7552 18.8151 15.7552C18.3267 15.7552 17.8591 15.8677 17.4251 16.0894L17.0877 16.2618L15.5135 14.6876C15.5135 14.6876 15.5135 14.6876 15.5135 14.6876L13.1995 12.3736L13.151 12.3251L8.73819 7.91225L8.91055 7.57484C9.13231 7.14086 9.24478 6.67324 9.24478 6.1849C9.24478 4.49765 7.87212 3.125 6.18488 3.125C6.10744 3.125 6.03026 3.12786 5.95352 3.13365L7.13913 4.31919C7.5157 4.69583 7.72316 5.19657 7.72316 5.72917C7.72316 6.26176 7.5157 6.76251 7.13913 7.13914C6.76249 7.51572 6.26175 7.72317 5.72915 7.72317C5.19656 7.72317 4.69582 7.51572 4.31918 7.13914L3.13363 5.95353C3.12785 6.03027 3.12499 6.10739 3.12499 6.1849C3.12499 7.87214 4.49764 9.24479 6.18488 9.24479C6.67323 9.24479 7.14085 9.13232 7.57483 8.91056L7.91224 8.7382L14.6916 15.5175C14.6916 15.5175 14.6916 15.5175 14.6916 15.5175L16.2618 17.0877L16.0894 17.4252C15.8677 17.8591 15.7552 18.3268 15.7552 18.8151C15.7552 20.5023 17.1279 21.875 18.8151 21.875C18.8925 21.875 18.9697 21.8721 19.0465 21.8664L17.8608 20.6808C17.4843 20.3042 17.2768 19.8034 17.2768 19.2708C17.2768 18.7382 17.4843 18.2375 17.8608 17.8609C18.2375 17.4843 18.7382 17.2768 19.2708 17.2768C19.8034 17.2768 20.3042 17.4843 20.6808 17.8609L21.8663 19.0465C21.8721 18.9697 21.875 18.8926 21.875 18.8151Z" fill="#71767C"/>
</svg>
