<?xml version="1.0" standalone="no"?>
<!DOCTYPE svg PUBLIC "-//W3C//DTD SVG 20010904//EN"
 "http://www.w3.org/TR/2001/REC-SVG-20010904/DTD/svg10.dtd">
<svg version="1.0" xmlns="http://www.w3.org/2000/svg"
 width="980.000000pt" height="748.000000pt" viewBox="0 0 980.000000 748.000000"
 preserveAspectRatio="xMidYMid meet">

<g transform="translate(0.000000,748.000000) scale(0.100000,-0.100000)"
fill="#000000" stroke="none">
<path d="M2920 7473 c-384 -40 -757 -152 -1020 -305 -211 -123 -361 -240 -541
-424 -332 -341 -543 -755 -631 -1239 -21 -119 -23 -155 -22 -440 2 -343 8
-393 56 -428 24 -18 47 -21 209 -25 l182 -5 -6 25 c-14 53 -26 169 -37 333
-22 334 25 615 149 911 197 465 578 839 1056 1037 264 109 575 156 890 136
419 -28 797 -178 1110 -441 113 -94 198 -185 318 -336 111 -140 185 -209 233
-218 91 -17 141 21 309 230 267 335 564 550 925 670 382 127 878 133 1232 15
523 -175 929 -525 1163 -1004 196 -399 249 -840 159 -1324 l-7 -34 179 5 c198
5 218 10 240 64 33 79 44 500 19 716 -113 964 -817 1765 -1761 2004 -187 47
-315 65 -519 71 -562 17 -1081 -156 -1545 -515 -47 -37 -148 -128 -224 -204
l-139 -138 -146 143 c-235 231 -409 357 -656 478 -156 76 -266 116 -431 159
-253 66 -572 101 -744 83z"/>
<path d="M5649 5859 c-27 -16 -52 -48 -92 -118 -103 -178 -335 -631 -803
-1563 -255 -511 -466 -928 -469 -928 -3 0 -135 260 -294 578 -465 930 -563
1111 -642 1194 -51 54 -70 58 -130 27 -57 -29 -122 -133 -319 -518 l-164 -321
-1302 0 -1302 0 -53 -57 c-106 -116 -105 -178 2 -296 l52 -59 1366 5 c895 3
1385 9 1421 16 43 8 61 18 82 43 15 17 81 138 147 267 l119 235 327 -654 c532
-1064 595 -1170 691 -1170 105 0 187 145 991 1753 241 482 440 877 443 876 3
0 130 -251 283 -557 327 -657 388 -769 425 -784 50 -19 556 -27 1893 -27
l1336 -1 57 60 c113 119 113 175 -2 293 l-56 57 -1501 0 -1502 0 -178 363
c-200 406 -518 1029 -595 1166 -28 50 -65 100 -81 112 -45 31 -106 35 -150 8z"/>
<path d="M1430 3392 c0 -12 2972 -2976 3161 -3153 204 -191 261 -234 309 -234
49 0 101 40 321 247 212 199 3149 3127 3149 3139 0 5 -127 9 -282 9 l-283 0
-1452 -1452 -1453 -1453 -1453 1453 -1452 1452 -283 0 c-155 0 -282 -4 -282
-8z"/>
</g>
</svg>
