<svg width="246" height="89" viewBox="0 0 246 89" fill="none" xmlns="http://www.w3.org/2000/svg">
<path fill-rule="evenodd" clip-rule="evenodd" d="M236.57 15.8018C236.765 16.0457 236.842 16.3211 236.797 16.6261C235.575 18.4755 234.035 20.0119 232.178 21.2332C231.484 20.0962 230.792 18.9612 230.098 17.8242C232.111 16.6126 234.269 15.9399 236.57 15.8018Z" fill="#FDECA3"/>
<path fill-rule="evenodd" clip-rule="evenodd" d="M238.364 29.5672C239.726 31.3311 239.255 32.213 236.954 32.2166C235.032 31.9304 233.401 31.1368 232.061 29.8357C232.296 28.8282 232.732 27.9648 233.371 27.2475C235.121 27.8698 236.785 28.643 238.364 29.5672Z" fill="#FEECA3"/>
<path fill-rule="evenodd" clip-rule="evenodd" d="M224.092 6.62819C225.04 8.967 225.118 11.3495 224.327 13.7777C224.275 13.9937 224.141 14.0752 223.926 14.0224C222.893 13.7885 221.883 13.4858 220.897 13.1183C220.71 10.7121 221.318 8.55213 222.723 6.63839C223.195 6.30031 223.652 6.29687 224.092 6.62819Z" fill="#FEECA3"/>
<path fill-rule="evenodd" clip-rule="evenodd" d="M227.97 18.8472C232.533 25.9947 230.969 31.399 223.276 35.0582C217.368 37.0448 213.217 35.1278 210.824 29.3089C209.135 25.1027 210.007 21.4965 213.443 18.492C218.4 14.3667 223.243 14.4857 227.97 18.8472Z" fill="#FEECA3"/>
<path fill-rule="evenodd" clip-rule="evenodd" d="M228.248 34.6382C229.057 35.8893 229.8 37.181 230.473 38.5096C231.075 40.985 230.313 41.5406 228.189 40.1784C226.965 39.1367 225.915 37.9418 225.04 36.596C226.109 35.9434 227.179 35.2908 228.248 34.6382Z" fill="#FEECA3"/>
<path fill-rule="evenodd" clip-rule="evenodd" d="M213.576 11.9441C214.106 12.8125 214.637 13.6828 215.166 14.5511C213.963 15.2852 212.76 16.0194 211.557 16.7536C210.526 14.8509 210.021 12.82 210.041 10.6611C210.318 9.91386 210.814 9.74897 211.528 10.1665C212.295 10.7056 212.978 11.2989 213.576 11.9441Z" fill="#FDECA3"/>
<path fill-rule="evenodd" clip-rule="evenodd" d="M218.803 37.6497C219.055 40.281 218.144 42.3949 216.071 43.9954C215.072 41.9516 214.875 39.8238 215.479 37.614C215.531 37.398 215.665 37.3165 215.88 37.3693C216.863 37.5236 217.837 37.6172 218.803 37.6497Z" fill="#FDECA3"/>
<path fill-rule="evenodd" clip-rule="evenodd" d="M208.168 21.573C208.028 22.9766 207.831 24.3821 207.575 25.7876C205.274 25.194 203.264 24.0808 201.547 22.4482C201.006 21.7105 201.075 21.0714 201.755 20.5329C202.293 20.2757 202.864 20.1587 203.464 20.1777C205.096 20.4866 206.664 20.9525 208.168 21.573Z" fill="#FEECA3"/>
<path fill-rule="evenodd" clip-rule="evenodd" d="M208.885 31.3176C209.415 32.1859 209.946 33.0562 210.476 33.9246C208.734 35.3257 206.777 35.876 204.606 35.5798C204.631 34.8767 204.915 34.2903 205.459 33.8209C206.497 32.846 207.639 32.0116 208.885 31.3176Z" fill="#FEECA3"/>
<path fill-rule="evenodd" clip-rule="evenodd" d="M6.86272 68.4062C9.86802 68.2655 12.4206 69.2521 14.524 71.3663C15.701 72.1481 16.979 72.3803 18.3546 72.0627C19.8067 71.5111 21.0848 70.6983 22.1852 69.6251C24.0866 68.1663 26.0576 68.0503 28.1052 69.2768C29.8429 70.5517 31.7025 71.5383 33.677 72.2369C35.2232 72.1428 36.5013 71.5045 37.5077 70.3215C40.513 69.0379 42.3691 69.9667 43.0795 73.1074C41.6587 76.7323 39.3394 79.6341 36.1147 81.8134C32.2737 82.388 29.3693 80.995 27.4088 77.6345C26.9317 77.3298 26.4093 77.1557 25.8417 77.1122C22.8573 78.3735 19.8381 79.5342 16.7875 80.5946C14.4369 79.9719 12.1734 79.1013 9.99686 77.9828C7.36767 77.6269 4.8116 77.917 2.33563 78.8534C1.23868 78.7451 0.483 78.1649 0.0720793 77.1122C-0.269194 74.4837 0.601401 72.3364 2.68386 70.6698C4.05244 69.8117 5.44539 69.0571 6.86272 68.4062Z" fill="#AF5834"/>
<path d="M39.607 49.291C39.999 49.4217 40.538 49.7483 41.224 50.271C41.91 50.761 42.5633 51.545 43.184 52.623C43.8047 53.701 44.115 55.024 44.115 56.592C44.115 59.63 43.0533 61.9657 40.93 63.599C38.8067 65.1997 35.981 66 32.453 66H18.047C17.5243 66 17.1487 65.8857 16.92 65.657C16.724 65.4283 16.626 65.069 16.626 64.579V35.13C16.626 34.64 16.724 34.2807 16.92 34.052C17.1487 33.8233 17.5243 33.709 18.047 33.709H31.767C34.315 33.709 36.4383 34.1173 38.137 34.934C39.8683 35.7507 41.1423 36.8287 41.959 38.168C42.7757 39.5073 43.184 40.9773 43.184 42.578C43.184 44.6687 42.7593 46.2367 41.91 47.282C41.0933 48.2947 40.3257 48.9643 39.607 49.291ZM32.551 59.042C35.0663 59.042 36.324 57.9803 36.324 55.857C36.324 54.779 35.9647 54.0113 35.246 53.554C34.5273 53.0967 33.531 52.868 32.257 52.868H31.13C30.6073 52.868 30.2317 52.7537 30.003 52.525C29.807 52.2963 29.709 51.937 29.709 51.447V47.723C29.709 47.233 29.807 46.8737 30.003 46.645C30.2317 46.4163 30.6073 46.302 31.13 46.302H31.767C34.4783 46.302 35.834 45.322 35.834 43.362C35.834 42.3167 35.491 41.598 34.805 41.206C34.1517 40.814 33.139 40.618 31.767 40.618H24.319V59.042H32.551ZM87.5294 48.017C88.0521 48.017 88.4114 48.1313 88.6074 48.36C88.8361 48.5887 88.9504 48.948 88.9504 49.438V56.543C88.8197 58.7643 88.0684 60.6427 86.6964 62.178C85.357 63.7133 83.691 64.8567 81.6984 65.608C79.7384 66.3593 77.762 66.735 75.7694 66.735C73.6787 66.735 71.6207 66.3593 69.5954 65.608C67.57 64.8567 65.8877 63.697 64.5484 62.129C63.2417 60.5283 62.5884 58.5193 62.5884 56.102V44.048C62.5884 41.6307 63.258 39.589 64.5974 37.923C65.9367 36.257 67.6027 35.032 69.5954 34.248C71.6207 33.4313 73.6787 33.023 75.7694 33.023C77.8927 33.023 79.9671 33.4313 81.9924 34.248C84.0177 35.032 85.6837 36.1917 86.9904 37.727C88.2971 39.2297 88.9504 41.0263 88.9504 43.117C88.9504 43.705 88.8524 44.0807 88.6564 44.244C88.4931 44.4073 88.1174 44.489 87.5294 44.489H82.7764C82.2864 44.489 81.9597 44.391 81.7964 44.195C81.6657 43.999 81.5677 43.7703 81.5024 43.509C81.4697 43.215 81.4207 42.9863 81.3554 42.823C81.0614 41.9737 80.4407 41.2713 79.4934 40.716C78.546 40.128 77.3047 39.834 75.7694 39.834C74.1687 39.834 72.8621 40.324 71.8494 41.304C70.8694 42.284 70.3794 43.558 70.3794 45.126V54.975C70.3794 56.5103 70.8694 57.719 71.8494 58.601C72.8294 59.483 74.136 59.924 75.7694 59.924C77.4681 59.924 78.7911 59.4993 79.7384 58.65C80.7184 57.8007 81.2084 56.4777 81.2084 54.681H76.7984C76.2757 54.681 75.9 54.5667 75.6714 54.338C75.4754 54.1093 75.3774 53.75 75.3774 53.26V49.438C75.3774 48.948 75.4754 48.5887 75.6714 48.36C75.9 48.1313 76.2757 48.017 76.7984 48.017H87.5294ZM121.657 64.432C121.788 64.6607 121.853 64.8893 121.853 65.118C121.853 65.3793 121.771 65.5917 121.608 65.755C121.445 65.9183 121.216 66 120.922 66H115.14C114.585 66 114.127 65.8857 113.768 65.657C113.409 65.4283 113.049 65.0527 112.69 64.53L107.398 56.641C107.169 56.347 107.022 56.0367 106.957 55.71C106.892 55.3507 106.859 54.828 106.859 54.142V50.222C106.859 49.732 106.957 49.3727 107.153 49.144C107.382 48.9153 107.757 48.801 108.28 48.801H109.26C110.501 48.801 111.579 48.4253 112.494 47.674C113.441 46.89 113.915 45.9427 113.915 44.832C113.915 43.5907 113.49 42.5943 112.641 41.843C111.792 41.059 110.714 40.667 109.407 40.667H102.89V64.579C102.89 65.1017 102.776 65.4773 102.547 65.706C102.318 65.902 101.959 66 101.469 66H96.6181C96.1608 66 95.8178 65.902 95.5891 65.706C95.3605 65.4773 95.2461 65.1017 95.2461 64.579V35.228C95.2461 34.738 95.3441 34.3787 95.5401 34.15C95.7361 33.9213 96.0955 33.807 96.6181 33.807H108.966C111.514 33.807 113.49 34.052 114.895 34.542C116.332 35.032 117.606 35.8323 118.717 36.943C119.632 37.825 120.334 38.9357 120.824 40.275C121.314 41.6143 121.559 43.068 121.559 44.636C121.559 46.2367 121.216 47.723 120.53 49.095C119.844 50.4343 118.978 51.5613 117.933 52.476C116.888 53.3907 115.826 54.0277 114.748 54.387L121.657 64.432ZM151.254 59.14C151.777 59.14 152.136 59.2543 152.332 59.483C152.561 59.7117 152.675 60.071 152.675 60.561V64.579C152.675 65.069 152.561 65.4283 152.332 65.657C152.136 65.8857 151.777 66 151.254 66H129.302C128.779 66 128.404 65.8857 128.175 65.657C127.979 65.4283 127.881 65.069 127.881 64.579V35.179C127.881 34.689 127.979 34.3297 128.175 34.101C128.404 33.8723 128.779 33.758 129.302 33.758H150.421C150.944 33.758 151.303 33.8723 151.499 34.101C151.728 34.3297 151.842 34.689 151.842 35.179V39.246C151.842 39.736 151.728 40.0953 151.499 40.324C151.303 40.5527 150.944 40.667 150.421 40.667H135.623V46.008H148.755C149.278 46.008 149.637 46.1223 149.833 46.351C150.062 46.5797 150.176 46.939 150.176 47.429V51.251C150.176 51.741 150.062 52.1003 149.833 52.329C149.637 52.5577 149.278 52.672 148.755 52.672H135.623V59.14H151.254ZM181.975 59.14C182.497 59.14 182.857 59.2543 183.053 59.483C183.281 59.7117 183.396 60.071 183.396 60.561V64.579C183.396 65.069 183.281 65.4283 183.053 65.657C182.857 65.8857 182.497 66 181.975 66H160.023C159.5 66 159.124 65.8857 158.896 65.657C158.7 65.4283 158.602 65.069 158.602 64.579V35.179C158.602 34.689 158.7 34.3297 158.896 34.101C159.124 33.8723 159.5 33.758 160.023 33.758H181.142C181.664 33.758 182.024 33.8723 182.22 34.101C182.448 34.3297 182.563 34.689 182.563 35.179V39.246C182.563 39.736 182.448 40.0953 182.22 40.324C182.024 40.5527 181.664 40.667 181.142 40.667H166.344V46.008H179.476C179.998 46.008 180.358 46.1223 180.554 46.351C180.782 46.5797 180.897 46.939 180.897 47.429V51.251C180.897 51.741 180.782 52.1003 180.554 52.329C180.358 52.5577 179.998 52.672 179.476 52.672H166.344V59.14H181.975ZM214.067 33.758C214.557 33.758 214.917 33.8723 215.145 34.101C215.374 34.297 215.488 34.6563 215.488 35.179V64.579C215.488 65.069 215.374 65.4283 215.145 65.657C214.949 65.8857 214.59 66 214.067 66H209.608C209.053 66 208.645 65.8857 208.383 65.657C208.155 65.4283 207.828 64.9873 207.403 64.334L197.015 47.527V64.579C197.015 65.1017 196.901 65.4773 196.672 65.706C196.444 65.902 196.084 66 195.594 66H190.743C190.253 66 189.894 65.902 189.665 65.706C189.437 65.4773 189.322 65.1017 189.322 64.579V35.179C189.322 34.689 189.42 34.3297 189.616 34.101C189.845 33.8723 190.221 33.758 190.743 33.758H195.349C195.905 33.758 196.297 33.8723 196.525 34.101C196.787 34.3297 197.13 34.7707 197.554 35.424L207.942 52.182V35.179C207.942 34.6563 208.057 34.297 208.285 34.101C208.514 33.8723 208.873 33.758 209.363 33.758H214.067Z" fill="#4A5425"/>
<path d="M99.936 78.104C100.944 78.104 101.72 78.356 102.264 78.86C102.808 79.364 103.08 80.04 103.08 80.888C103.08 81.736 102.804 82.412 102.252 82.916C101.708 83.412 100.932 83.66 99.924 83.66H98.772V85.652C98.772 85.78 98.744 85.872 98.688 85.928C98.632 85.976 98.544 86 98.424 86H97.236C97.116 86 97.028 85.976 96.972 85.928C96.916 85.872 96.888 85.78 96.888 85.652V78.452C96.888 78.332 96.912 78.244 96.96 78.188C97.016 78.132 97.108 78.104 97.236 78.104H99.936ZM99.924 82.04C100.364 82.04 100.696 81.936 100.92 81.728C101.152 81.512 101.268 81.244 101.268 80.924C101.268 80.588 101.156 80.316 100.932 80.108C100.708 79.9 100.372 79.796 99.924 79.796H98.772V82.04H99.924ZM110.891 85.616C110.923 85.672 110.939 85.728 110.939 85.784C110.939 85.848 110.919 85.9 110.879 85.94C110.839 85.98 110.783 86 110.711 86H109.295C109.159 86 109.047 85.972 108.959 85.916C108.871 85.86 108.783 85.768 108.695 85.64L107.399 83.708C107.343 83.636 107.307 83.56 107.291 83.48C107.275 83.392 107.267 83.264 107.267 83.096V82.136C107.267 82.016 107.291 81.928 107.339 81.872C107.395 81.816 107.487 81.788 107.615 81.788H107.855C108.159 81.788 108.423 81.696 108.647 81.512C108.879 81.32 108.995 81.088 108.995 80.816C108.995 80.512 108.891 80.268 108.683 80.084C108.475 79.892 108.211 79.796 107.891 79.796H106.295V85.652C106.295 85.78 106.267 85.872 106.211 85.928C106.155 85.976 106.067 86 105.947 86H104.759C104.647 86 104.563 85.976 104.507 85.928C104.451 85.872 104.423 85.78 104.423 85.652V78.464C104.423 78.344 104.447 78.256 104.495 78.2C104.543 78.144 104.631 78.116 104.759 78.116H107.783C108.407 78.116 108.891 78.176 109.235 78.296C109.587 78.416 109.899 78.612 110.171 78.884C110.395 79.1 110.567 79.372 110.687 79.7C110.807 80.028 110.867 80.384 110.867 80.768C110.867 81.16 110.783 81.524 110.615 81.86C110.447 82.188 110.235 82.464 109.979 82.688C109.723 82.912 109.463 83.068 109.199 83.156L110.891 85.616ZM118.619 83.468C118.619 84.06 118.455 84.56 118.127 84.968C117.807 85.376 117.399 85.68 116.903 85.88C116.407 86.08 115.903 86.18 115.391 86.18C114.879 86.18 114.375 86.084 113.879 85.892C113.391 85.692 112.987 85.388 112.667 84.98C112.347 84.564 112.187 84.06 112.187 83.468V80.636C112.187 80.044 112.347 79.544 112.667 79.136C112.987 78.72 113.391 78.416 113.879 78.224C114.375 78.024 114.879 77.924 115.391 77.924C115.903 77.924 116.407 78.024 116.903 78.224C117.399 78.424 117.807 78.728 118.127 79.136C118.455 79.544 118.619 80.044 118.619 80.636V83.468ZM116.735 80.804C116.735 80.428 116.611 80.132 116.363 79.916C116.115 79.7 115.791 79.592 115.391 79.592C114.991 79.592 114.667 79.7 114.419 79.916C114.179 80.132 114.059 80.428 114.059 80.804V83.3C114.059 83.676 114.179 83.972 114.419 84.188C114.667 84.404 114.991 84.512 115.391 84.512C115.791 84.512 116.115 84.404 116.363 84.188C116.611 83.972 116.735 83.676 116.735 83.3V80.804ZM125.07 78.044C125.198 78.044 125.286 78.072 125.334 78.128C125.39 78.184 125.418 78.272 125.418 78.392V83.42C125.418 84.012 125.274 84.5 124.986 84.884C124.706 85.268 124.338 85.552 123.882 85.736C123.434 85.912 122.954 86 122.442 86C121.906 86 121.422 85.9 120.99 85.7C120.566 85.5 120.23 85.208 119.982 84.824C119.742 84.432 119.622 83.96 119.622 83.408C119.622 83.336 119.638 83.264 119.67 83.192C119.71 83.12 119.79 83.084 119.91 83.084H121.182C121.302 83.084 121.382 83.112 121.422 83.168C121.462 83.224 121.482 83.28 121.482 83.336C121.498 83.68 121.59 83.932 121.758 84.092C121.934 84.252 122.162 84.332 122.442 84.332C122.826 84.332 123.102 84.232 123.27 84.032C123.446 83.832 123.534 83.54 123.534 83.156V79.736H121.434C121.298 79.736 121.206 79.708 121.158 79.652C121.11 79.596 121.086 79.508 121.086 79.388V78.392C121.086 78.272 121.11 78.184 121.158 78.128C121.206 78.072 121.298 78.044 121.434 78.044H125.07ZM132.835 84.32C132.963 84.32 133.051 84.348 133.099 84.404C133.155 84.46 133.183 84.548 133.183 84.668V85.652C133.183 85.772 133.155 85.86 133.099 85.916C133.051 85.972 132.963 86 132.835 86H127.459C127.331 86 127.239 85.972 127.183 85.916C127.135 85.86 127.111 85.772 127.111 85.652V78.452C127.111 78.332 127.135 78.244 127.183 78.188C127.239 78.132 127.331 78.104 127.459 78.104H132.631C132.759 78.104 132.847 78.132 132.895 78.188C132.951 78.244 132.979 78.332 132.979 78.452V79.448C132.979 79.568 132.951 79.656 132.895 79.712C132.847 79.768 132.759 79.796 132.631 79.796H129.007V81.104H132.223C132.351 81.104 132.439 81.132 132.487 81.188C132.543 81.244 132.571 81.332 132.571 81.452V82.388C132.571 82.508 132.543 82.596 132.487 82.652C132.439 82.708 132.351 82.736 132.223 82.736H129.007V84.32H132.835ZM140.718 83.66C140.718 84.156 140.566 84.596 140.262 84.98C139.958 85.364 139.562 85.66 139.074 85.868C138.594 86.076 138.102 86.18 137.598 86.18C137.086 86.18 136.582 86.08 136.086 85.88C135.598 85.68 135.19 85.376 134.862 84.968C134.542 84.56 134.382 84.06 134.382 83.468V80.636C134.382 80.044 134.542 79.544 134.862 79.136C135.19 78.728 135.598 78.424 136.086 78.224C136.582 78.024 137.086 77.924 137.598 77.924C138.11 77.924 138.594 78.012 139.05 78.188C139.506 78.356 139.886 78.612 140.19 78.956C140.494 79.3 140.67 79.716 140.718 80.204C140.718 80.348 140.69 80.444 140.634 80.492C140.586 80.532 140.49 80.552 140.346 80.552H139.194C139.114 80.552 139.054 80.532 139.014 80.492C138.974 80.452 138.938 80.4 138.906 80.336C138.882 80.272 138.858 80.22 138.834 80.18C138.706 79.98 138.546 79.836 138.354 79.748C138.17 79.652 137.918 79.604 137.598 79.604C137.198 79.604 136.874 79.712 136.626 79.928C136.386 80.136 136.266 80.428 136.266 80.804V83.3C136.266 83.676 136.386 83.972 136.626 84.188C136.874 84.396 137.198 84.5 137.598 84.5C137.942 84.5 138.226 84.432 138.45 84.296C138.674 84.16 138.81 83.956 138.858 83.684C138.882 83.532 138.91 83.424 138.942 83.36C138.982 83.288 139.062 83.252 139.182 83.252H140.358C140.486 83.252 140.578 83.284 140.634 83.348C140.69 83.412 140.718 83.516 140.718 83.66ZM147.556 78.104C147.684 78.104 147.772 78.132 147.82 78.188C147.876 78.244 147.904 78.332 147.904 78.452V79.448C147.904 79.568 147.876 79.656 147.82 79.712C147.772 79.768 147.684 79.796 147.556 79.796H145.72V85.652C145.72 85.78 145.692 85.872 145.636 85.928C145.58 85.976 145.492 86 145.372 86H144.184C144.064 86 143.976 85.976 143.92 85.928C143.864 85.872 143.836 85.78 143.836 85.652V79.796H141.988C141.86 79.796 141.768 79.768 141.712 79.712C141.664 79.656 141.64 79.568 141.64 79.448V78.452C141.64 78.332 141.664 78.244 141.712 78.188C141.768 78.132 141.86 78.104 141.988 78.104H147.556Z" fill="#4A5425"/>
</svg>
