<svg width="593" height="295" viewBox="0 0 593 295" fill="none" xmlns="http://www.w3.org/2000/svg">
<path fill-rule="evenodd" clip-rule="evenodd" d="M557.297 0.0199768C557.909 -0.0588423 558.452 0.0955504 558.92 0.483619C560.779 4.44451 561.785 8.61729 561.934 13.0019C559.305 13.0019 556.681 13.0019 554.052 13.0019C554.08 8.36553 555.164 4.03836 557.297 0.0199768Z" fill="#FDECA3"/>
<path fill-rule="evenodd" clip-rule="evenodd" d="M205.857 3.26538C208.448 5.08147 210.766 7.24528 212.812 9.75637C215.515 8.32789 218.143 6.7821 220.694 5.11995C220.965 5.21685 221.197 5.37171 221.389 5.58359C220.807 8.5509 219.957 11.4871 218.839 14.3928C221.635 15.7883 224.262 17.4111 226.721 19.261C226.654 19.619 226.499 19.9282 226.257 20.1883C223.5 20.8759 220.719 21.417 217.912 21.8111C218.065 25.0714 217.91 28.3169 217.448 31.5475C215.137 29.4681 212.896 27.3047 210.725 25.0565C208.048 26.74 205.344 28.2079 202.612 29.4611C202.4 29.2692 202.245 29.0374 202.148 28.7657C203.255 25.8531 203.874 22.9164 204.002 19.9565C201.453 18.605 198.98 17.1371 196.584 15.5519C199.501 14.1271 202.592 13.2768 205.857 13.0019C205.857 9.75637 205.857 6.51087 205.857 3.26538Z" fill="#D8B7AA"/>
<path fill-rule="evenodd" clip-rule="evenodd" d="M207.248 6.51099C209.26 8.21394 211.114 10.0685 212.812 12.0747C214.86 10.2878 217.023 9.05128 219.303 8.36555C218.637 10.6434 217.864 12.8842 216.984 15.0884C219.12 16.3124 221.284 17.5489 223.475 18.7975C221.172 19.875 218.776 20.5705 216.289 20.8839C216.548 23.3208 216.548 25.7938 216.289 28.3022C214.512 26.602 212.734 24.9023 210.957 23.2021C208.85 24.3728 206.763 25.6093 204.698 26.9112C204.773 24.4414 205.468 22.1232 206.784 19.9566C204.575 18.772 202.412 17.4585 200.293 16.0156C202.57 14.9247 204.966 14.2292 207.48 13.9293C207.322 11.4845 207.245 9.01141 207.248 6.51099Z" fill="#E7EDDB"/>
<path fill-rule="evenodd" clip-rule="evenodd" d="M582.334 11.1474C586.706 10.6657 587.708 12.3658 585.348 16.2475C582.89 19.1902 579.877 21.1222 576.307 22.043C574.851 20.6113 573.845 18.9885 573.293 17.1747C576.14 14.8672 579.153 12.8582 582.334 11.1474Z" fill="#FEECA3"/>
<path fill-rule="evenodd" clip-rule="evenodd" d="M529.015 11.6111C533.93 12.4187 538.024 14.737 541.302 18.5657C541.612 18.875 541.612 19.1837 541.302 19.493C539.846 20.9924 538.297 22.3833 536.665 23.6658C532.418 21.5084 529.405 18.263 527.624 13.9293C527.541 12.785 528.004 12.0121 529.015 11.6111Z" fill="#FEECA3"/>
<path fill-rule="evenodd" clip-rule="evenodd" d="M59.8098 14.8565C60.0031 14.5672 60.3124 14.4128 60.7371 14.3928C65.9364 15.5301 70.5728 17.7709 74.6463 21.1156C80.4975 25.8833 85.5206 31.3695 89.7147 37.5749C89.7912 34.3178 89.5594 31.0723 89.0192 27.8384C89.1736 27.3748 89.3285 26.9112 89.4829 26.4475C100.935 35.9939 107.812 48.2034 110.115 63.0752C110.424 65.8571 110.424 68.6389 110.115 71.4208C100.604 85.0245 87.5444 92.134 70.9372 92.7483C72.6958 89.9275 74.3955 87.0682 76.0373 84.1709C66.8562 85.7033 57.5834 86.1669 48.2188 85.5618C50.9584 82.2454 53.5854 78.8455 56.1007 75.3617C46.628 77.2084 37.8188 75.5082 29.6731 70.2617C31.3927 67.5174 33.1699 64.8129 35.005 62.1479C35.5553 61.4321 35.7097 60.6592 35.4686 59.8297C31.0079 56.2982 26.2941 53.1301 21.3275 50.3251C14.3474 46.526 7.23838 42.9712 0 39.6613C7.74328 35.3805 15.934 32.2894 24.573 30.3885C28.616 30.1219 32.6339 30.1219 36.6277 30.3885C34.0002 26.5249 31.3733 22.6609 28.7458 18.7974C38.1345 17.291 47.0981 18.682 55.637 22.9702C59.7384 25.1725 63.7568 27.3358 67.6917 29.4612C65.2279 24.4534 62.6009 19.5851 59.8098 14.8565Z" fill="#95C812"/>
<path fill-rule="evenodd" clip-rule="evenodd" d="M210.957 14.8564C213.872 15.0669 214.799 16.5353 213.739 19.261C210.622 20.5277 209.309 19.523 209.798 16.2474C210.121 15.6952 210.508 15.2315 210.957 14.8564Z" fill="#D8B7AA"/>
<path fill-rule="evenodd" clip-rule="evenodd" d="M420.523 17.1748C424.524 16.9874 427.923 18.3009 430.723 21.1157C432.29 22.1566 433.992 22.4658 435.823 22.043C437.757 21.3086 439.458 20.2265 440.923 18.7975C443.455 16.8553 446.079 16.7009 448.805 18.3339C451.119 20.0313 453.595 21.3448 456.224 22.2748C458.282 22.1496 459.984 21.2998 461.324 19.7248C465.325 18.0158 467.796 19.2523 468.742 23.4339C466.85 28.26 463.762 32.1235 459.469 35.025C454.355 35.79 450.488 33.9354 447.878 29.4613C447.243 29.0556 446.547 28.8238 445.792 28.7658C441.818 30.4451 437.799 31.9904 433.737 33.4022C430.607 32.5732 427.594 31.4141 424.696 29.9249C421.195 29.4511 417.792 29.8373 414.496 31.084C413.035 30.9398 412.029 30.1674 411.482 28.7658C411.028 25.2662 412.187 22.4074 414.96 20.1884C416.782 19.046 418.636 18.0413 420.523 17.1748Z" fill="#AF5834"/>
<path fill-rule="evenodd" clip-rule="evenodd" d="M553.588 17.6384C570.321 17.298 577.818 25.4892 576.075 42.2114C573.349 54.2072 565.852 59.2303 553.588 57.2797C544.765 55.8016 539.586 50.6246 538.056 41.7477C536.202 29.1557 541.381 21.1189 553.588 17.6384Z" fill="#FEECA3"/>
<path fill-rule="evenodd" clip-rule="evenodd" d="M62.1281 47.7749C62.0882 48.2367 62.243 48.6229 62.5917 48.934C64.3489 49.4097 66.0491 49.9508 67.6918 50.5568C67.8503 50.9453 68.1591 51.1002 68.619 51.0204C70.6883 51.67 72.6972 52.4424 74.6464 53.3386C74.9181 53.2417 75.1499 53.0869 75.3419 52.875C75.5375 53.768 76.0786 54.2316 76.9646 54.2659C77.284 54.8566 77.6707 54.8566 78.1237 54.2659C78.8145 55.2201 79.7418 55.8381 80.9056 56.1205C80.983 55.9661 81.0599 55.8112 81.1374 55.6569C80.6144 55.3036 80.0733 54.9943 79.5146 54.7296C79.758 53.36 79.217 52.2778 77.8919 51.4841C76.8589 49.0374 75.3131 46.951 73.2555 45.2249C73.6301 45.0821 73.9393 44.8503 74.1827 44.5294C73.0774 42.9313 72.7686 41.2316 73.2555 39.4294C74.1039 40.6631 75.1856 41.6679 76.501 42.4431C76.303 43.4297 76.5348 44.4344 77.1964 45.4567C79.6704 49.0078 82.0661 52.8713 84.3829 57.0478C88.0021 59.245 91.7112 61.3314 95.5103 63.3069C96.8502 64.2055 98.0863 65.2102 99.2194 66.3206C98.8184 66.8227 98.3547 66.8997 97.8285 66.5524C93.4508 64.3265 89.201 61.9309 85.0783 59.366C80.8318 63.1451 76.4272 66.7768 71.8645 70.2616C69.3164 71.8834 66.6115 73.1969 63.7508 74.2025C63.519 74.0481 63.2872 73.8933 63.0553 73.7389C65.215 71.4197 67.842 69.797 70.9373 68.8706C73.2666 66.7838 75.7392 64.9292 78.3555 63.3069C79.2239 62.5169 79.9968 61.667 80.6737 60.7569C81.1374 60.6025 81.4466 60.2933 81.601 59.8296C82.1235 59.5412 82.5872 59.155 82.9919 58.6705C78.2943 56.5878 73.5805 54.5015 68.8509 52.4114C68.128 52.6566 67.4326 52.9659 66.7645 53.3386C65.1793 51.5082 63.1703 50.4265 60.7371 50.0932C60.3671 50.305 60.2128 50.6143 60.2735 51.0204C59.5066 52.543 58.5019 53.934 57.2598 55.1932C55.0441 57.409 52.8028 59.6502 50.537 61.916C48.153 63.7261 45.5255 65.04 42.6551 65.857C42.5763 65.244 42.7307 64.703 43.1187 64.2342C45.1314 62.7636 47.2952 61.527 49.6097 60.5251C52.3267 57.8082 55.0316 55.1033 57.7235 52.4114C58.1551 51.5031 58.5413 50.5758 58.8826 49.6295C56.6501 48.4894 54.3319 48.0258 51.9279 48.2386C50.2004 47.2635 48.3458 46.5681 46.3642 46.1522C41.5827 45.1748 36.7919 44.2476 31.9913 43.3703C28.7421 42.4941 25.651 41.258 22.7185 39.6612C25.3678 39.3682 27.9952 39.5226 30.6004 40.1249C39.3294 42.0754 47.9837 44.3162 56.5644 46.8477C57.0377 46.6149 57.1152 46.3061 56.7962 45.9204C53.3828 42.1992 49.983 38.49 46.5961 34.793C45.1565 33.0028 44.3836 30.9939 44.2779 28.7656C45.6516 29.6748 46.8877 30.7565 47.987 32.0111C50.6144 35.2566 53.2414 38.5021 55.8689 41.7476C57.0512 40.6631 57.283 40.9724 56.5644 42.6749C57.965 44.2499 59.1241 45.9496 60.0417 47.7749C60.6973 48.1982 61.3927 48.1982 62.1281 47.7749Z" fill="#F4F7DC"/>
<path fill-rule="evenodd" clip-rule="evenodd" d="M580.479 33.4021C583.419 33.3252 586.358 33.4021 589.289 33.634C594.078 35.1644 594.231 37.019 589.752 39.1977C586.739 40.1894 583.646 40.73 580.479 40.8204C580.479 38.3478 580.479 35.8747 580.479 33.4021Z" fill="#FEECA3"/>
<path fill-rule="evenodd" clip-rule="evenodd" d="M527.161 34.793C529.168 34.793 531.18 34.793 533.188 34.793C533.188 37.5748 533.188 40.3567 533.188 43.1385C528.923 42.9197 524.982 41.6832 521.365 39.4294C520.392 38.1938 520.623 37.1891 522.061 36.4157C523.758 35.6771 525.459 35.1365 527.161 34.793Z" fill="#FDECA3"/>
<path fill-rule="evenodd" clip-rule="evenodd" d="M62.5916 37.1113C63.0654 37.7567 62.911 38.3748 62.1279 38.9659C61.9736 38.8115 61.8187 38.6566 61.6643 38.5023C61.9856 38.0303 62.2944 37.5666 62.5916 37.1113Z" fill="#D8E99F"/>
<path fill-rule="evenodd" clip-rule="evenodd" d="M60.2734 42.675C60.6393 42.8063 60.9485 43.0381 61.2007 43.3705C60.5906 43.6153 60.2813 43.3835 60.2734 42.675Z" fill="#E7F1C1"/>
<path fill-rule="evenodd" clip-rule="evenodd" d="M72.7919 43.6023C73.3821 43.8698 73.3821 44.1786 72.7919 44.5296C72.3454 44.3117 72.3454 44.0024 72.7919 43.6023Z" fill="#E2EFB6"/>
<path fill-rule="evenodd" clip-rule="evenodd" d="M66.3007 48.7023C65.7685 48.0555 65.3048 48.1329 64.9098 48.9341C66.1394 49.0978 67.0667 49.6388 67.6917 50.5568C66.049 49.9509 64.3488 49.4098 62.5916 48.9341C62.2429 48.623 62.0881 48.2368 62.1279 47.775C62.7158 47.1783 62.5615 46.7146 61.6643 46.3841C62.6296 45.7378 63.4025 45.8921 63.9825 46.8477C62.9875 46.9386 62.9106 47.4022 63.7507 48.2386C63.9658 47.9632 64.0433 47.654 63.9825 47.3114C64.4364 46.7248 64.9001 46.1063 65.3734 45.4568C65.5496 46.162 65.6266 46.9344 65.6053 47.775C65.9915 47.3114 66.3782 46.8477 66.7644 46.3841C66.9188 46.5385 67.0736 46.6933 67.228 46.8477C66.7041 47.3679 66.3948 47.9864 66.3007 48.7023Z" fill="#ADD44B"/>
<path fill-rule="evenodd" clip-rule="evenodd" d="M63.9825 46.8477C63.9825 47.002 63.9825 47.1569 63.9825 47.3113C64.0433 47.6539 63.9658 47.9632 63.7507 48.2386C62.9106 47.4022 62.9876 46.9385 63.9825 46.8477Z" fill="#E2EFB5"/>
<path fill-rule="evenodd" clip-rule="evenodd" d="M67.6916 47.3113C68.541 47.608 68.6954 48.0717 68.1552 48.7022C67.7444 48.3197 67.59 47.8561 67.6916 47.3113Z" fill="#E2EFB4"/>
<path fill-rule="evenodd" clip-rule="evenodd" d="M66.3008 48.7023C67.8295 48.7635 68.6019 49.5359 68.619 51.0205C68.1591 51.1003 67.8503 50.9454 67.6918 50.5569C67.0668 49.6389 66.1395 49.0978 64.9099 48.9341C65.3049 48.133 65.7686 48.0555 66.3008 48.7023Z" fill="#D4E796"/>
<path fill-rule="evenodd" clip-rule="evenodd" d="M77.8918 51.4841C79.2169 52.2779 79.7579 53.36 79.5145 54.7296C80.0732 54.9944 80.6143 55.3036 81.1373 55.6569C81.0599 55.8113 80.9829 55.9662 80.9055 56.1205C79.7417 55.8382 78.8144 55.2202 78.1236 54.266C77.6706 54.8567 77.284 54.8567 76.9645 54.266C77.1676 54.2961 77.3224 54.2192 77.4281 54.0342C76.7155 53.5195 76.4067 52.8241 76.5009 51.9478C77.0994 52.0577 77.5631 51.9033 77.8918 51.4841Z" fill="#ABD348"/>
<path fill-rule="evenodd" clip-rule="evenodd" d="M60.2735 51.0205C62.6659 51.3307 62.7429 51.9487 60.5054 52.8751C60.2782 52.2756 60.2007 51.6571 60.2735 51.0205Z" fill="#D6E89B"/>
<path fill-rule="evenodd" clip-rule="evenodd" d="M575.843 52.4114C580.535 54.692 583.159 58.4012 583.725 63.5388C579.256 63.1196 575.468 61.2651 572.366 57.9751C572.055 57.6658 572.055 57.357 572.366 57.0478C573.636 55.5507 574.795 54.0054 575.843 52.4114Z" fill="#FDECA3"/>
<path fill-rule="evenodd" clip-rule="evenodd" d="M64.4461 52.875C65.0433 53.5867 65.0433 54.3591 64.4461 55.1932C64.3038 54.5501 64.3038 53.7772 64.4461 52.875Z" fill="#E6F0BD"/>
<path fill-rule="evenodd" clip-rule="evenodd" d="M68.6189 53.3387C70.3543 53.3197 70.4317 53.629 68.8507 54.266C68.6356 53.9906 68.5582 53.6813 68.6189 53.3387Z" fill="#E5F0BA"/>
<path fill-rule="evenodd" clip-rule="evenodd" d="M58.8826 53.8025C60.0421 53.8076 60.1196 54.1168 59.1144 54.7298C58.8993 54.4544 58.8218 54.1451 58.8826 53.8025Z" fill="#EFF5D2"/>
<path fill-rule="evenodd" clip-rule="evenodd" d="M537.825 53.8025C540.045 55.4813 542.211 57.2585 544.316 59.1344C540.95 62.4017 537.009 64.6424 532.493 65.8572C530.694 66.0102 529.688 65.2373 529.479 63.539C529.6 62.3669 529.989 61.2852 530.638 60.2935C532.836 57.8621 535.233 55.6988 537.825 53.8025Z" fill="#FEECA3"/>
<path fill-rule="evenodd" clip-rule="evenodd" d="M57.4916 55.657C58.3433 55.7214 58.4977 56.0307 57.9553 56.5843C57.5853 56.3724 57.4309 56.0631 57.4916 55.657Z" fill="#DDECA9"/>
<path fill-rule="evenodd" clip-rule="evenodd" d="M62.1278 56.5842C62.9796 56.6487 63.134 56.9579 62.5915 57.5115C62.2215 57.2996 62.0671 56.9904 62.1278 56.5842Z" fill="#E2EFB5"/>
<path fill-rule="evenodd" clip-rule="evenodd" d="M77.8918 58.4387C78.5099 58.4387 78.8191 58.748 78.8191 59.366C78.5099 59.366 78.2011 59.366 77.8918 59.366C77.8918 59.0568 77.8918 58.748 77.8918 58.4387Z" fill="#EFF5D1"/>
<path fill-rule="evenodd" clip-rule="evenodd" d="M77.8918 58.439C77.8918 58.7482 77.8918 59.057 77.8918 59.3663C77.9646 60.0028 77.8871 60.6213 77.6599 61.2208C77.3164 60.6918 76.9297 60.6918 76.5008 61.2208C76.3464 61.0664 76.1916 60.9116 76.0372 60.7572C76.4433 60.409 76.907 60.1772 77.4281 60.0617C76.8666 59.5457 76.8666 59.0046 77.4281 58.439C77.0317 58.0713 76.645 58.2257 76.269 58.9026C76.0451 58.4631 75.9681 57.9995 76.0372 57.5117C76.9566 57.3527 77.5751 57.6619 77.8918 58.439Z" fill="#C4DF75"/>
<path fill-rule="evenodd" clip-rule="evenodd" d="M81.6009 59.8296C81.4466 60.2933 81.1373 60.6025 80.6737 60.7569C79.8767 60.5149 79.2586 60.0513 78.8191 59.366C79.7464 59.0568 80.6737 58.748 81.6009 58.4387C81.6009 58.9024 81.6009 59.366 81.6009 59.8296Z" fill="#BFDD6E"/>
<path fill-rule="evenodd" clip-rule="evenodd" d="M71.4009 57.9751C72.3342 58.4271 72.9522 59.2 73.2554 60.2933C73.1011 60.4477 72.9462 60.6026 72.7918 60.7569C72.0787 59.9488 71.6151 59.0215 71.4009 57.9751Z" fill="#C8E17B"/>
<path fill-rule="evenodd" clip-rule="evenodd" d="M554.979 62.6116C556.987 62.6116 558.999 62.6116 561.007 62.6116C561.577 66.986 560.492 70.8496 557.761 74.2026C556.602 73.4381 555.906 72.3559 555.675 70.9571C555.1 68.2054 554.868 65.4236 554.979 62.6116Z" fill="#FEECA3"/>
<path fill-rule="evenodd" clip-rule="evenodd" d="M79.7463 64.4661C80.1122 64.5973 80.4214 64.8291 80.6736 65.1615C80.0635 65.4063 79.7542 65.1745 79.7463 64.4661Z" fill="#E9F2C4"/>
<path fill-rule="evenodd" clip-rule="evenodd" d="M548.025 129.376C548.511 129.307 548.975 129.384 549.416 129.608C552.29 132.327 554.993 135.186 557.529 138.185C561.034 135.51 564.744 133.501 568.657 132.158C567.845 136.101 566.839 140.042 565.643 143.981C569.357 145.991 572.913 148.232 576.307 150.704C576.209 150.975 576.056 151.207 575.843 151.399C572.013 152.316 568.23 153.32 564.484 154.413C564.252 158.583 564.173 162.755 564.252 166.931C563.765 167 563.302 166.923 562.861 166.699C559.987 163.98 557.284 161.121 554.747 158.122C551.15 160.576 547.366 162.585 543.388 164.149C544.042 160.095 545.127 156.154 546.634 152.326C543.365 150.146 539.962 148.136 536.434 146.299C535.771 145.504 535.928 144.886 536.897 144.444C540.574 143.45 544.283 142.601 548.025 141.894C548.025 137.722 548.025 133.549 548.025 129.376Z" fill="#D8B7AA"/>
<path d="M208.865 144.245C209.305 144.41 213.925 146.5 213.925 152.44C213.925 159.425 208.48 163 200.835 163H184.665C183.4 163 183.07 162.395 183.07 161.405V128.35C183.07 127.36 183.4 126.755 184.665 126.755H200.065C209.03 126.755 212.88 131.54 212.88 136.71C212.88 142.265 209.36 144.025 208.865 144.245ZM200.945 155.19C203.64 155.19 205.18 154.09 205.18 151.615C205.18 149.03 203.255 148.26 200.615 148.26H199.35C198.085 148.26 197.755 147.655 197.755 146.665V142.485C197.755 141.495 198.085 140.89 199.35 140.89H200.065C203.255 140.89 204.63 139.735 204.63 137.59C204.63 135.115 202.925 134.51 200.065 134.51H191.705V155.19H200.945ZM262.655 142.815C263.92 142.815 264.25 143.42 264.25 144.41V152.385C263.755 160.305 255.725 163.825 249.455 163.825C242.965 163.825 234.66 160.525 234.66 151.89V138.36C234.66 129.67 242.965 125.985 249.455 125.985C256.33 125.985 264.25 129.945 264.25 137.315C264.25 138.635 263.92 138.855 262.655 138.855H257.32C255.78 138.855 256 137.755 255.725 136.985C255.12 135.28 253.14 133.63 249.455 133.63C245.825 133.63 243.405 136.05 243.405 139.57V150.625C243.405 154.145 245.825 156.18 249.455 156.18C253.03 156.18 255.56 154.53 255.56 150.295H250.61C249.345 150.295 249.015 149.69 249.015 148.7V144.41C249.015 143.42 249.345 142.815 250.61 142.815H262.655ZM300.962 161.24C301.457 162.01 301.182 163 300.137 163H293.647C292.327 163 291.667 162.505 290.897 161.35L284.957 152.495C284.462 151.835 284.352 151.23 284.352 149.69V145.29C284.352 144.3 284.682 143.695 285.947 143.695H287.047C289.742 143.695 292.272 141.825 292.272 139.24C292.272 136.38 290.072 134.565 287.212 134.565H279.897V161.405C279.897 162.67 279.292 163 278.302 163H272.857C271.867 163 271.317 162.67 271.317 161.405V128.46C271.317 127.47 271.592 126.865 272.857 126.865H286.717C292.712 126.865 295.352 128.075 297.662 130.385C299.697 132.365 300.852 135.5 300.852 139.02C300.852 144.795 296.617 148.81 293.207 149.965L300.962 161.24ZM334.183 155.3C335.448 155.3 335.778 155.905 335.778 156.895V161.405C335.778 162.395 335.448 163 334.183 163H309.543C308.278 163 307.948 162.395 307.948 161.405V128.405C307.948 127.415 308.278 126.81 309.543 126.81H333.248C334.513 126.81 334.843 127.415 334.843 128.405V132.97C334.843 133.96 334.513 134.565 333.248 134.565H316.638V140.56H331.378C332.643 140.56 332.973 141.165 332.973 142.155V146.445C332.973 147.435 332.643 148.04 331.378 148.04H316.638V155.3H334.183ZM368.665 155.3C369.93 155.3 370.26 155.905 370.26 156.895V161.405C370.26 162.395 369.93 163 368.665 163H344.025C342.76 163 342.43 162.395 342.43 161.405V128.405C342.43 127.415 342.76 126.81 344.025 126.81H367.73C368.995 126.81 369.325 127.415 369.325 128.405V132.97C369.325 133.96 368.995 134.565 367.73 134.565H351.12V140.56H365.86C367.125 140.56 367.455 141.165 367.455 142.155V146.445C367.455 147.435 367.125 148.04 365.86 148.04H351.12V155.3H368.665ZM404.688 126.81C405.678 126.81 406.283 127.14 406.283 128.405V161.405C406.283 162.395 405.953 163 404.688 163H399.683C398.308 163 397.923 162.23 397.208 161.13L385.548 142.265V161.405C385.548 162.67 384.943 163 383.953 163H378.508C377.518 163 376.913 162.67 376.913 161.405V128.405C376.913 127.415 377.243 126.81 378.508 126.81H383.678C385.053 126.81 385.438 127.58 386.153 128.68L397.813 147.49V128.405C397.813 127.14 398.418 126.81 399.408 126.81H404.688Z" fill="#4A5425"/>
<path fill-rule="evenodd" clip-rule="evenodd" d="M549.879 133.549C550.329 133.775 550.793 134.006 551.27 134.244C553.445 136.373 555.457 138.614 557.298 140.967C559.69 138.921 562.314 137.22 565.179 135.867C565.332 136.099 565.49 136.331 565.643 136.563C564.869 139.654 564.016 142.667 563.093 145.604C566.176 146.643 569.037 148.111 571.67 150.008C568.634 151.434 565.467 152.284 562.166 152.558C562.458 155.955 562.384 159.355 561.934 162.758C559.277 160.565 556.959 158.092 554.979 155.34C552.462 157.315 549.754 159.015 546.866 160.44C546.555 159.667 546.555 158.895 546.866 158.122C547.57 155.55 548.345 153.077 549.184 150.704C546.166 149.468 543.309 147.923 540.606 146.067C543.634 144.676 546.805 143.903 550.111 143.749C549.972 140.366 549.893 136.966 549.879 133.549Z" fill="#E7EDDB"/>
<path fill-rule="evenodd" clip-rule="evenodd" d="M554.979 144.676C558.299 144.516 559.764 146.062 559.384 149.313C558.016 151.064 556.236 151.604 554.052 150.935C552.054 148.493 552.36 146.406 554.979 144.676Z" fill="#D8B7AA"/>
<path fill-rule="evenodd" clip-rule="evenodd" d="M554.979 146.995C556.667 146.641 557.362 147.259 557.066 148.849C555.364 149.549 554.669 148.931 554.979 146.995Z" fill="#E7EDDB"/>
<path fill-rule="evenodd" clip-rule="evenodd" d="M102.928 173.422C107.672 172.936 111.69 174.404 114.983 177.827C116.881 178.182 118.736 178.028 120.547 177.363C122.772 175.362 125.322 174.048 128.197 173.422C128.892 173.5 129.588 173.576 130.283 173.654C133.288 175.349 136.302 176.971 139.324 178.522C142.005 177.22 144.71 175.984 147.438 174.813C149.511 174.953 150.825 176.034 151.379 178.058C151.688 179.14 151.688 180.222 151.379 181.304C149.168 184.905 146.464 188.073 143.265 190.809C138.045 191.907 134.027 190.207 131.211 185.709C130.423 185.264 129.573 185.033 128.661 185.013C125.736 185.971 122.877 187.131 120.083 188.49C118.272 189.155 116.418 189.31 114.52 188.954C111.473 187.192 108.227 186.033 104.783 185.477C102.303 185.763 99.9069 186.381 97.5966 187.331C96.5993 187.265 95.8264 186.801 95.2784 185.94C93.9176 181.931 94.9218 178.608 98.292 175.972C99.8068 174.985 101.352 174.135 102.928 173.422Z" fill="#AF5834"/>
<path fill-rule="evenodd" clip-rule="evenodd" d="M486.824 206.341C488.683 206.264 490.538 206.341 492.388 206.572C490.686 209.509 488.989 212.445 487.287 215.382C495.193 213.775 503.227 213.157 511.397 213.527C512.51 213.613 513.59 213.845 514.642 214.222C512.333 217.38 509.941 220.47 507.456 223.495C507.136 223.881 507.215 224.19 507.688 224.423C516.928 222.79 525.58 224.413 533.652 229.291C531.876 231.995 530.096 234.7 528.32 237.405C527.768 238.12 527.615 238.893 527.856 239.723C531.273 242.94 535.061 245.644 539.215 247.836C547.042 251.98 554.924 255.998 562.861 259.891C551.451 266.442 539.47 269.765 526.929 269.859C529.535 273.451 532.085 277.083 534.579 280.755C528.324 281.885 522.144 281.576 516.033 279.828C508.833 277.424 502.11 274.102 495.865 269.859C498.076 274.981 500.626 280.004 503.515 284.928C499.88 284.696 496.481 283.614 493.315 281.682C485.683 276.369 479.113 269.956 473.61 262.441C473.587 265.774 473.819 269.097 474.305 272.41C474.152 272.641 473.995 272.873 473.842 273.105C461.24 263.056 454.211 249.919 452.746 233.695C451.879 230.278 452.649 227.342 455.064 224.886C463.563 215.064 474.148 208.882 486.824 206.341Z" fill="#95C812"/>
<path fill-rule="evenodd" clip-rule="evenodd" d="M495.17 249.923C494.367 249.687 494.21 249.301 494.706 248.764C492.624 248.046 490.617 247.195 488.679 246.214C488.368 246.368 488.062 246.523 487.751 246.677C487.455 245.985 486.991 245.522 486.36 245.286C485.841 244.704 485.53 244.858 485.433 245.75C484.872 245.412 484.408 244.948 484.042 244.359C484.223 244.924 483.912 245.311 483.115 245.518C484.719 248.11 486.574 250.814 488.679 253.632C489.087 253.98 489.55 254.212 490.069 254.327C489.638 254.507 489.332 254.817 489.142 255.255C489.981 256.791 490.213 258.414 489.838 260.123C487.561 257.25 485.554 254.159 483.81 250.85C483.314 250.53 482.776 250.298 482.188 250.155C482.549 249.334 482.47 248.484 481.956 247.605C480.857 245.965 479.855 244.265 478.942 242.505C473.884 239.861 469.015 236.925 464.337 233.695C464.017 233.31 464.096 233.001 464.569 232.768C469.261 234.881 473.74 237.354 478.015 240.186C482.429 236.467 486.912 232.835 491.46 229.291C493.946 227.739 496.574 226.425 499.342 225.35C500.441 225.75 500.441 226.291 499.342 226.973C492.258 230.591 485.925 235.228 480.333 240.882C484.483 242.794 488.808 244.804 493.315 246.909C494.391 247.068 495.392 246.836 496.329 246.214C496.356 247.319 496.746 247.628 497.488 247.141C497.97 248.296 498.355 248.296 498.647 247.141C498.763 247.662 498.995 248.126 499.342 248.532C500.367 248.813 501.373 249.122 502.356 249.459C504.099 246.74 505.954 244.112 507.92 241.577C508.073 241.732 508.23 241.887 508.383 242.041C511.615 238.34 515.477 235.558 519.974 233.695C520.206 233.85 520.438 234.005 520.67 234.159C518.695 236.232 516.376 237.855 513.715 239.027C511.128 240.841 509.042 243.082 507.456 245.75C507.145 245.132 506.839 245.132 506.529 245.75C505.792 246.756 505.175 247.838 504.674 248.996C504.326 249.522 504.405 249.985 504.906 250.387C513.316 252.717 521.973 254.649 530.87 256.182C533.295 257.097 535.766 257.87 538.288 258.5C539.239 258.819 540.013 259.36 540.606 260.123C537.829 260.357 535.047 260.125 532.261 259.428C523.577 257.563 514.999 255.322 506.529 252.705C506.904 253.856 507.526 254.939 508.383 255.95C512.463 259.873 516.019 264.2 519.047 268.932C519.409 269.602 519.33 270.22 518.815 270.787C514.619 266.748 510.757 262.42 507.224 257.805C506.292 258.854 506.139 258.622 506.761 257.109C505.235 255.214 503.765 253.282 502.356 251.314C501.869 251.785 501.327 251.863 500.733 251.546C500.886 251.391 501.044 251.236 501.197 251.082C499.389 250.406 497.613 249.71 495.865 248.996C495.387 249.151 495.156 249.461 495.17 249.923Z" fill="#F4F7DC"/>
<path fill-rule="evenodd" clip-rule="evenodd" d="M485.433 237.405C486.184 237.538 486.648 238.001 486.824 238.795C486.444 239.206 485.98 239.361 485.433 239.259C485.433 238.641 485.433 238.023 485.433 237.405Z" fill="#C0DD6E"/>
<path fill-rule="evenodd" clip-rule="evenodd" d="M487.751 237.868C488.604 237.933 488.757 238.242 488.215 238.795C487.844 238.584 487.691 238.274 487.751 237.868Z" fill="#D3E793"/>
<path fill-rule="evenodd" clip-rule="evenodd" d="M482.651 239.259C483.917 239.503 485.155 239.89 486.36 240.418C485.062 241.487 484.06 241.255 483.346 239.723C483.124 240.162 483.045 240.626 483.115 241.114C482.567 241.215 482.104 241.061 481.724 240.65C482.238 240.295 482.549 239.832 482.651 239.259Z" fill="#D1E690"/>
<path fill-rule="evenodd" clip-rule="evenodd" d="M490.533 240.65C490.561 240.398 490.714 240.244 490.997 240.186C491.511 240.753 491.59 241.371 491.228 242.041C490.691 241.576 490.459 241.113 490.533 240.65Z" fill="#E0EDAE"/>
<path fill-rule="evenodd" clip-rule="evenodd" d="M486.824 240.65C487.413 240.97 487.413 241.356 486.824 241.809C486.36 242.119 485.897 242.119 485.433 241.809C486.101 241.634 486.564 241.248 486.824 240.65Z" fill="#E6F0BC"/>
<path fill-rule="evenodd" clip-rule="evenodd" d="M500.27 242.041C500.636 242.172 500.946 242.404 501.197 242.736C500.585 242.981 500.279 242.749 500.27 242.041Z" fill="#EBF3C8"/>
<path fill-rule="evenodd" clip-rule="evenodd" d="M486.36 245.286C486.282 245.926 486.203 246.699 486.129 247.605C485.762 247.027 485.53 246.409 485.433 245.75C485.53 244.858 485.841 244.704 486.36 245.286Z" fill="#C3DE73"/>
<path fill-rule="evenodd" clip-rule="evenodd" d="M497.951 244.823C497.979 244.571 498.132 244.417 498.415 244.359C499.031 245.132 499.031 245.904 498.415 246.677C498.294 246.026 498.141 245.408 497.951 244.823Z" fill="#DDECAA"/>
<path fill-rule="evenodd" clip-rule="evenodd" d="M501.197 246.214C501.54 246.153 501.851 246.231 502.124 246.446C502.082 247.105 501.925 247.8 501.661 248.532C501.22 247.816 501.062 247.043 501.197 246.214Z" fill="#D1E68F"/>
<path fill-rule="evenodd" clip-rule="evenodd" d="M497.024 250.386C497.877 250.451 498.03 250.76 497.488 251.314C497.117 251.102 496.964 250.793 497.024 250.386Z" fill="#E9F2C3"/>
<path fill-rule="evenodd" clip-rule="evenodd" d="M495.169 249.923C495.684 250.593 495.763 251.366 495.401 252.241C495.054 251.951 494.669 251.719 494.242 251.546C494.854 251.167 495.165 250.626 495.169 249.923Z" fill="#E3EEB5"/>
<path fill-rule="evenodd" clip-rule="evenodd" d="M496.56 251.777C498.114 251.946 498.577 252.719 497.951 254.096C497.604 253.689 497.372 253.226 497.256 252.705C496.129 253.199 495.897 252.89 496.56 251.777Z" fill="#C1DE6E"/>
<path fill-rule="evenodd" clip-rule="evenodd" d="M499.342 251.777C500.042 252.324 500.817 252.788 501.66 253.168C500.047 254.5 499.277 254.037 499.342 251.777Z" fill="#C9E17D"/>
<path fill-rule="evenodd" clip-rule="evenodd" d="M498.879 254.559C499.472 254.97 499.472 255.434 498.879 255.95C498.387 255.521 498.387 255.058 498.879 254.559Z" fill="#DFEDAD"/>
<path fill-rule="evenodd" clip-rule="evenodd" d="M502.124 255.95C502.49 256.081 502.801 256.313 503.051 256.646C502.439 256.89 502.133 256.659 502.124 255.95Z" fill="#E6F0BD"/>
<path fill-rule="evenodd" clip-rule="evenodd" d="M18.082 256.877C21.4592 259.481 24.5498 262.417 27.3549 265.687C30.8354 263.175 34.5446 261.166 38.4823 259.659C37.6922 263.745 36.6106 267.763 35.2368 271.714C38.7122 273.529 42.1121 275.46 45.4369 277.51C46.0549 278.128 46.0549 278.746 45.4369 279.364C41.6949 280.068 37.9857 280.918 34.3095 281.914C34.4268 285.988 34.2724 290.083 33.8459 294.201C33.3822 294.51 32.9186 294.51 32.4549 294.201C29.5808 291.482 26.8764 288.623 24.3412 285.623C21.2126 287.767 18.0445 289.854 14.8366 291.882C13.8597 292.278 13.2412 291.97 12.982 290.955C14.1035 287.195 15.3396 283.486 16.6911 279.828C13.2912 277.973 9.89089 276.119 6.491 274.264C6.08299 273.635 5.92814 272.94 6.02736 272.178C9.84638 271.185 13.7099 270.412 17.6184 269.859C17.477 265.493 17.6314 261.166 18.082 256.877Z" fill="#D8B7AA"/>
<path fill-rule="evenodd" clip-rule="evenodd" d="M496.097 259.196C496.644 259.094 497.107 259.249 497.488 259.659C496.769 260.261 496.305 260.107 496.097 259.196Z" fill="#CFE58A"/>
<path fill-rule="evenodd" clip-rule="evenodd" d="M19.9367 261.05C22.5938 263.32 24.989 265.793 27.1231 268.469C28.6972 267.255 30.3199 266.096 31.9914 264.991C33.1774 264.237 34.4139 263.774 35.7005 263.6C35.031 266.198 34.1807 268.748 33.1505 271.25C32.7805 272.066 32.8579 272.839 33.3823 273.569C36.3501 274.667 39.1319 276.134 41.7278 277.973C38.4137 279.104 35.0138 279.8 31.5277 280.06C31.9992 283.447 32.0762 286.847 31.7595 290.26C29.3968 287.818 27.0012 285.5 24.5731 283.305C22.0036 285.172 19.2992 286.872 16.4594 288.405C16.7997 284.882 17.5726 281.482 18.7776 278.205C15.6981 277.168 12.8392 275.7 10.2002 273.8C13.2899 272.448 16.5354 271.598 19.9367 271.25C20.0104 267.895 20.0104 264.495 19.9367 261.05Z" fill="#E7EDDB"/>
<path fill-rule="evenodd" clip-rule="evenodd" d="M500.733 260.587C501.804 261.006 501.804 261.624 500.733 262.441C500.367 261.885 500.367 261.267 500.733 260.587Z" fill="#C8E17B"/>
<path fill-rule="evenodd" clip-rule="evenodd" d="M24.1094 272.641C26.9613 271.874 28.661 272.878 29.2095 275.655C28.1714 279.268 26.1624 279.963 23.1821 277.741C22.3763 275.799 22.6856 274.099 24.1094 272.641Z" fill="#D8B7AA"/>
<path fill-rule="evenodd" clip-rule="evenodd" d="M25.0366 274.496C26.5337 274.341 27.2292 274.959 27.123 276.351C24.9972 277.238 24.3017 276.619 25.0366 274.496Z" fill="#E7EDDB"/>
<path d="M272.264 178.446C274.5 178.446 275.67 179.668 275.67 181.462C275.67 183.269 274.474 184.465 272.251 184.465H271.003V186.623C271.003 186.922 270.86 187 270.626 187H269.339C269.105 187 268.962 186.922 268.962 186.623V178.823C268.962 178.589 269.04 178.446 269.339 178.446H272.264ZM272.251 182.71C273.265 182.71 273.707 182.151 273.707 181.501C273.707 180.825 273.265 180.279 272.251 180.279H271.003V182.71H272.251ZM284.132 186.584C284.249 186.766 284.184 187 283.937 187H282.403C282.091 187 281.935 186.883 281.753 186.61L280.349 184.517C280.232 184.361 280.206 184.218 280.206 183.854V182.814C280.206 182.58 280.284 182.437 280.583 182.437H280.843C281.48 182.437 282.078 181.995 282.078 181.384C282.078 180.708 281.558 180.279 280.882 180.279H279.153V186.623C279.153 186.922 279.01 187 278.776 187H277.489C277.255 187 277.125 186.922 277.125 186.623V178.836C277.125 178.602 277.19 178.459 277.489 178.459H280.765C282.182 178.459 282.806 178.745 283.352 179.291C283.833 179.759 284.106 180.5 284.106 181.332C284.106 182.697 283.105 183.646 282.299 183.919L284.132 186.584ZM292.504 181.189V184.257C292.504 186.311 290.554 187.195 289.007 187.195C287.46 187.195 285.536 186.311 285.536 184.257V181.189C285.536 179.135 287.46 178.251 289.007 178.251C290.554 178.251 292.504 179.135 292.504 181.189ZM290.463 184.075V181.371C290.463 180.539 289.865 180.058 289.007 180.058C288.162 180.058 287.564 180.539 287.564 181.371V184.075C287.564 184.907 288.162 185.388 289.007 185.388C289.865 185.388 290.463 184.907 290.463 184.075ZM299.492 178.381C299.791 178.381 299.869 178.524 299.869 178.758V184.205C299.869 186.233 298.192 187 296.645 187C294.916 187 293.59 186.025 293.59 184.192C293.59 184.127 293.603 183.841 293.902 183.841H295.28C295.579 183.841 295.605 184.049 295.605 184.114C295.644 184.881 296.06 185.193 296.645 185.193C297.503 185.193 297.828 184.725 297.828 183.919V180.214H295.553C295.241 180.214 295.176 180.071 295.176 179.837V178.758C295.176 178.524 295.241 178.381 295.553 178.381H299.492ZM307.904 185.18C308.203 185.18 308.281 185.323 308.281 185.557V186.623C308.281 186.857 308.203 187 307.904 187H302.08C301.781 187 301.703 186.857 301.703 186.623V178.823C301.703 178.589 301.781 178.446 302.08 178.446H307.683C307.982 178.446 308.06 178.589 308.06 178.823V179.902C308.06 180.136 307.982 180.279 307.683 180.279H303.757V181.696H307.241C307.54 181.696 307.618 181.839 307.618 182.073V183.087C307.618 183.321 307.54 183.464 307.241 183.464H303.757V185.18H307.904ZM316.445 184.465C316.445 186.142 314.677 187.195 313.065 187.195C311.518 187.195 309.581 186.298 309.581 184.257V181.189C309.581 179.148 311.518 178.251 313.065 178.251C314.677 178.251 316.276 179.07 316.445 180.721C316.445 181.033 316.341 181.098 316.042 181.098H314.794C314.521 181.098 314.508 180.851 314.404 180.695C314.131 180.266 313.767 180.071 313.065 180.071C312.207 180.071 311.622 180.552 311.622 181.371V184.075C311.622 184.907 312.207 185.375 313.065 185.375C313.767 185.375 314.326 185.115 314.43 184.491C314.469 184.231 314.495 184.023 314.781 184.023H316.055C316.341 184.023 316.445 184.153 316.445 184.465ZM323.852 178.446C324.151 178.446 324.229 178.589 324.229 178.823V179.902C324.229 180.136 324.151 180.279 323.852 180.279H321.863V186.623C321.863 186.922 321.72 187 321.486 187H320.199C319.965 187 319.822 186.922 319.822 186.623V180.279H317.82C317.521 180.279 317.443 180.136 317.443 179.902V178.823C317.443 178.589 317.521 178.446 317.82 178.446H323.852Z" fill="#4A5425"/>
</svg>
