<svg width="246" height="89" viewBox="0 0 246 89" fill="none" xmlns="http://www.w3.org/2000/svg">
<path fill-rule="evenodd" clip-rule="evenodd" d="M236.569 15.8018C236.765 16.0457 236.841 16.3211 236.797 16.6261C235.574 18.4755 234.035 20.0119 232.178 21.2332C231.484 20.0962 230.791 18.9612 230.098 17.8242C232.11 16.6126 234.268 15.9399 236.569 15.8018Z" fill="#FDECA3"/>
<path fill-rule="evenodd" clip-rule="evenodd" d="M238.364 29.5672C239.726 31.3311 239.255 32.213 236.953 32.2166C235.032 31.9304 233.401 31.1368 232.06 29.8357C232.296 28.8282 232.732 27.9648 233.371 27.2475C235.12 27.8698 236.784 28.643 238.364 29.5672Z" fill="#FEECA3"/>
<path fill-rule="evenodd" clip-rule="evenodd" d="M224.092 6.62819C225.039 8.967 225.117 11.3495 224.326 13.7777C224.275 13.9937 224.141 14.0752 223.925 14.0224C222.892 13.7885 221.882 13.4858 220.897 13.1183C220.709 10.7121 221.317 8.55213 222.722 6.63839C223.195 6.30031 223.652 6.29687 224.092 6.62819Z" fill="#FEECA3"/>
<path fill-rule="evenodd" clip-rule="evenodd" d="M227.97 18.8472C232.533 25.9947 230.969 31.399 223.276 35.0582C217.368 37.0448 213.217 35.1278 210.824 29.3089C209.135 25.1027 210.007 21.4965 213.443 18.492C218.4 14.3667 223.243 14.4857 227.97 18.8472Z" fill="#FEECA3"/>
<path fill-rule="evenodd" clip-rule="evenodd" d="M228.249 34.6382C229.058 35.8893 229.8 37.181 230.473 38.5096C231.075 40.985 230.314 41.5406 228.189 40.1784C226.965 39.1367 225.915 37.9418 225.04 36.596C226.11 35.9434 227.179 35.2908 228.249 34.6382Z" fill="#FEECA3"/>
<path fill-rule="evenodd" clip-rule="evenodd" d="M213.576 11.9441C214.106 12.8125 214.637 13.6828 215.166 14.5511C213.963 15.2852 212.76 16.0194 211.557 16.7536C210.526 14.8509 210.021 12.82 210.041 10.6611C210.318 9.91386 210.814 9.74897 211.528 10.1665C212.295 10.7056 212.978 11.2989 213.576 11.9441Z" fill="#FDECA3"/>
<path fill-rule="evenodd" clip-rule="evenodd" d="M218.803 37.6497C219.055 40.281 218.144 42.3949 216.071 43.9954C215.072 41.9516 214.875 39.8238 215.479 37.614C215.531 37.398 215.665 37.3165 215.88 37.3693C216.863 37.5236 217.837 37.6172 218.803 37.6497Z" fill="#FDECA3"/>
<path fill-rule="evenodd" clip-rule="evenodd" d="M208.168 21.573C208.028 22.9766 207.831 24.3821 207.575 25.7876C205.274 25.194 203.264 24.0808 201.547 22.4482C201.006 21.7105 201.075 21.0714 201.755 20.5329C202.293 20.2757 202.864 20.1587 203.464 20.1777C205.096 20.4866 206.664 20.9525 208.168 21.573Z" fill="#FEECA3"/>
<path fill-rule="evenodd" clip-rule="evenodd" d="M208.885 31.3176C209.415 32.1859 209.946 33.0562 210.476 33.9246C208.734 35.3257 206.777 35.876 204.606 35.5798C204.631 34.8767 204.915 34.2903 205.459 33.8209C206.497 32.846 207.639 32.0116 208.885 31.3176Z" fill="#FEECA3"/>
<path fill-rule="evenodd" clip-rule="evenodd" d="M6.86272 68.4062C9.86802 68.2655 12.4206 69.2521 14.524 71.3663C15.701 72.1481 16.979 72.3803 18.3546 72.0627C19.8067 71.5111 21.0848 70.6983 22.1852 69.6251C24.0866 68.1663 26.0576 68.0503 28.1052 69.2768C29.8429 70.5517 31.7025 71.5383 33.677 72.2369C35.2232 72.1428 36.5013 71.5045 37.5077 70.3215C40.513 69.0379 42.3691 69.9667 43.0795 73.1074C41.6587 76.7323 39.3394 79.6341 36.1147 81.8134C32.2737 82.388 29.3693 80.995 27.4088 77.6345C26.9317 77.3298 26.4093 77.1557 25.8417 77.1122C22.8573 78.3735 19.8381 79.5342 16.7875 80.5946C14.4369 79.9719 12.1734 79.1013 9.99686 77.9828C7.36767 77.6269 4.8116 77.917 2.33563 78.8534C1.23868 78.7451 0.483 78.1649 0.0720793 77.1122C-0.269194 74.4837 0.601401 72.3364 2.68386 70.6698C4.05244 69.8117 5.44539 69.0571 6.86272 68.4062Z" fill="#AF5834"/>
<path fill-rule="evenodd" clip-rule="evenodd" d="M76.1758 34.295C81.5925 33.5644 86.2659 35.0546 90.1961 38.7653C93.8902 44.9675 92.1967 47.0669 85.1163 45.0643C83.7732 41.4938 81.1995 40.1393 77.395 41.0004C75.7015 41.61 74.5503 42.7613 73.9407 44.4547C73.6696 48.6539 73.6696 52.8535 73.9407 57.0526C74.3897 58.4494 75.2704 59.4654 76.5822 60.1005C81.0248 61.4079 83.5984 59.8502 84.3035 55.4271C78.8153 56.5069 77.0544 54.4075 79.0205 49.1281C83.2197 48.8571 87.4193 48.8571 91.6185 49.1281C94.0868 60.055 89.8198 66.0829 78.8173 67.2123C68.5618 66.3621 64.2947 60.8081 66.0162 50.5505C64.504 41.903 67.8904 36.4847 76.1758 34.295Z" fill="#4B5526"/>
<path fill-rule="evenodd" clip-rule="evenodd" d="M21.72 34.7015C27.411 34.6336 33.1004 34.7015 38.7882 34.9047C46.1145 36.6196 48.4849 41.0224 45.8999 48.1122C45.2903 48.7218 44.6808 49.3314 44.0712 49.9409C49.2156 54.3888 49.4867 59.1297 44.884 64.1644C43.1454 65.3056 41.2493 65.9826 39.1946 66.1964C33.2715 66.5308 27.3789 66.463 21.5168 65.9932C21.1823 55.5332 21.2498 45.1025 21.72 34.7015Z" fill="#4A5425"/>
<path fill-rule="evenodd" clip-rule="evenodd" d="M98.5271 35.1077C104.489 35.0399 110.449 35.1077 116.408 35.3109C123.563 38.4811 125.527 43.6967 122.301 50.9568C120.856 52.6729 119.162 54.0953 117.221 55.2238C119.406 58.4428 121.641 61.626 123.926 64.7739C124.204 65.2957 124.136 65.7699 123.723 66.1962C121.285 66.4673 118.846 66.4673 116.408 66.1962C114.015 63.1252 111.78 59.942 109.703 56.6462C109.432 54.4789 109.432 52.3113 109.703 50.144C112.027 50.0469 114.059 49.2341 115.799 47.7057C116.971 44.8354 116.091 42.8713 113.157 41.8131C110.587 41.6099 108.013 41.5424 105.436 41.6099C105.504 49.7388 105.436 57.8666 105.233 65.993C103.032 66.4559 100.796 66.5238 98.5271 66.1962C97.987 55.8334 97.987 45.4706 98.5271 35.1077Z" fill="#495324"/>
<path fill-rule="evenodd" clip-rule="evenodd" d="M130.631 34.7015C137.946 34.6336 145.261 34.7015 152.576 34.9047C152.779 35.1079 152.982 35.3111 153.186 35.5143C153.511 37.5133 153.442 39.4773 152.982 41.4068C147.838 41.61 142.689 41.6779 137.54 41.61C137.54 43.3709 137.54 45.1322 137.54 46.8931C142.148 46.8252 146.753 46.8931 151.357 47.0962C151.897 49.1282 151.897 51.1601 151.357 53.192C146.753 53.3952 142.148 53.4631 137.54 53.3952C137.54 55.5625 137.54 57.7301 137.54 59.8974C143.059 59.7661 148.545 59.9015 153.998 60.3038C154.324 62.3028 154.254 64.2669 153.795 66.1964C146.074 66.4674 138.353 66.4674 130.631 66.1964C130.428 65.9932 130.225 65.79 130.022 65.5868C129.751 55.5625 129.751 45.5386 130.022 35.5143C130.313 35.2932 130.516 35.0221 130.631 34.7015Z" fill="#4B5526"/>
<path fill-rule="evenodd" clip-rule="evenodd" d="M160.704 34.7015C168.019 34.6336 175.334 34.7015 182.649 34.9047C182.852 35.1079 183.055 35.3111 183.258 35.5143C183.583 37.5133 183.514 39.4773 183.055 41.4068C177.91 41.61 172.761 41.6779 167.612 41.61C167.612 43.3709 167.612 45.1322 167.612 46.8931C172.221 46.8252 176.825 46.8931 181.43 47.0962C181.889 48.8896 181.958 50.7184 181.633 52.5825C181.43 52.7856 181.226 52.9888 181.023 53.192C176.557 53.3952 172.087 53.4631 167.612 53.3952C167.612 55.5625 167.612 57.7301 167.612 59.8974C173.131 59.7661 178.617 59.9015 184.071 60.3038C184.396 62.3028 184.327 64.2669 183.868 66.1964C176.147 66.4674 168.425 66.4674 160.704 66.1964C160.501 65.9932 160.298 65.79 160.094 65.5868C159.822 55.5625 159.822 45.5386 160.094 35.5143C160.387 35.2932 160.59 35.0221 160.704 34.7015Z" fill="#4B5526"/>
<path fill-rule="evenodd" clip-rule="evenodd" d="M198.091 48.925C198.067 48.7044 197.933 48.569 197.685 48.5186C197.278 54.2015 197.144 59.8909 197.278 65.5868C197.234 65.8376 197.1 66.0408 196.872 66.1964C195.787 66.2643 194.706 66.3317 193.621 66.3996C192.357 66.3744 191.203 66.1033 190.167 65.5868C189.894 55.5625 189.894 45.5386 190.167 35.5143C190.37 35.3111 190.573 35.1079 190.776 34.9047C192.991 34.5406 195.157 34.6759 197.278 35.3111C200.92 41.0342 204.508 46.7911 208.048 52.5825C208.182 46.8931 208.32 41.2037 208.454 35.5143C208.657 35.3111 208.86 35.1079 209.064 34.9047C210.961 34.6337 212.855 34.6337 214.753 34.9047C214.956 35.1079 215.159 35.3111 215.363 35.5143C215.635 45.6739 215.635 55.8336 215.363 65.9932C213.298 66.4553 211.197 66.5231 209.064 66.1964C205.154 60.5952 201.497 54.8379 198.091 48.925Z" fill="#4A5425"/>
<path fill-rule="evenodd" clip-rule="evenodd" d="M28.6284 41.61C31.8823 41.5425 35.1334 41.61 38.3817 41.8132C40.1251 42.8418 40.4636 44.2641 39.3976 46.0802C37.8412 47.0007 36.1478 47.475 34.3178 47.5026C33.7761 49.3992 33.7761 51.2954 34.3178 53.192C36.1872 53.1875 37.9481 53.5939 39.6008 54.4112C40.614 55.7555 40.6814 57.1778 39.804 58.6782C39.4992 58.9326 39.1603 59.1358 38.7881 59.2878C35.4041 59.491 32.0177 59.5584 28.6284 59.491C28.6284 53.5305 28.6284 47.5705 28.6284 41.61Z" fill="white"/>
<path fill-rule="evenodd" clip-rule="evenodd" d="M198.092 48.9249C197.819 54.479 197.551 60.0327 197.279 65.5868C197.145 59.8909 197.279 54.2015 197.685 48.5186C197.933 48.5689 198.067 48.7043 198.092 48.9249Z" fill="#6E7A48"/>
<path fill-rule="evenodd" clip-rule="evenodd" d="M93.6504 81.0295C95.1467 80.9624 96.6365 81.0299 98.1206 81.2326C99.7417 82.8765 99.7417 84.502 98.1206 86.1093C97.1819 86.3112 96.2338 86.3787 95.2759 86.3125C95.2759 87.1252 95.2759 87.938 95.2759 88.7508C94.7342 88.7508 94.1921 88.7508 93.6504 88.7508C93.6504 86.1771 93.6504 83.6031 93.6504 81.0295Z" fill="#4C5627"/>
<path fill-rule="evenodd" clip-rule="evenodd" d="M100.965 81.0294C102.597 80.9619 104.222 81.0298 105.842 81.2326C107.997 82.8183 107.997 84.4438 105.842 86.1092C106.305 86.911 106.847 87.6563 107.468 88.3443C106.828 88.8039 106.15 88.8718 105.436 88.5475C104.221 87.5385 103.679 86.2514 103.81 84.6868C105.102 84.8185 105.577 84.2764 105.232 83.0613C104.542 82.6931 103.797 82.5578 102.997 82.6549C102.997 84.6868 102.997 86.7188 102.997 88.7507C102.32 88.7507 101.643 88.7507 100.965 88.7507C100.965 86.1771 100.965 83.603 100.965 81.0294Z" fill="#515C2C"/>
<path fill-rule="evenodd" clip-rule="evenodd" d="M109.906 81.0294C111.132 80.9623 112.351 81.0302 113.563 81.2326C113.902 81.5711 114.241 81.91 114.579 82.2486C114.85 84.0094 114.85 85.7707 114.579 87.5316C112.683 89.1571 110.786 89.1571 108.89 87.5316C108.619 85.7707 108.619 84.0094 108.89 82.2486C109.314 81.8938 109.653 81.4874 109.906 81.0294Z" fill="#4D5727"/>
<path fill-rule="evenodd" clip-rule="evenodd" d="M117.221 81.0293C118.711 81.0293 120.201 81.0293 121.691 81.0293C121.758 83.0657 121.691 85.0976 121.488 87.1251C120.16 88.927 118.535 89.1976 116.611 87.9379C116.201 87.3181 115.998 86.6407 116.002 85.9059C116.679 85.9059 117.356 85.9059 118.033 85.9059C118.033 86.3123 118.033 86.7187 118.033 87.1251C118.571 87.1942 119.045 87.0588 119.456 86.7187C119.658 85.3707 119.726 84.0162 119.659 82.6548C118.846 82.6548 118.033 82.6548 117.221 82.6548C117.221 82.1131 117.221 81.571 117.221 81.0293Z" fill="#525C2D"/>
<path fill-rule="evenodd" clip-rule="evenodd" d="M123.316 81.0293C125.213 81.0293 127.109 81.0293 129.006 81.0293C129.006 81.571 129.006 82.1131 129.006 82.6548C127.787 82.6548 126.567 82.6548 125.348 82.6548C125.348 83.0612 125.348 83.4676 125.348 83.874C126.432 83.874 127.516 83.874 128.599 83.874C128.599 84.4157 128.599 84.9578 128.599 85.4995C127.516 85.4995 126.432 85.4995 125.348 85.4995C125.348 86.0413 125.348 86.5834 125.348 87.1251C126.703 87.1251 128.058 87.1251 129.412 87.1251C129.412 87.6668 129.412 88.2089 129.412 88.7506C127.38 88.7506 125.348 88.7506 123.316 88.7506C123.316 86.177 123.316 83.6029 123.316 81.0293Z" fill="#4D5728"/>
<path fill-rule="evenodd" clip-rule="evenodd" d="M131.85 81.0294C133.077 80.9623 134.296 81.0302 135.508 81.2326C136.365 81.7463 136.772 82.4912 136.727 83.4677C135.435 82.9288 134.079 82.7256 132.663 82.8581C132.122 84.2126 132.122 85.5675 132.663 86.922C133.341 87.193 134.018 87.193 134.695 86.922C135.15 86.1531 135.825 85.8146 136.727 85.906C136.942 87.2503 136.398 88.1306 135.102 88.5475C131.9 89.3254 130.41 88.1062 130.631 84.8901C130.432 83.3645 130.838 82.0775 131.85 81.0294Z" fill="#4F592A"/>
<path fill-rule="evenodd" clip-rule="evenodd" d="M137.946 81.0293C139.978 81.0293 142.01 81.0293 144.042 81.0293C144.042 81.571 144.042 82.1131 144.042 82.6548C143.229 82.6548 142.417 82.6548 141.604 82.6548C141.604 84.6868 141.604 86.7187 141.604 88.7506C141.063 88.7506 140.519 88.7506 139.978 88.7506C139.978 86.7187 139.978 84.6868 139.978 82.6548C139.3 82.6548 138.625 82.6548 137.946 82.6548C137.946 82.1131 137.946 81.571 137.946 81.0293Z" fill="#4A5425"/>
<path fill-rule="evenodd" clip-rule="evenodd" d="M95.2759 82.6548C97.0794 82.218 97.8922 82.8954 97.7142 84.6868C96.9014 84.6868 96.0887 84.6868 95.2759 84.6868C95.2759 84.0093 95.2759 83.3323 95.2759 82.6548Z" fill="white"/>
<path fill-rule="evenodd" clip-rule="evenodd" d="M110.718 82.6549C111.518 82.5578 112.263 82.6931 112.954 83.0613C113.272 84.3861 113.204 85.6732 112.75 86.922C111.962 87.2239 111.217 87.1561 110.515 86.7188C110.212 85.3273 110.28 83.9729 110.718 82.6549Z" fill="white"/>
</svg>
