<svg xmlns="http://www.w3.org/2000/svg" width="523.682" height="143.632" viewBox="0 0 523.682 143.632"><defs><style>.a{isolation:isolate;}.b{fill:#ffffff;}</style></defs><g transform="translate(-667 -349.928)"><g class="a" transform="translate(-538.021 -1033.107)"><path class="b" d="M1205.022,1403.1h12.409l13.288,36.256,13.024-36.256h12.232l-19.361,51.48h-11.968Z"/><path class="b" d="M1258.879,1390.515a7.4,7.4,0,0,1,2.023-5.411,8.287,8.287,0,0,1,10.956,0,7.494,7.494,0,0,1,1.981,5.411,7.79,7.79,0,0,1-13.025,5.368A7.438,7.438,0,0,1,1258.879,1390.515Zm1.5,12.584h11.968v51.48h-11.968Z"/><path class="b" d="M1276.565,1403.1h12.409l13.288,36.256,13.024-36.256h12.232l-19.361,51.48h-11.968Z"/><path class="b" d="M1353.478,1454.667a29.789,29.789,0,0,1-11.088-1.992,25.715,25.715,0,0,1-8.58-5.472,24.662,24.662,0,0,1-5.544-8.184,25.644,25.644,0,0,1-1.981-10.052,25.443,25.443,0,0,1,7.744-18.407,27.269,27.269,0,0,1,19.009-7.549,29.619,29.619,0,0,1,10.6,1.856,24.914,24.914,0,0,1,8.4,5.2,23.974,23.974,0,0,1,5.5,7.879,24.508,24.508,0,0,1,1.979,9.9v4.207h-41.887a15.282,15.282,0,0,0,5.368,8.8,16.122,16.122,0,0,0,10.472,3.343,15.036,15.036,0,0,0,14.255-9.064l9.769,5.632a25.879,25.879,0,0,1-24.024,13.9Zm-.44-41.184a17.574,17.574,0,0,0-9.284,2.371,12.967,12.967,0,0,0-5.5,6.253h29.216a10.926,10.926,0,0,0-5.1-6.432A18.356,18.356,0,0,0,1353.038,1413.483Z"/><path class="b" d="M1384.806,1403.1H1396.6v7.032a18.807,18.807,0,0,1,6.467-5.17,19.772,19.772,0,0,1,8.932-1.95q9.591,0,15,5.7t5.412,15.893v29.974h-12.056v-28.633q0-5.844-2.9-9.243t-8.712-3.4a11.572,11.572,0,0,0-8.58,3.526q-3.477,3.526-3.475,10.146v27.6h-11.88Z"/><path class="b" d="M1464.356,1454.667a27.247,27.247,0,0,1-19.007-7.549,25.41,25.41,0,0,1-5.676-8.185,25.657,25.657,0,0,1,0-20.188,25.909,25.909,0,0,1,5.676-8.227,26.174,26.174,0,0,1,8.492-5.513,28.82,28.82,0,0,1,18.655-.826,27.073,27.073,0,0,1,7,3.242,24.932,24.932,0,0,1,5.544,4.927,25.873,25.873,0,0,1,3.872,6.31l-10.647,4.208a14.267,14.267,0,0,0-5.412-6.322,15.171,15.171,0,0,0-8.405-2.356,15.544,15.544,0,0,0-10.868,4.291,13.986,13.986,0,0,0-3.212,4.665,14.487,14.487,0,0,0-1.143,5.736,14.272,14.272,0,0,0,1.143,5.654,13.952,13.952,0,0,0,3.212,4.664,15.417,15.417,0,0,0,4.885,3.138,15.835,15.835,0,0,0,6.071,1.155,14.494,14.494,0,0,0,8.58-2.516,15.51,15.51,0,0,0,5.325-6.476l10.648,4.29a27.452,27.452,0,0,1-3.872,6.385,25.063,25.063,0,0,1-12.5,8.329A28.923,28.923,0,0,1,1464.356,1454.667Z"/><path class="b" d="M1492.075,1390.515a7.4,7.4,0,0,1,2.025-5.411,8.287,8.287,0,0,1,10.956,0,7.5,7.5,0,0,1,1.979,5.411,7.789,7.789,0,0,1-13.023,5.368A7.44,7.44,0,0,1,1492.075,1390.515Zm1.5,12.584h11.968v51.48h-11.968Z"/><path class="b" d="M1536.074,1454.667a25.865,25.865,0,0,1-17.336-6.785,24.925,24.925,0,0,1-5.807-8.1,25.825,25.825,0,0,1-2.2-10.9,26.494,26.494,0,0,1,2.157-10.984,24.369,24.369,0,0,1,13.9-13.148,26.678,26.678,0,0,1,9.46-1.739,23.707,23.707,0,0,1,9.416,1.845,19.709,19.709,0,0,1,7.129,5.033v-6.79h11.88v51.48H1552.8v-7.315a19.4,19.4,0,0,1-7.217,5.425A22.885,22.885,0,0,1,1536.074,1454.667Zm1.937-10.912a16.072,16.072,0,0,0,6.16-1.156,14.322,14.322,0,0,0,4.84-3.225,15.833,15.833,0,0,0,3.212-4.793,14.527,14.527,0,0,0,1.187-5.868,14.329,14.329,0,0,0-1.187-5.785,15.3,15.3,0,0,0-3.212-4.753,14.622,14.622,0,0,0-4.84-3.182,16.845,16.845,0,0,0-12.276,0,15.853,15.853,0,0,0-4.972,3.141,14.122,14.122,0,0,0-3.3,4.71,14.542,14.542,0,0,0-1.187,5.869,14.82,14.82,0,0,0,1.187,5.909,14.478,14.478,0,0,0,3.3,4.794,15.488,15.488,0,0,0,4.972,3.183A16.147,16.147,0,0,0,1538.011,1443.755Z"/><path class="b" d="M1571.889,1403.1h11.792v7.656q3.608-7.656,13.2-7.656a19.194,19.194,0,0,1,5.059.616,18.393,18.393,0,0,1,4,1.584l-4.487,11.264a13.252,13.252,0,0,0-2.948-1.452,12.841,12.841,0,0,0-4.18-.572q-5.195,0-7.876,2.948t-2.684,9.636v27.456h-11.88Z"/><path class="b" d="M1656.368,1454.667a27.344,27.344,0,0,1-10.428-1.992,26.181,26.181,0,0,1-8.492-5.514,25.917,25.917,0,0,1-5.676-8.228,25.668,25.668,0,0,1,0-20.188,25.925,25.925,0,0,1,5.676-8.227,26.2,26.2,0,0,1,8.492-5.513,27.346,27.346,0,0,1,10.428-1.994,26.973,26.973,0,0,1,18.876,7.507,25.636,25.636,0,0,1,5.72,8.227,25.668,25.668,0,0,1,0,20.188,25.628,25.628,0,0,1-5.72,8.228,26.954,26.954,0,0,1-18.876,7.506Zm0-11.176a14.969,14.969,0,0,0,5.9-1.155,15.177,15.177,0,0,0,4.752-3.138,14.448,14.448,0,0,0,4.312-10.318,14.5,14.5,0,0,0-1.143-5.736,14.355,14.355,0,0,0-3.169-4.665,15.2,15.2,0,0,0-4.752-3.135,14.95,14.95,0,0,0-5.9-1.156,15.27,15.27,0,0,0-5.94,1.156,14.545,14.545,0,0,0-9.02,13.536,14.253,14.253,0,0,0,1.144,5.654,14.337,14.337,0,0,0,7.876,7.8A15.29,15.29,0,0,0,1656.368,1443.491Z"/><path class="b" d="M1707.584,1454.667q-8.537,0-14.168-3.176a21.55,21.55,0,0,1-8.712-9.182l11-4.951a13.047,13.047,0,0,0,5.016,5.2,14.61,14.61,0,0,0,7.391,1.815q4.4,0,6.6-1.762a5.236,5.236,0,0,0,2.2-4.194,2.708,2.708,0,0,0-1.013-2.182,9.449,9.449,0,0,0-2.639-1.467,22.372,22.372,0,0,0-3.828-1.05q-2.2-.417-4.577-.922-3.344-.67-6.555-1.594a21.661,21.661,0,0,1-5.764-2.559,13.142,13.142,0,0,1-4.137-4.195,12.761,12.761,0,0,1-.131-12.081,15.393,15.393,0,0,1,4.091-4.823,20.185,20.185,0,0,1,6.381-3.314,26.779,26.779,0,0,1,8.316-1.217q7.743,0,12.891,2.867a21.658,21.658,0,0,1,8.141,7.8l-10.12,4.785a11.269,11.269,0,0,0-4.4-4.095,13.621,13.621,0,0,0-6.511-1.5q-4.224,0-6.248,1.6a4.631,4.631,0,0,0-2.024,3.693q0,2.434,2.991,3.484a71.176,71.176,0,0,0,8.8,2.224,60.529,60.529,0,0,1,6.38,1.552,24.331,24.331,0,0,1,5.852,2.6,13.3,13.3,0,0,1,4.268,4.2,11.766,11.766,0,0,1,1.628,6.421,13.477,13.477,0,0,1-1.232,5.414,15.679,15.679,0,0,1-3.828,5.2,20.137,20.137,0,0,1-6.556,3.9A26.684,26.684,0,0,1,1707.584,1454.667Z"/></g><g class="a" transform="translate(-538.021 -1033.107)"><path class="b" d="M1233.183,1526.667a29.789,29.789,0,0,1-11.088-1.992,25.715,25.715,0,0,1-8.58-5.472,24.664,24.664,0,0,1-5.544-8.184,25.647,25.647,0,0,1-1.981-10.052,25.443,25.443,0,0,1,7.744-18.407,27.274,27.274,0,0,1,19.009-7.549,29.62,29.62,0,0,1,10.6,1.856,24.9,24.9,0,0,1,8.4,5.2,23.971,23.971,0,0,1,5.5,7.879,24.508,24.508,0,0,1,1.979,9.9v4.207h-41.887a15.281,15.281,0,0,0,5.368,8.8,16.122,16.122,0,0,0,10.472,3.343,15.034,15.034,0,0,0,14.255-9.064l9.769,5.632a25.879,25.879,0,0,1-24.024,13.9Zm-.44-41.184a17.574,17.574,0,0,0-9.284,2.371,12.968,12.968,0,0,0-5.5,6.253h29.216a10.925,10.925,0,0,0-5.105-6.432A18.356,18.356,0,0,0,1232.743,1485.483Z"/><path class="b" d="M1283.87,1526.667q-8.535,0-14.168-3.176a21.556,21.556,0,0,1-8.712-9.182l11-4.951a13.062,13.062,0,0,0,5.017,5.2,14.605,14.605,0,0,0,7.391,1.815q4.4,0,6.6-1.762a5.236,5.236,0,0,0,2.2-4.194,2.709,2.709,0,0,0-1.011-2.182,9.476,9.476,0,0,0-2.641-1.467,22.331,22.331,0,0,0-3.827-1.05q-2.2-.417-4.576-.922-3.346-.67-6.557-1.594a21.689,21.689,0,0,1-5.764-2.559,13.115,13.115,0,0,1-4.135-4.195,12.765,12.765,0,0,1-.132-12.081,15.391,15.391,0,0,1,4.091-4.823,20.18,20.18,0,0,1,6.38-3.314,26.79,26.79,0,0,1,8.317-1.217q7.742,0,12.891,2.867a21.662,21.662,0,0,1,8.14,7.8l-10.12,4.785a11.266,11.266,0,0,0-4.4-4.095,13.618,13.618,0,0,0-6.511-1.5q-4.226,0-6.248,1.6a4.632,4.632,0,0,0-2.025,3.693q0,2.434,2.993,3.484a71.034,71.034,0,0,0,8.8,2.224,60.344,60.344,0,0,1,6.38,1.552,24.354,24.354,0,0,1,5.853,2.6,13.284,13.284,0,0,1,4.267,4.2,11.757,11.757,0,0,1,1.628,6.421,13.491,13.491,0,0,1-1.231,5.414,15.665,15.665,0,0,1-3.828,5.2,20.142,20.142,0,0,1-6.557,3.9A26.677,26.677,0,0,1,1283.87,1526.667Z"/><path class="b" d="M1307.366,1475.1h8.8v-7.831l11.968-8.185V1475.1h10.472v10.648h-10.472v19.273a33.427,33.427,0,0,0,.352,5.411,5,5,0,0,0,4.62,4.62,34.138,34.138,0,0,0,5.5.352v11.176h-1.672a39.838,39.838,0,0,1-9.988-1.056,13.173,13.173,0,0,1-6.38-3.564,14.406,14.406,0,0,1-3.388-6.6,43.587,43.587,0,0,1-1.012-10.252v-19.36h-8.8Z"/><path class="b" d="M1390.7,1526.579h-11.792v-6.449a17.152,17.152,0,0,1-6.16,4.8,20.1,20.1,0,0,1-8.624,1.736q-9.155,0-14.477-5.7t-5.323-15.9V1475.1h12.056v28.633q0,5.847,2.683,9.243t8.317,3.4a10.663,10.663,0,0,0,8.183-3.525q3.255-3.525,3.257-10.147v-27.6h11.88Z"/><path class="b" d="M1421.236,1526.667a25.865,25.865,0,0,1-17.336-6.785,24.939,24.939,0,0,1-5.807-8.1,25.825,25.825,0,0,1-2.2-10.9,26.494,26.494,0,0,1,2.156-10.984,24.377,24.377,0,0,1,13.9-13.148,26.682,26.682,0,0,1,9.46-1.739,22.977,22.977,0,0,1,9.328,1.892,19.3,19.3,0,0,1,7.128,5.236v-20.68h11.969v65.12h-11.88v-7.315a19.4,19.4,0,0,1-7.217,5.425A22.885,22.885,0,0,1,1421.236,1526.667Zm1.937-10.912a16.072,16.072,0,0,0,6.16-1.156,14.322,14.322,0,0,0,4.84-3.225,15.833,15.833,0,0,0,3.212-4.793,14.527,14.527,0,0,0,1.187-5.868,14.329,14.329,0,0,0-1.187-5.785,15.3,15.3,0,0,0-3.212-4.753,14.622,14.622,0,0,0-4.84-3.182,16.845,16.845,0,0,0-12.276,0,15.853,15.853,0,0,0-4.972,3.141,14.121,14.121,0,0,0-3.3,4.71,14.54,14.54,0,0,0-1.187,5.869,14.818,14.818,0,0,0,1.187,5.909,14.477,14.477,0,0,0,3.3,4.794,15.488,15.488,0,0,0,4.972,3.183A16.147,16.147,0,0,0,1423.173,1515.755Z"/><path class="b" d="M1481.6,1526.667a27.34,27.34,0,0,1-10.428-1.992,26.16,26.16,0,0,1-8.492-5.514,25.9,25.9,0,0,1-5.676-8.228,25.656,25.656,0,0,1,0-20.188,25.907,25.907,0,0,1,5.676-8.227,26.175,26.175,0,0,1,8.492-5.513,27.341,27.341,0,0,1,10.428-1.994,26.972,26.972,0,0,1,18.875,7.507,25.636,25.636,0,0,1,5.72,8.227,25.657,25.657,0,0,1,0,20.188,25.628,25.628,0,0,1-5.72,8.228,26.953,26.953,0,0,1-18.875,7.506Zm0-11.176a14.96,14.96,0,0,0,5.9-1.155,15.177,15.177,0,0,0,4.752-3.138,14.448,14.448,0,0,0,4.312-10.318,14.487,14.487,0,0,0-1.143-5.736,14.34,14.34,0,0,0-3.169-4.665,15.2,15.2,0,0,0-4.752-3.135,14.941,14.941,0,0,0-5.9-1.156,15.275,15.275,0,0,0-5.941,1.156,14.541,14.541,0,0,0-9.019,13.536,14.254,14.254,0,0,0,1.143,5.654,14.337,14.337,0,0,0,7.876,7.8A15.3,15.3,0,0,0,1481.6,1515.491Z"/><path class="b" d="M1532.819,1526.667q-8.536,0-14.168-3.176a21.556,21.556,0,0,1-8.712-9.182l11-4.951a13.053,13.053,0,0,0,5.016,5.2,14.612,14.612,0,0,0,7.392,1.815q4.4,0,6.6-1.762a5.236,5.236,0,0,0,2.2-4.194,2.707,2.707,0,0,0-1.012-2.182,9.469,9.469,0,0,0-2.64-1.467,22.341,22.341,0,0,0-3.828-1.05q-2.2-.417-4.576-.922-3.345-.67-6.556-1.594a21.691,21.691,0,0,1-5.764-2.559,13.129,13.129,0,0,1-4.136-4.195,12.765,12.765,0,0,1-.132-12.081,15.394,15.394,0,0,1,4.092-4.823,20.164,20.164,0,0,1,6.381-3.314,26.772,26.772,0,0,1,8.315-1.217q7.743,0,12.892,2.867a21.662,21.662,0,0,1,8.14,7.8l-10.12,4.785a11.266,11.266,0,0,0-4.4-4.095,13.624,13.624,0,0,0-6.512-1.5q-4.223,0-6.248,1.6a4.63,4.63,0,0,0-2.023,3.693q0,2.434,2.991,3.484a71.082,71.082,0,0,0,8.8,2.224,60.512,60.512,0,0,1,6.379,1.552,24.331,24.331,0,0,1,5.852,2.6,13.29,13.29,0,0,1,4.269,4.2,11.766,11.766,0,0,1,1.627,6.421,13.477,13.477,0,0,1-1.232,5.414,15.665,15.665,0,0,1-3.828,5.2,20.137,20.137,0,0,1-6.556,3.9A26.677,26.677,0,0,1,1532.819,1526.667Z"/></g></g></svg>