<svg xmlns="http://www.w3.org/2000/svg" width="356.262" height="90.68" viewBox="0 0 356.262 90.68"><defs><style>.a{isolation:isolate;}.b{fill:#fff;}</style></defs><g transform="translate(-669.949 -250)"><g class="a" transform="translate(-538.021 -1033.107)"><path class="b" d="M1231.07,1303.875a15.789,15.789,0,0,1-.748,5.016,10.668,10.668,0,0,1-2.177,3.828,9.523,9.523,0,0,1-3.542,2.442,14.065,14.065,0,0,1-9.68,0,9.515,9.515,0,0,1-3.542-2.442,10.641,10.641,0,0,1-2.178-3.828,15.761,15.761,0,0,1-.748-5.016v-19.4h2.728V1303.7a11.4,11.4,0,0,0,2.068,7.239q2.067,2.617,6.512,2.617t6.511-2.6q2.068-2.595,2.069-7.26v-19.228h2.727Z"/><path class="b" d="M1267.546,1315.579a12.241,12.241,0,0,1-.418-2.683q-.066-1.408-.065-2.685V1301.5a13.481,13.481,0,0,0-.243-2.6,6.181,6.181,0,0,0-.814-2.133,4.291,4.291,0,0,0-1.474-1.431,4.428,4.428,0,0,0-2.265-.527,8.246,8.246,0,0,0-3.653.879,21.129,21.129,0,0,0-3.343,2.024,13.091,13.091,0,0,1,.483,3.564v8.932q0,1.278.066,2.685a12.19,12.19,0,0,0,.418,2.683h-2.551a12.126,12.126,0,0,1-.418-2.683q-.066-1.408-.067-2.685V1301.5a13.14,13.14,0,0,0-.242-2.574,6.724,6.724,0,0,0-.792-2.134,3.993,3.993,0,0,0-1.474-1.452,4.457,4.457,0,0,0-2.244-.527,7.83,7.83,0,0,0-3.5.857,22.879,22.879,0,0,0-3.366,2.046v17.864h-2.552v-22.528l2.244-.22.264,2.816a19.66,19.66,0,0,1,3.41-2.178,8.8,8.8,0,0,1,4.027-.946,6.1,6.1,0,0,1,3.475.946,6.412,6.412,0,0,1,2.2,2.574,16.32,16.32,0,0,1,3.741-2.53,9.6,9.6,0,0,1,4.267-.99,6.607,6.607,0,0,1,3.1.682,6.256,6.256,0,0,1,2.155,1.848,8.062,8.062,0,0,1,1.276,2.772,13.666,13.666,0,0,1,.418,3.454v8.932q0,1.278.067,2.685a12.126,12.126,0,0,0,.418,2.683Z"/><path class="b" d="M1289.942,1315.579a9.7,9.7,0,0,1-.264-1.452q-.088-.792-.132-1.5a14.875,14.875,0,0,1-1.562,1.166,13.692,13.692,0,0,1-1.936,1.057,13.272,13.272,0,0,1-2.178.748,9.443,9.443,0,0,1-2.288.285,7.279,7.279,0,0,1-2.618-.462,6.2,6.2,0,0,1-2.09-1.3,5.915,5.915,0,0,1-1.386-2.046,7.059,7.059,0,0,1-.506-2.75,6.348,6.348,0,0,1,.792-3.278,6.453,6.453,0,0,1,2.09-2.178,9.116,9.116,0,0,1,2.992-1.21,16.405,16.405,0,0,1,3.542-.374,21.987,21.987,0,0,1,2.772.154q1.188.155,2.332.374v-1.452a7.277,7.277,0,0,0-1.5-4.8,5.716,5.716,0,0,0-4.664-1.8,10.961,10.961,0,0,0-3.256.505,15.223,15.223,0,0,0-3.08,1.342l-.88-2.024a14.253,14.253,0,0,1,3.41-1.5,14.006,14.006,0,0,1,4.027-.572,9.814,9.814,0,0,1,3.783.66,7.209,7.209,0,0,1,2.618,1.8,7.382,7.382,0,0,1,1.54,2.706,10.873,10.873,0,0,1,.506,3.367v9.151q0,1.278.066,2.685a12.183,12.183,0,0,0,.418,2.683Zm-.44-10.824a20.162,20.162,0,0,0-2.42-.308c-.852-.058-1.613-.088-2.288-.088a9.429,9.429,0,0,0-5.368,1.3,4.194,4.194,0,0,0-1.892,3.674,4.065,4.065,0,0,0,4.488,4.268,8.747,8.747,0,0,0,2-.242,11.705,11.705,0,0,0,2-.66,13.629,13.629,0,0,0,1.848-.968q.881-.55,1.628-1.122Z"/><path class="b" d="M1326.109,1315.579a12.183,12.183,0,0,1-.418-2.683q-.066-1.408-.066-2.685V1301.5a13.227,13.227,0,0,0-.241-2.574,6.43,6.43,0,0,0-.815-2.134,4.119,4.119,0,0,0-1.517-1.452,4.784,4.784,0,0,0-2.355-.527,9.463,9.463,0,0,0-3.982.945,17.487,17.487,0,0,0-3.718,2.31v17.512h-2.552v-22.528l2.244-.22.264,3.036a21.236,21.236,0,0,1,3.939-2.376,10.215,10.215,0,0,1,4.334-.968,6.7,6.7,0,0,1,3.145.682,6.26,6.26,0,0,1,2.156,1.848,7.729,7.729,0,0,1,1.254,2.772,14.4,14.4,0,0,1,.4,3.454v8.932q0,1.278.065,2.685a12.183,12.183,0,0,0,.418,2.683Z"/><path class="b" d="M1351.761,1312.763a9.1,9.1,0,0,1-3.234,2.4,11.586,11.586,0,0,1-8.756,0,8.99,8.99,0,0,1-3.234-2.42,10.923,10.923,0,0,1-2.024-3.718,16.387,16.387,0,0,1,0-9.5,10.938,10.938,0,0,1,2.024-3.719,8.99,8.99,0,0,1,3.234-2.42,11.6,11.6,0,0,1,8.756,0,8.99,8.99,0,0,1,3.234,2.42,10.974,10.974,0,0,1,2.024,3.719,16.387,16.387,0,0,1,0,9.5A11.208,11.208,0,0,1,1351.761,1312.763Zm-4.268.264a6.6,6.6,0,0,0,2.42-1.98,9.205,9.205,0,0,0,1.474-2.992,14.32,14.32,0,0,0,0-7.546,9.193,9.193,0,0,0-1.474-3.014,6.619,6.619,0,0,0-2.42-1.98,8.3,8.3,0,0,0-6.688,0,6.619,6.619,0,0,0-2.42,1.98,9.176,9.176,0,0,0-1.474,3.014,14.32,14.32,0,0,0,0,7.546,9.188,9.188,0,0,0,1.474,2.992,6.6,6.6,0,0,0,2.42,1.98,8.294,8.294,0,0,0,6.688,0Z"/><path class="b" d="M1368.305,1315.579h-2.772L1357,1292.963h2.772l7.127,19.668,7.305-19.668h2.6Z"/><path class="b" d="M1394,1315.579a9.986,9.986,0,0,1-.264-1.452q-.088-.792-.132-1.5a14.875,14.875,0,0,1-1.562,1.166,13.753,13.753,0,0,1-1.936,1.057,13.276,13.276,0,0,1-2.178.748,9.44,9.44,0,0,1-2.287.285,7.277,7.277,0,0,1-2.619-.462,6.189,6.189,0,0,1-2.089-1.3,5.905,5.905,0,0,1-1.387-2.046,7.077,7.077,0,0,1-.506-2.75,6.348,6.348,0,0,1,.792-3.278,6.463,6.463,0,0,1,2.09-2.178,9.107,9.107,0,0,1,2.992-1.21,16.412,16.412,0,0,1,3.542-.374,22,22,0,0,1,2.773.154q1.188.155,2.332.374v-1.452a7.277,7.277,0,0,0-1.5-4.8,5.718,5.718,0,0,0-4.664-1.8,10.945,10.945,0,0,0-3.255.505,15.232,15.232,0,0,0-3.081,1.342l-.879-2.024a14.225,14.225,0,0,1,3.409-1.5,14,14,0,0,1,4.026-.572,9.813,9.813,0,0,1,3.784.66,7.2,7.2,0,0,1,2.618,1.8,7.383,7.383,0,0,1,1.541,2.706,10.9,10.9,0,0,1,.505,3.367v9.151q0,1.278.066,2.685a12.183,12.183,0,0,0,.418,2.683Zm-.439-10.824a20.244,20.244,0,0,0-2.42-.308q-1.278-.087-2.288-.088a9.428,9.428,0,0,0-5.369,1.3,4.2,4.2,0,0,0-1.892,3.674,4.065,4.065,0,0,0,4.488,4.268,8.74,8.74,0,0,0,2-.242,11.734,11.734,0,0,0,2-.66,13.7,13.7,0,0,0,1.849-.968q.879-.55,1.628-1.122Z"/><path class="b" d="M1443.016,1315.579a12.126,12.126,0,0,1-.418-2.683q-.066-1.408-.067-2.685V1301.5a13.483,13.483,0,0,0-.242-2.6,6.178,6.178,0,0,0-.813-2.133,4.294,4.294,0,0,0-1.475-1.431,4.429,4.429,0,0,0-2.266-.527,8.252,8.252,0,0,0-3.652.879,21.183,21.183,0,0,0-3.344,2.024,13.054,13.054,0,0,1,.485,3.564v8.932q0,1.278.065,2.685a12.248,12.248,0,0,0,.418,2.683h-2.552a12.183,12.183,0,0,1-.418-2.683q-.066-1.408-.065-2.685V1301.5a13.225,13.225,0,0,0-.242-2.574,6.751,6.751,0,0,0-.792-2.134,4,4,0,0,0-1.475-1.452,4.451,4.451,0,0,0-2.244-.527,7.829,7.829,0,0,0-3.5.857,22.879,22.879,0,0,0-3.366,2.046v17.864H1414.5v-22.528l2.243-.22.265,2.816a19.623,19.623,0,0,1,3.41-2.178,8.8,8.8,0,0,1,4.025-.946,6.1,6.1,0,0,1,3.477.946,6.409,6.409,0,0,1,2.2,2.574,16.357,16.357,0,0,1,3.74-2.53,9.608,9.608,0,0,1,4.269-.99,6.593,6.593,0,0,1,3.1.682,6.263,6.263,0,0,1,2.157,1.848,8.04,8.04,0,0,1,1.275,2.772,13.666,13.666,0,0,1,.418,3.454v8.932q0,1.278.066,2.685a12.183,12.183,0,0,0,.418,2.683Z"/><path class="b" d="M1465.411,1315.579a9.82,9.82,0,0,1-.265-1.452q-.087-.792-.131-1.5a14.875,14.875,0,0,1-1.562,1.166,13.692,13.692,0,0,1-1.936,1.057,13.272,13.272,0,0,1-2.178.748,9.449,9.449,0,0,1-2.288.285,7.271,7.271,0,0,1-2.618-.462,6.2,6.2,0,0,1-2.09-1.3,5.915,5.915,0,0,1-1.386-2.046,7.059,7.059,0,0,1-.506-2.75,6.348,6.348,0,0,1,.792-3.278,6.453,6.453,0,0,1,2.09-2.178,9.1,9.1,0,0,1,2.992-1.21,16.405,16.405,0,0,1,3.542-.374,21.987,21.987,0,0,1,2.772.154q1.188.155,2.332.374v-1.452a7.277,7.277,0,0,0-1.5-4.8,5.716,5.716,0,0,0-4.664-1.8,10.961,10.961,0,0,0-3.256.505,15.2,15.2,0,0,0-3.08,1.342l-.88-2.024a14.253,14.253,0,0,1,3.41-1.5,14,14,0,0,1,4.026-.572,9.807,9.807,0,0,1,3.783.66,7.2,7.2,0,0,1,2.619,1.8,7.382,7.382,0,0,1,1.54,2.706,10.869,10.869,0,0,1,.506,3.367v9.151q0,1.278.066,2.685a12.183,12.183,0,0,0,.418,2.683Zm-.44-10.824a20.188,20.188,0,0,0-2.42-.308c-.852-.058-1.613-.088-2.288-.088a9.424,9.424,0,0,0-5.368,1.3,4.2,4.2,0,0,0-1.892,3.674,4.065,4.065,0,0,0,4.488,4.268,8.747,8.747,0,0,0,2-.242,11.705,11.705,0,0,0,2-.66,13.629,13.629,0,0,0,1.848-.968q.881-.55,1.628-1.122Z"/><path class="b" d="M1490.271,1315.579a12.069,12.069,0,0,1-.418-2.683q-.066-1.408-.067-2.685V1301.5a13.227,13.227,0,0,0-.241-2.574,6.43,6.43,0,0,0-.815-2.134,4.119,4.119,0,0,0-1.517-1.452,4.784,4.784,0,0,0-2.355-.527,9.463,9.463,0,0,0-3.982.945,17.484,17.484,0,0,0-3.718,2.31v17.512h-2.552v-22.528l2.245-.22.263,3.036a21.236,21.236,0,0,1,3.939-2.376,10.218,10.218,0,0,1,4.334-.968,6.7,6.7,0,0,1,3.145.682,6.26,6.26,0,0,1,2.156,1.848,7.729,7.729,0,0,1,1.254,2.772,14.4,14.4,0,0,1,.4,3.454v8.932q0,1.278.065,2.685a12.183,12.183,0,0,0,.418,2.683Z"/><path class="b" d="M1516.054,1313.951a13.742,13.742,0,0,1-3.453,1.54,13.963,13.963,0,0,1-3.895.529,11.46,11.46,0,0,1-4.554-.859,9.329,9.329,0,0,1-3.366-2.4,10.546,10.546,0,0,1-2.09-3.74,15.515,15.515,0,0,1-.726-4.884,17.083,17.083,0,0,1,.572-4.488,11.031,11.031,0,0,1,1.738-3.7,8.41,8.41,0,0,1,2.949-2.508,9,9,0,0,1,4.2-.924,9.217,9.217,0,0,1,3.85.77,8.3,8.3,0,0,1,2.861,2.112,9,9,0,0,1,1.759,3.212,13.387,13.387,0,0,1,.594,4.071q0,.617-.044,1.231a10.18,10.18,0,0,1-.132,1.1h-15.752a9.97,9.97,0,0,0,2.332,6.4,7.587,7.587,0,0,0,5.9,2.31,11.074,11.074,0,0,0,3.256-.484,15.211,15.211,0,0,0,3.124-1.364Zm-2.068-11.044a9.875,9.875,0,0,0-1.672-5.918,5.658,5.658,0,0,0-4.839-2.177,6.48,6.48,0,0,0-2.971.637,6.215,6.215,0,0,0-2.111,1.739,7.7,7.7,0,0,0-1.3,2.573,15.177,15.177,0,0,0-.572,3.146Z"/><path class="b" d="M1525.6,1284.955a1.877,1.877,0,0,1-.506,1.386,2.034,2.034,0,0,1-2.685,0,1.869,1.869,0,0,1-.506-1.386,1.8,1.8,0,0,1,.506-1.364,2.1,2.1,0,0,1,2.685,0A1.805,1.805,0,0,1,1525.6,1284.955Zm-.573,30.624h-2.551v-22.528l2.551-.22Z"/><path class="b" d="M1535.194,1315.579h-2.551v-22.528l2.243-.22.308,3.432a13.605,13.605,0,0,1,3.19-2.75,6.55,6.55,0,0,1,3.41-.99,9.662,9.662,0,0,1,1.3.11,7.673,7.673,0,0,1,1.3.286l-.616,2.464a7.6,7.6,0,0,0-2.244-.352,6.417,6.417,0,0,0-3.322.924,12.462,12.462,0,0,0-3.014,2.6Z"/><path class="b" d="M1561.682,1315.579a9.694,9.694,0,0,1-.265-1.452q-.088-.792-.132-1.5a14.856,14.856,0,0,1-1.561,1.166,13.71,13.71,0,0,1-1.937,1.057,13.244,13.244,0,0,1-2.178.748,9.437,9.437,0,0,1-2.288.285,7.279,7.279,0,0,1-2.618-.462,6.2,6.2,0,0,1-2.09-1.3,5.9,5.9,0,0,1-1.385-2.046,7.059,7.059,0,0,1-.506-2.75,6.339,6.339,0,0,1,.792-3.278,6.435,6.435,0,0,1,2.09-2.178,9.1,9.1,0,0,1,2.992-1.21,16.4,16.4,0,0,1,3.542-.374,21.983,21.983,0,0,1,2.771.154q1.188.155,2.332.374v-1.452a7.278,7.278,0,0,0-1.5-4.8,5.716,5.716,0,0,0-4.664-1.8,10.963,10.963,0,0,0-3.256.505,15.225,15.225,0,0,0-3.08,1.342l-.88-2.024a14.253,14.253,0,0,1,3.41-1.5,14.011,14.011,0,0,1,4.027-.572,9.811,9.811,0,0,1,3.783.66,7.192,7.192,0,0,1,2.618,1.8,7.369,7.369,0,0,1,1.54,2.706,10.873,10.873,0,0,1,.506,3.367v9.151q0,1.278.066,2.685a12.19,12.19,0,0,0,.418,2.683Zm-.441-10.824a20.137,20.137,0,0,0-2.42-.308q-1.277-.087-2.288-.088a9.428,9.428,0,0,0-5.368,1.3,4.194,4.194,0,0,0-1.892,3.674,4.067,4.067,0,0,0,4.489,4.268,8.76,8.76,0,0,0,2-.242,11.762,11.762,0,0,0,2-.66,13.676,13.676,0,0,0,1.847-.968q.88-.55,1.628-1.122Z"/></g><g class="a" transform="translate(-538.021 -1033.107)"><path class="b" d="M1210.522,1373.787h-2.551v-32.736l2.244-.22.264,2.9a16.986,16.986,0,0,1,3.673-2.31,9.829,9.829,0,0,1,4.159-.9,7.658,7.658,0,0,1,3.806.924,8.731,8.731,0,0,1,2.794,2.486,11.419,11.419,0,0,1,1.737,3.63,15.672,15.672,0,0,1,.6,4.356,16.18,16.18,0,0,1-.66,4.664,11.73,11.73,0,0,1-1.937,3.85,9.5,9.5,0,0,1-3.1,2.618,8.843,8.843,0,0,1-4.2.969,10.506,10.506,0,0,1-3.762-.661,12,12,0,0,1-3.059-1.671Zm0-14.475a14.323,14.323,0,0,0,3.059,1.715,9.016,9.016,0,0,0,3.5.7,6.592,6.592,0,0,0,3.321-.814,7.167,7.167,0,0,0,2.376-2.178,9.762,9.762,0,0,0,1.409-3.146,14.755,14.755,0,0,0,.461-3.718,13.3,13.3,0,0,0-.439-3.476,9.444,9.444,0,0,0-1.3-2.881,6.462,6.462,0,0,0-2.112-1.981,5.737,5.737,0,0,0-2.926-.725,9.052,9.052,0,0,0-3.894.9,16.251,16.251,0,0,0-3.455,2.178Z"/><path class="b" d="M1246.163,1363.579a9.852,9.852,0,0,1-.265-1.452q-.087-.792-.131-1.5a14.85,14.85,0,0,1-1.562,1.166,13.7,13.7,0,0,1-1.936,1.057,13.277,13.277,0,0,1-2.178.748,9.448,9.448,0,0,1-2.288.285,7.271,7.271,0,0,1-2.618-.462,6.2,6.2,0,0,1-2.09-1.3,5.918,5.918,0,0,1-1.386-2.046,7.059,7.059,0,0,1-.506-2.75,6.35,6.35,0,0,1,.792-3.278,6.444,6.444,0,0,1,2.09-2.178,9.1,9.1,0,0,1,2.992-1.21,16.4,16.4,0,0,1,3.542-.374,21.985,21.985,0,0,1,2.772.154q1.188.155,2.332.374v-1.452a7.278,7.278,0,0,0-1.5-4.8,5.718,5.718,0,0,0-4.664-1.8,10.962,10.962,0,0,0-3.256.505,15.2,15.2,0,0,0-3.08,1.342l-.88-2.024a14.232,14.232,0,0,1,3.41-1.5,14,14,0,0,1,4.026-.572,9.808,9.808,0,0,1,3.783.66,7.205,7.205,0,0,1,2.619,1.8,7.382,7.382,0,0,1,1.54,2.706,10.869,10.869,0,0,1,.505,3.367v9.151q0,1.278.067,2.685a12.126,12.126,0,0,0,.418,2.683Zm-.44-10.824a20.193,20.193,0,0,0-2.42-.308q-1.278-.087-2.288-.088a9.43,9.43,0,0,0-5.369,1.3,4.2,4.2,0,0,0-1.891,3.674,4.066,4.066,0,0,0,4.488,4.268,8.746,8.746,0,0,0,2-.242,11.7,11.7,0,0,0,2-.66,13.622,13.622,0,0,0,1.848-.968q.881-.55,1.628-1.122Z"/><path class="b" d="M1257.91,1363.579h-2.552v-22.528l2.245-.22.307,3.432a13.589,13.589,0,0,1,3.191-2.75,6.548,6.548,0,0,1,3.41-.99,9.672,9.672,0,0,1,1.3.11,7.632,7.632,0,0,1,1.3.286l-.616,2.464a7.59,7.59,0,0,0-2.244-.352,6.414,6.414,0,0,0-3.321.924,12.447,12.447,0,0,0-3.015,2.6Z"/><path class="b" d="M1284.4,1363.579a9.715,9.715,0,0,1-.264-1.452q-.089-.792-.132-1.5a14.748,14.748,0,0,1-1.562,1.166,13.7,13.7,0,0,1-1.936,1.057,13.28,13.28,0,0,1-2.178.748,9.437,9.437,0,0,1-2.288.285,7.279,7.279,0,0,1-2.618-.462,6.2,6.2,0,0,1-2.09-1.3,5.918,5.918,0,0,1-1.386-2.046,7.059,7.059,0,0,1-.506-2.75,6.35,6.35,0,0,1,.792-3.278,6.455,6.455,0,0,1,2.09-2.178,9.113,9.113,0,0,1,2.993-1.21,16.389,16.389,0,0,1,3.541-.374,21.985,21.985,0,0,1,2.772.154q1.188.155,2.332.374v-1.452a7.278,7.278,0,0,0-1.5-4.8,5.717,5.717,0,0,0-4.664-1.8,10.962,10.962,0,0,0-3.256.505,15.225,15.225,0,0,0-3.08,1.342l-.88-2.024a14.25,14.25,0,0,1,3.41-1.5,14.007,14.007,0,0,1,4.027-.572,9.814,9.814,0,0,1,3.783.66,7.21,7.21,0,0,1,2.618,1.8,7.382,7.382,0,0,1,1.54,2.706,10.869,10.869,0,0,1,.506,3.367v9.151q0,1.278.066,2.685a12.19,12.19,0,0,0,.418,2.683Zm-.44-10.824a20.164,20.164,0,0,0-2.42-.308q-1.276-.087-2.288-.088a9.429,9.429,0,0,0-5.368,1.3,4.2,4.2,0,0,0-1.892,3.674,4.066,4.066,0,0,0,4.489,4.268,8.743,8.743,0,0,0,2-.242,11.707,11.707,0,0,0,2-.66,13.628,13.628,0,0,0,1.848-.968q.881-.55,1.628-1.122Z"/><path class="b" d="M1312.865,1363.579h-2.771l-8.536-22.616h2.771l7.128,19.668,7.3-19.668h2.6Z"/><path class="b" d="M1341.817,1360.763a9.088,9.088,0,0,1-3.234,2.4,11.586,11.586,0,0,1-8.756,0,9,9,0,0,1-3.234-2.42,10.94,10.94,0,0,1-2.024-3.718,16.387,16.387,0,0,1,0-9.5,10.955,10.955,0,0,1,2.024-3.719,9,9,0,0,1,3.234-2.42,11.6,11.6,0,0,1,8.756,0,8.982,8.982,0,0,1,3.234,2.42,10.954,10.954,0,0,1,2.024,3.719,16.384,16.384,0,0,1,0,9.5A11.189,11.189,0,0,1,1341.817,1360.763Zm-4.268.264a6.6,6.6,0,0,0,2.42-1.98,9.227,9.227,0,0,0,1.474-2.992,14.32,14.32,0,0,0,0-7.546,9.215,9.215,0,0,0-1.474-3.014,6.619,6.619,0,0,0-2.42-1.98,8.3,8.3,0,0,0-6.688,0,6.628,6.628,0,0,0-2.42,1.98,9.193,9.193,0,0,0-1.474,3.014,14.32,14.32,0,0,0,0,7.546,9.205,9.205,0,0,0,1.474,2.992,6.609,6.609,0,0,0,2.42,1.98,8.294,8.294,0,0,0,6.688,0Z"/><path class="b" d="M1366.589,1361.951a13.451,13.451,0,0,1-3.433,1.518,14.254,14.254,0,0,1-4,.551,10.871,10.871,0,0,1-4.444-.859,8.942,8.942,0,0,1-3.256-2.42,10.667,10.667,0,0,1-2-3.718,15.684,15.684,0,0,1-.681-4.752,15.282,15.282,0,0,1,.7-4.73,10.674,10.674,0,0,1,2.023-3.718,9.3,9.3,0,0,1,3.257-2.42,10.513,10.513,0,0,1,4.4-.88,13.565,13.565,0,0,1,3.828.528,14.543,14.543,0,0,1,3.3,1.408l-.88,2.068a15.179,15.179,0,0,0-3.1-1.276,11.419,11.419,0,0,0-3.1-.439,7.941,7.941,0,0,0-3.366.681,6.66,6.66,0,0,0-2.464,1.936,8.691,8.691,0,0,0-1.5,2.992,13.758,13.758,0,0,0-.506,3.85,14.1,14.1,0,0,0,.485,3.806,8.389,8.389,0,0,0,1.473,2.992,6.8,6.8,0,0,0,2.487,1.958,8.07,8.07,0,0,0,3.475.7,11.158,11.158,0,0,0,3.235-.484,16.078,16.078,0,0,0,3.189-1.364Z"/><path class="b" d="M1387.973,1361.951a13.768,13.768,0,0,1-3.454,1.54,13.962,13.962,0,0,1-3.894.529,11.466,11.466,0,0,1-4.555-.859,9.318,9.318,0,0,1-3.365-2.4,10.55,10.55,0,0,1-2.091-3.74,15.544,15.544,0,0,1-.725-4.884,17.078,17.078,0,0,1,.572-4.488,11.029,11.029,0,0,1,1.737-3.7,8.433,8.433,0,0,1,2.948-2.508,9.018,9.018,0,0,1,4.2-.924,9.212,9.212,0,0,1,3.849.77,8.293,8.293,0,0,1,2.861,2.112,8.964,8.964,0,0,1,1.759,3.212,13.357,13.357,0,0,1,.595,4.071c0,.411-.016.821-.045,1.231a10.178,10.178,0,0,1-.132,1.1h-15.752a9.969,9.969,0,0,0,2.332,6.4,7.588,7.588,0,0,0,5.9,2.31,11.073,11.073,0,0,0,3.256-.484,15.258,15.258,0,0,0,3.124-1.364Zm-2.464-24.508q-1.41-1.143-3.036-2.574t-3.168-2.838q-1.542,1.41-3.168,2.838t-3.036,2.574l-1.321-1.32q1.937-1.8,3.63-3.476t3.322-3.388h1.145q1.628,1.716,3.321,3.388t3.63,3.476Zm.4,13.464a9.877,9.877,0,0,0-1.672-5.918,5.659,5.659,0,0,0-4.839-2.177,6.48,6.48,0,0,0-2.97.637,6.228,6.228,0,0,0-2.112,1.739,7.7,7.7,0,0,0-1.3,2.573,15.113,15.113,0,0,0-.573,3.146Z"/></g></g></svg>