<svg width="73" height="75" viewBox="0 0 73 75" fill="none" xmlns="http://www.w3.org/2000/svg">
<path fill-rule="evenodd" clip-rule="evenodd" d="M36.9115 0.0199768C37.5235 -0.0588423 38.066 0.0955504 38.5343 0.483619C40.3935 4.44451 41.3996 8.61729 41.5479 13.0019C38.9191 13.0019 36.2949 13.0019 33.666 13.0019C33.6938 8.36553 34.7788 4.03836 36.9115 0.0199768Z" fill="#FDECA3"/>
<path fill-rule="evenodd" clip-rule="evenodd" d="M61.9473 11.1474C66.3194 10.6657 67.3209 12.3658 64.9609 16.2475C62.5036 19.1902 59.49 21.1222 55.9199 22.043C54.4641 20.6113 53.458 18.9885 52.9062 17.1747C55.753 14.8672 58.7667 12.8582 61.9473 11.1474Z" fill="#FEECA3"/>
<path fill-rule="evenodd" clip-rule="evenodd" d="M8.62899 11.6111C13.5436 12.4187 17.6376 14.737 20.9155 18.5657C21.2261 18.875 21.2261 19.1837 20.9155 19.493C19.4597 20.9924 17.9111 22.3833 16.2791 23.6658C12.0321 21.5084 9.01845 18.263 7.23806 13.9293C7.15461 12.785 7.61825 12.0121 8.62899 11.6111Z" fill="#FEECA3"/>
<path fill-rule="evenodd" clip-rule="evenodd" d="M33.2015 17.6384C49.9343 17.298 57.4314 25.4892 55.6881 42.2114C52.9619 54.2072 45.4648 59.2303 33.2015 57.2797C24.3784 55.8016 19.1995 50.6246 17.6695 41.7477C15.8149 29.1557 20.9938 21.1189 33.2015 17.6384Z" fill="#FEECA3"/>
<path fill-rule="evenodd" clip-rule="evenodd" d="M60.0938 33.4021C63.0332 33.3252 65.9727 33.4021 68.9029 33.634C73.6924 35.1644 73.8454 37.019 69.3666 39.1977C66.3529 40.1894 63.2604 40.73 60.0938 40.8204C60.0938 38.3478 60.0938 35.8747 60.0938 33.4021Z" fill="#FEECA3"/>
<path fill-rule="evenodd" clip-rule="evenodd" d="M6.774 34.793C8.78157 34.793 10.7938 34.793 12.8013 34.793C12.8013 37.5748 12.8013 40.3567 12.8013 43.1385C8.53584 42.9197 4.59488 41.6832 0.978478 39.4294C0.00482994 38.1938 0.236651 37.1891 1.67394 36.4157C3.37087 35.6771 5.07244 35.1365 6.774 34.793Z" fill="#FDECA3"/>
<path fill-rule="evenodd" clip-rule="evenodd" d="M55.4564 52.4114C60.1484 54.692 62.7727 58.4012 63.3383 63.5388C58.8688 63.1196 55.0808 61.2651 51.9791 57.9751C51.6684 57.6658 51.6684 57.357 51.9791 57.0478C53.2495 55.5507 54.4086 54.0054 55.4564 52.4114Z" fill="#FDECA3"/>
<path fill-rule="evenodd" clip-rule="evenodd" d="M17.4383 53.8025C19.6592 55.4813 21.8244 57.2585 23.9293 59.1344C20.5633 62.4017 16.6223 64.6424 12.1064 65.8572C10.3075 66.0102 9.30141 65.2373 9.09277 63.539C9.21332 62.3669 9.60278 61.2852 10.2519 60.2935C12.4495 57.8621 14.8466 55.6988 17.4383 53.8025Z" fill="#FEECA3"/>
<path fill-rule="evenodd" clip-rule="evenodd" d="M34.5935 62.6116C36.601 62.6116 38.6132 62.6116 40.6208 62.6116C41.1911 66.986 40.1062 70.8496 37.3753 74.2026C36.2162 73.4381 35.5208 72.3559 35.2889 70.9571C34.714 68.2054 34.4822 65.4236 34.5935 62.6116Z" fill="#FEECA3"/>
</svg>
