<svg width="20" height="20" viewBox="0 0 20 20" fill="none" xmlns="http://www.w3.org/2000/svg">
<mask id="mask0_355_811" style="mask-type:alpha" maskUnits="userSpaceOnUse" x="0" y="0" width="20" height="20">
<rect width="20" height="20" fill="#D9D9D9"/>
</mask>
<g mask="url(#mask0_355_811)">
<path d="M3.47918 17.4997C3.18752 17.5691 2.93404 17.4962 2.71877 17.2809C2.50349 17.0656 2.43057 16.8122 2.50002 16.5205L3.33335 12.5413L7.45835 16.6663L3.47918 17.4997ZM7.45835 16.6663L3.33335 12.5413L12.875 2.99967C13.1945 2.68023 13.5903 2.52051 14.0625 2.52051C14.5347 2.52051 14.9306 2.68023 15.25 2.99967L17 4.74967C17.3195 5.06912 17.4792 5.46495 17.4792 5.93717C17.4792 6.4094 17.3195 6.80523 17 7.12467L7.45835 16.6663ZM14.0625 4.16634L5.43752 12.7913L7.20835 14.5622L15.8333 5.93717L14.0625 4.16634Z" fill="#515C2C"/>
</g>
</svg>
