<svg width="40" height="40" viewBox="0 0 40 40" fill="none" xmlns="http://www.w3.org/2000/svg">
<mask id="mask0_274_927" style="mask-type:alpha" maskUnits="userSpaceOnUse" x="0" y="0" width="40" height="40">
<rect width="40" height="40" fill="#D9D9D9"/>
</mask>
<g mask="url(#mask0_274_927)">
<path d="M19.9993 19.9997C20.916 19.9997 21.7007 19.6733 22.3535 19.0205C23.0063 18.3677 23.3327 17.583 23.3327 16.6663C23.3327 15.7497 23.0063 14.965 22.3535 14.3122C21.7007 13.6594 20.916 13.333 19.9993 13.333C19.0827 13.333 18.298 13.6594 17.6452 14.3122C16.9924 14.965 16.666 15.7497 16.666 16.6663C16.666 17.583 16.9924 18.3677 17.6452 19.0205C18.298 19.6733 19.0827 19.9997 19.9993 19.9997ZM19.9993 32.2497C23.3882 29.1386 25.9021 26.3122 27.541 23.7705C29.1799 21.2288 29.9993 18.9719 29.9993 16.9997C29.9993 13.9719 29.0341 11.4927 27.1035 9.56217C25.173 7.63162 22.8049 6.66634 19.9993 6.66634C17.1938 6.66634 14.8257 7.63162 12.8952 9.56217C10.9646 11.4927 9.99935 13.9719 9.99935 16.9997C9.99935 18.9719 10.8188 21.2288 12.4577 23.7705C14.0966 26.3122 16.6105 29.1386 19.9993 32.2497ZM19.9993 36.6663C15.5271 32.8608 12.1868 29.3261 9.97852 26.0622C7.77018 22.7983 6.66602 19.7775 6.66602 16.9997C6.66602 12.833 8.00629 9.51356 10.6868 7.04134C13.3674 4.56912 16.4716 3.33301 19.9993 3.33301C23.5271 3.33301 26.6313 4.56912 29.3119 7.04134C31.9924 9.51356 33.3327 12.833 33.3327 16.9997C33.3327 19.7775 32.2285 22.7983 30.0202 26.0622C27.8118 29.3261 24.4716 32.8608 19.9993 36.6663Z" fill="#1C1B1F"/>
</g>
</svg>
