<svg width="30" height="30" viewBox="0 0 30 30" fill="none" xmlns="http://www.w3.org/2000/svg">
<path fill-rule="evenodd" clip-rule="evenodd" d="M10.7835 0.0928893C6.41721 0.25236 5.44063 0.489315 3.58225 1.84019C2.2698 2.79417 1.22137 4.22657 0.630072 5.87293C-0.12689 7.98064 -0.234789 21.4733 0.486843 23.7663C1.27221 26.2619 3.37552 28.4519 5.83284 29.3324C8.31523 30.2222 21.8489 30.2226 24.3279 29.3331C26.8344 28.4336 28.9093 26.2399 29.7083 23.6445C29.9126 22.9808 30 20.3883 30 14.9957C30 8.20196 29.9492 7.14111 29.5679 5.99141C28.6599 3.25245 26.3579 1.12957 23.5547 0.445715C21.8696 0.0348353 16.4644 -0.114446 10.7835 0.0928893ZM6.91875 2.52381C4.58198 3.16406 2.92268 4.93174 2.42496 7.31148C2.25189 8.13964 2.18482 11.1025 2.23375 15.7603C2.30417 22.4465 2.34308 23.0062 2.80762 24.0026C3.4426 25.3644 4.63474 26.5477 6.00663 27.178C7.03095 27.6486 7.474 27.6728 15.0804 27.6728C22.6868 27.6728 23.1298 27.6486 24.1541 27.178C25.526 26.5477 26.7182 25.3644 27.3531 24.0026C27.8272 22.9858 27.8516 22.546 27.8516 14.9957C27.8516 7.44536 27.8272 7.00557 27.3531 5.9888C26.7182 4.62702 25.526 3.44367 24.1541 2.81337C23.1427 2.3487 22.6202 2.31553 15.5578 2.2679C10.0027 2.23022 7.74589 2.29704 6.91875 2.52381ZM22.3934 5.77175C21.1836 6.71625 21.7978 8.59791 23.316 8.59791C24.8342 8.59791 25.4484 6.71625 24.2386 5.77175C23.8927 5.50162 23.4776 5.39905 23.316 5.39905C23.0772 5.39905 22.7393 5.50162 22.3934 5.77175ZM13.0924 7.97661C7.84592 9.43578 6.01832 15.8852 9.70383 19.9345C13.0425 23.6028 19.165 22.7079 21.608 18.1946C22.3511 16.8217 22.3511 13.1697 21.608 11.7968C19.9685 8.76804 16.2479 7.09893 13.0924 7.97661ZM13.3819 10.1097C11.9711 10.6101 11.1005 11.3705 10.446 12.6742C9.62887 14.3019 9.63317 15.698 10.4605 17.346C11.9146 20.2423 15.7536 21.048 18.2739 18.986C19.5343 17.9545 20.0934 16.7288 20.0934 14.9957C20.0934 13.2654 19.5345 12.0368 18.2811 11.0113C16.8999 9.88126 15.0076 9.53293 13.3819 10.1097Z" fill="black"/>
</svg>
