<svg width="227" height="292" viewBox="0 0 227 292" fill="none" xmlns="http://www.w3.org/2000/svg">
<path fill-rule="evenodd" clip-rule="evenodd" d="M205.857 0C208.448 1.81609 210.766 3.9799 212.811 6.49099C215.515 5.06251 218.142 3.51672 220.693 1.85457C220.965 1.95147 221.197 2.10632 221.389 2.31821C220.807 5.28552 219.957 8.22176 218.839 11.1274C221.635 12.523 224.262 14.1457 226.721 15.9956C226.653 16.3536 226.499 16.6628 226.257 16.9229C223.5 17.6105 220.718 18.1516 217.912 18.5457C218.065 21.806 217.91 25.0515 217.448 28.2822C215.137 26.2027 212.895 24.0394 210.725 21.7912C208.048 23.4747 205.344 24.9425 202.611 26.1958C202.399 26.0038 202.245 25.772 202.148 25.5003C203.255 22.5877 203.873 19.651 204.002 16.6911C201.453 15.3396 198.98 13.8717 196.584 12.2865C199.5 10.8617 202.591 10.0114 205.857 9.73648C205.857 6.49099 205.857 3.24549 205.857 0Z" fill="#D8B7AA"/>
<path fill-rule="evenodd" clip-rule="evenodd" d="M207.248 3.24561C209.26 4.94856 211.114 6.80313 212.812 8.80931C214.86 7.02243 217.024 5.7859 219.303 5.10017C218.637 7.37805 217.864 9.61883 216.985 11.823C219.12 13.047 221.284 14.2835 223.476 15.5321C221.172 16.6096 218.777 17.3051 216.289 17.6185C216.549 20.0554 216.549 22.5285 216.289 25.0368C214.512 23.3366 212.734 21.6369 210.957 19.9367C208.85 21.1074 206.764 22.3439 204.698 23.6458C204.773 21.176 205.469 18.8578 206.784 16.6912C204.575 15.5066 202.412 14.1931 200.293 12.7503C202.57 11.6593 204.966 10.9639 207.48 10.6639C207.323 8.21909 207.245 5.74603 207.248 3.24561Z" fill="white"/>
<path fill-rule="evenodd" clip-rule="evenodd" d="M59.8098 11.5911C60.0031 11.3018 60.3124 11.1474 60.7371 11.1274C65.9364 12.2648 70.5728 14.5055 74.6463 17.8502C80.4975 22.6179 85.5206 28.1042 89.7147 34.3095C89.7912 31.0524 89.5594 27.807 89.0192 24.5731C89.1736 24.1094 89.3285 23.6458 89.4829 23.1821C100.935 32.7285 107.812 44.9381 110.115 59.8098C110.424 62.5917 110.424 65.3735 110.115 68.1554C100.604 81.7591 87.5444 88.8686 70.9372 89.4829C72.6958 86.6621 74.3955 83.8028 76.0373 80.9055C66.8562 82.4379 57.5834 82.9015 48.2188 82.2965C50.9584 78.98 53.5854 75.5801 56.1007 72.0963C46.628 73.943 37.8188 72.2429 29.6731 66.9963C31.3927 64.252 33.1699 61.5476 35.005 58.8825C35.5553 58.1667 35.7097 57.3938 35.4686 56.5643C31.0079 53.0328 26.2941 49.8647 21.3275 47.0597C14.3474 43.2606 7.23838 39.7059 0 36.3959C7.74328 32.1151 15.934 29.024 24.573 27.1231C28.616 26.8565 32.6339 26.8565 36.6277 27.1231C34.0002 23.2596 31.3733 19.3956 28.7458 15.532C38.1345 14.0257 47.0981 15.4166 55.637 19.7048C59.7384 21.9071 63.7568 24.0705 67.6917 26.1958C65.2279 21.188 62.6009 16.3198 59.8098 11.5911Z" fill="#95C812"/>
<path fill-rule="evenodd" clip-rule="evenodd" d="M210.957 11.5911C213.872 11.8016 214.799 13.2699 213.739 15.9957C210.622 17.2623 209.309 16.2576 209.798 12.982C210.121 12.4298 210.508 11.9662 210.957 11.5911Z" fill="#D8B7AA"/>
<path fill-rule="evenodd" clip-rule="evenodd" d="M62.1278 44.5096C62.0879 44.9713 62.2428 45.3576 62.5915 45.6687C64.3487 46.1444 66.0488 46.6854 67.6915 47.2914C67.8501 47.6799 68.1589 47.8348 68.6188 47.7551C70.688 48.4046 72.697 49.177 74.6461 50.0733C74.9178 49.9764 75.1497 49.8215 75.3416 49.6096C75.5373 50.5026 76.0783 50.9662 76.9644 51.0005C77.2838 51.5912 77.6705 51.5912 78.1235 51.0005C78.8143 51.9547 79.7416 52.5728 80.9053 52.8551C80.9827 52.7007 81.0597 52.5459 81.1371 52.3915C80.6141 52.0382 80.0731 51.7289 79.5144 51.4642C79.7578 50.0946 79.2167 49.0124 77.8916 48.2187C76.8586 45.7721 75.3129 43.6857 73.2552 41.9595C73.6298 41.8167 73.9391 41.5849 74.1825 41.2641C73.0772 39.6659 72.7684 37.9662 73.2552 36.164C74.1037 37.3978 75.1854 38.4025 76.5007 39.1777C76.3027 40.1643 76.5346 41.169 77.1962 42.1914C79.6702 45.7424 82.0658 49.6059 84.3826 53.7824C88.0018 55.9796 91.7109 58.066 95.51 60.0416C96.85 60.9401 98.086 61.9448 99.2192 63.0552C98.8181 63.5574 98.3545 63.6343 97.8282 63.2871C93.4505 61.0611 89.2008 58.6655 85.0781 56.1006C80.8316 59.8797 76.427 63.5115 71.8643 66.9962C69.3161 68.618 66.6112 69.9315 63.7506 70.9371C63.5187 70.7828 63.2869 70.6279 63.0551 70.4735C65.2147 68.1544 67.8417 66.5316 70.937 65.6053C73.2663 63.5184 75.7389 61.6638 78.3553 60.0416C79.2237 59.2515 79.9966 58.4017 80.6735 57.4915C81.1371 57.3371 81.4464 57.0279 81.6008 56.5642C82.1233 56.2759 82.5869 55.8896 82.9917 55.4051C78.2941 53.3225 73.5802 51.2361 68.8506 49.146C68.1278 49.3912 67.4323 49.7005 66.7642 50.0733C65.179 48.2428 63.1701 47.1611 60.7369 46.8278C60.3669 47.0397 60.2125 47.3489 60.2733 47.7551C59.5064 49.2777 58.5017 50.6686 57.2596 51.9278C55.0438 54.1436 52.8026 56.3848 50.5368 58.6506C48.1527 60.4607 45.5253 61.7747 42.6549 62.5916C42.576 61.9787 42.7304 61.4376 43.1185 60.9688C45.1312 59.4982 47.295 58.2616 49.6095 57.2597C52.3264 54.5428 55.0313 51.8379 57.7232 49.146C58.1549 48.2377 58.5411 47.3104 58.8823 46.3641C56.6499 45.224 54.3317 44.7604 51.9277 44.9732C50.2002 43.9982 48.3456 43.3027 46.364 42.8868C41.5825 41.9095 36.7916 40.9822 31.9911 40.105C28.7419 39.2287 25.6508 37.9926 22.7183 36.3958C25.3675 36.1028 27.995 36.2572 30.6002 36.8595C39.3292 38.81 47.9835 41.0508 56.5641 43.5823C57.0375 43.3495 57.1149 43.0407 56.7959 42.655C53.3826 38.9338 49.9827 35.2247 46.5958 31.5276C45.1562 29.7375 44.3833 27.7285 44.2776 25.5002C45.6514 26.4094 46.8874 27.4911 47.9867 28.7457C50.6142 31.9912 53.2412 35.2367 55.8687 38.4822C57.0509 37.3978 57.2828 37.707 56.5641 39.4095C57.9648 40.9845 59.1239 42.6842 60.0414 44.5096C60.697 44.9329 61.3925 44.9329 62.1278 44.5096Z" fill="#F4F7DC"/>
<path fill-rule="evenodd" clip-rule="evenodd" d="M62.5918 33.8459C63.0657 34.4913 62.9113 35.1094 62.1282 35.7005C61.9738 35.5461 61.8189 35.3913 61.6646 35.2369C61.9859 34.7649 62.2946 34.3012 62.5918 33.8459Z" fill="#D8E99F"/>
<path fill-rule="evenodd" clip-rule="evenodd" d="M60.2734 39.4097C60.6393 39.5409 60.9485 39.7727 61.2007 40.1051C60.5906 40.3499 60.2813 40.1181 60.2734 39.4097Z" fill="#E7F1C1"/>
<path fill-rule="evenodd" clip-rule="evenodd" d="M72.7919 40.3369C73.3821 40.6044 73.3821 40.9132 72.7919 41.2642C72.3454 41.0463 72.3454 40.737 72.7919 40.3369Z" fill="#E2EFB6"/>
<path fill-rule="evenodd" clip-rule="evenodd" d="M66.301 45.4369C65.7687 44.7901 65.3051 44.8675 64.91 45.6687C66.1396 45.8324 67.0669 46.3735 67.6919 47.2915C66.0492 46.6855 64.349 46.1444 62.5918 45.6687C62.2432 45.3576 62.0883 44.9714 62.1282 44.5096C62.7161 43.9129 62.5617 43.4493 61.6646 43.1187C62.6299 42.4724 63.4027 42.6268 63.9828 43.5823C62.9878 43.6732 62.9108 44.1368 63.7509 44.9733C63.9661 44.6979 64.0435 44.3886 63.9828 44.046C64.4367 43.4595 64.9003 42.841 65.3737 42.1914C65.5499 42.8966 65.6268 43.669 65.6055 44.5096C65.9917 44.046 66.3784 43.5823 66.7646 43.1187C66.919 43.2731 67.0739 43.4279 67.2283 43.5823C66.7043 44.1025 66.3951 44.721 66.301 45.4369Z" fill="#ADD44B"/>
<path fill-rule="evenodd" clip-rule="evenodd" d="M63.9828 43.5823C63.9828 43.7367 63.9828 43.8915 63.9828 44.0459C64.0435 44.3885 63.9661 44.6978 63.7509 44.9732C62.9108 44.1368 62.9878 43.6731 63.9828 43.5823Z" fill="#E2EFB5"/>
<path fill-rule="evenodd" clip-rule="evenodd" d="M67.6918 44.0459C68.5412 44.3426 68.6956 44.8063 68.1555 45.4368C67.7447 45.0543 67.5903 44.5907 67.6918 44.0459Z" fill="#E2EFB4"/>
<path fill-rule="evenodd" clip-rule="evenodd" d="M66.3006 45.4369C67.8292 45.4981 68.6016 46.2706 68.6188 47.7551C68.1589 47.8349 67.8501 47.68 67.6915 47.2915C67.0665 46.3735 66.1392 45.8324 64.9097 45.6687C65.3047 44.8676 65.7683 44.7901 66.3006 45.4369Z" fill="#D4E796"/>
<path fill-rule="evenodd" clip-rule="evenodd" d="M77.8918 48.2188C79.2169 49.0125 79.7579 50.0946 79.5145 51.4642C80.0732 51.729 80.6143 52.0382 81.1373 52.3915C81.0599 52.5459 80.9829 52.7008 80.9055 52.8552C79.7417 52.5728 78.8144 51.9548 78.1236 51.0006C77.6706 51.5913 77.284 51.5913 76.9645 51.0006C77.1676 51.0307 77.3224 50.9538 77.4281 50.7688C76.7155 50.2541 76.4067 49.5587 76.5009 48.6824C77.0994 48.7923 77.5631 48.6379 77.8918 48.2188Z" fill="#ABD348"/>
<path fill-rule="evenodd" clip-rule="evenodd" d="M60.2735 47.7551C62.6659 48.0653 62.7429 48.6833 60.5054 49.6097C60.2782 49.0102 60.2007 48.3917 60.2735 47.7551Z" fill="#D6E89B"/>
<path fill-rule="evenodd" clip-rule="evenodd" d="M64.4461 49.6096C65.0433 50.3213 65.0433 51.0937 64.4461 51.9278C64.3038 51.2848 64.3038 50.5119 64.4461 49.6096Z" fill="#E6F0BD"/>
<path fill-rule="evenodd" clip-rule="evenodd" d="M68.6192 50.0733C70.3546 50.0543 70.432 50.3636 68.851 51.0006C68.6358 50.7252 68.5584 50.416 68.6192 50.0733Z" fill="#E5F0BA"/>
<path fill-rule="evenodd" clip-rule="evenodd" d="M58.8823 50.5371C60.0419 50.5422 60.1193 50.8515 59.1142 51.4644C58.899 51.189 58.8216 50.8797 58.8823 50.5371Z" fill="#EFF5D2"/>
<path fill-rule="evenodd" clip-rule="evenodd" d="M57.4914 52.3916C58.3431 52.456 58.4975 52.7653 57.955 53.3189C57.585 53.107 57.4306 52.7978 57.4914 52.3916Z" fill="#DDECA9"/>
<path fill-rule="evenodd" clip-rule="evenodd" d="M62.1281 53.3188C62.9798 53.3833 63.1342 53.6925 62.5917 54.2461C62.2217 54.0342 62.0674 53.725 62.1281 53.3188Z" fill="#E2EFB5"/>
<path fill-rule="evenodd" clip-rule="evenodd" d="M77.8916 55.1733C78.5096 55.1733 78.8189 55.4826 78.8189 56.1006C78.5096 56.1006 78.2009 56.1006 77.8916 56.1006C77.8916 55.7914 77.8916 55.4826 77.8916 55.1733Z" fill="#EFF5D1"/>
<path fill-rule="evenodd" clip-rule="evenodd" d="M77.8918 55.1736C77.8918 55.4829 77.8918 55.7916 77.8918 56.1009C77.9646 56.7375 77.8871 57.356 77.6599 57.9555C77.3164 57.4264 76.9297 57.4264 76.5008 57.9555C76.3464 57.8011 76.1916 57.6462 76.0372 57.4918C76.4433 57.1436 76.907 56.9118 77.4281 56.7963C76.8666 56.2803 76.8666 55.7392 77.4281 55.1736C77.0317 54.8059 76.645 54.9603 76.269 55.6372C76.0451 55.1977 75.9681 54.7341 76.0372 54.2463C76.9566 54.0873 77.5751 54.3965 77.8918 55.1736Z" fill="#C4DF75"/>
<path fill-rule="evenodd" clip-rule="evenodd" d="M81.6012 56.5643C81.4468 57.0279 81.1375 57.3372 80.6739 57.4915C79.8769 57.2495 79.2589 56.7859 78.8193 56.1006C79.7466 55.7914 80.6739 55.4826 81.6012 55.1733C81.6012 55.637 81.6012 56.1006 81.6012 56.5643Z" fill="#BFDD6E"/>
<path fill-rule="evenodd" clip-rule="evenodd" d="M71.4009 54.7097C72.3342 55.1618 72.9522 55.9347 73.2554 57.0279C73.1011 57.1823 72.9462 57.3372 72.7918 57.4916C72.0787 56.6834 71.6151 55.7562 71.4009 54.7097Z" fill="#C8E17B"/>
<path fill-rule="evenodd" clip-rule="evenodd" d="M79.7466 61.2007C80.1124 61.3319 80.4216 61.5637 80.6739 61.8961C80.0637 62.1409 79.7545 61.9091 79.7466 61.2007Z" fill="#E9F2C4"/>
<path fill-rule="evenodd" clip-rule="evenodd" d="M102.928 170.157C107.671 169.67 111.69 171.138 114.983 174.561C116.881 174.917 118.736 174.763 120.547 174.098C122.772 172.097 125.322 170.783 128.197 170.157C128.892 170.234 129.588 170.311 130.283 170.389C133.288 172.083 136.302 173.706 139.324 175.257C142.005 173.955 144.709 172.718 147.438 171.548C149.511 171.687 150.824 172.769 151.379 174.793C151.688 175.875 151.688 176.957 151.379 178.039C149.168 181.639 146.464 184.807 143.265 187.543C138.045 188.642 134.027 186.941 131.21 182.443C130.423 181.999 129.572 181.767 128.66 181.748C125.736 182.706 122.877 183.865 120.083 185.225C118.272 185.89 116.417 186.044 114.519 185.689C111.473 183.926 108.227 182.767 104.783 182.211C102.302 182.497 99.9067 183.115 97.5963 184.066C96.599 184 95.8261 183.536 95.2781 182.675C93.9173 178.666 94.9216 175.343 98.2918 172.707C99.8065 171.719 101.352 170.869 102.928 170.157Z" fill="#AF5834"/>
<path fill-rule="evenodd" clip-rule="evenodd" d="M18.0818 253.612C21.459 256.215 24.5496 259.152 27.3546 262.421C30.8352 259.91 34.5443 257.901 38.482 256.394C37.692 260.48 36.6103 264.498 35.2365 268.449C38.712 270.263 42.1119 272.195 45.4367 274.244C46.0547 274.862 46.0547 275.481 45.4367 276.099C41.6946 276.802 37.9855 277.652 34.3093 278.649C34.4266 282.722 34.2722 286.818 33.8456 290.935C33.382 291.244 32.9183 291.244 32.4547 290.935C29.5806 288.216 26.8762 285.357 24.341 282.358C21.2123 284.502 18.0442 286.588 14.8363 288.617C13.8594 289.013 13.2409 288.704 12.9817 287.69C14.1033 283.93 15.3394 280.22 16.6909 276.562C13.291 274.708 9.89064 272.853 6.49076 270.999C6.08275 270.37 5.92789 269.674 6.02711 268.912C9.84613 267.919 13.7097 267.146 17.6182 266.594C17.4767 262.228 17.6311 257.901 18.0818 253.612Z" fill="#D8B7AA"/>
<path fill-rule="evenodd" clip-rule="evenodd" d="M19.9367 257.785C22.5938 260.054 24.989 262.528 27.1231 265.203C28.6972 263.99 30.3199 262.831 31.9914 261.726C33.1774 260.972 34.4139 260.508 35.7005 260.335C35.031 262.933 34.1807 265.483 33.1505 267.985C32.7805 268.801 32.8579 269.573 33.3823 270.303C36.3501 271.401 39.1319 272.869 41.7278 274.708C38.4137 275.839 35.0138 276.534 31.5277 276.794C31.9992 280.181 32.0762 283.581 31.7595 286.994C29.3968 284.553 27.0012 282.235 24.5731 280.04C22.0036 281.907 19.2992 283.607 16.4594 285.14C16.7997 281.617 17.5726 278.217 18.7776 274.94C15.6981 273.902 12.8392 272.434 10.2002 270.535C13.2899 269.183 16.5354 268.333 19.9367 267.985C20.0104 264.63 20.0104 261.229 19.9367 257.785Z" fill="white"/>
<path fill-rule="evenodd" clip-rule="evenodd" d="M24.1097 269.376C26.9615 268.608 28.6612 269.612 29.2097 272.39C28.1716 276.002 26.1627 276.698 23.1824 274.476C22.3766 272.533 22.6858 270.833 24.1097 269.376Z" fill="#D8B7AA"/>
<path fill-rule="evenodd" clip-rule="evenodd" d="M25.0366 271.231C26.5337 271.075 27.2292 271.693 27.123 273.085C24.9972 273.972 24.3017 273.354 25.0366 271.231Z" fill="white"/>
</svg>
