<svg width="182" height="285" viewBox="0 0 182 285" fill="none" xmlns="http://www.w3.org/2000/svg">
<path fill-rule="evenodd" clip-rule="evenodd" d="M145.911 0.0199768C146.523 -0.0588423 147.065 0.0955504 147.534 0.483619C149.393 4.44451 150.399 8.61729 150.547 13.0019C147.919 13.0019 145.294 13.0019 142.666 13.0019C142.693 8.36553 143.778 4.03836 145.911 0.0199768Z" fill="#FDECA3"/>
<path fill-rule="evenodd" clip-rule="evenodd" d="M170.948 11.1474C175.32 10.6657 176.321 12.3658 173.961 16.2475C171.504 19.1902 168.49 21.1222 164.92 22.043C163.465 20.6113 162.458 18.9885 161.907 17.1747C164.753 14.8672 167.767 12.8582 170.948 11.1474Z" fill="#FEECA3"/>
<path fill-rule="evenodd" clip-rule="evenodd" d="M117.629 11.6111C122.544 12.4187 126.638 14.737 129.915 18.5657C130.226 18.875 130.226 19.1837 129.915 19.493C128.46 20.9924 126.911 22.3833 125.279 23.6658C121.032 21.5084 118.018 18.263 116.238 13.9293C116.155 12.785 116.618 12.0121 117.629 11.6111Z" fill="#FEECA3"/>
<path fill-rule="evenodd" clip-rule="evenodd" d="M9.13698 17.1748C13.1382 16.9874 16.5367 18.3009 19.3371 21.1157C20.9042 22.1566 22.6058 22.4658 24.4372 22.043C26.3705 21.3086 28.0721 20.2265 29.5372 18.7975C32.0687 16.8553 34.6929 16.7009 37.4191 18.3339C39.7327 20.0313 42.2086 21.3448 44.8374 22.2748C46.896 22.1496 48.5975 21.2998 49.9375 19.7248C53.9387 18.0158 56.4099 19.2523 57.3557 23.4339C55.4641 28.26 52.3762 32.1235 48.0829 35.025C42.9689 35.79 39.1022 33.9354 36.4919 29.4613C35.8567 29.0556 35.1612 28.8238 34.4055 28.7658C30.4321 30.4451 26.4123 31.9904 22.3508 33.4022C19.2212 32.5732 16.2075 31.4141 13.3098 29.9249C9.80926 29.4511 6.40613 29.8373 3.10964 31.084C1.64917 30.9398 0.643063 30.1674 0.0959659 28.7658C-0.358403 25.2662 0.800701 22.4074 3.57328 20.1884C5.39539 19.046 7.24996 18.0413 9.13698 17.1748Z" fill="#AF5834"/>
<path fill-rule="evenodd" clip-rule="evenodd" d="M142.202 17.6384C158.935 17.298 166.432 25.4892 164.689 42.2114C161.962 54.2072 154.465 59.2303 142.202 57.2797C133.379 55.8016 128.2 50.6246 126.67 41.7477C124.815 29.1557 129.994 21.1189 142.202 17.6384Z" fill="#FEECA3"/>
<path fill-rule="evenodd" clip-rule="evenodd" d="M169.093 33.4021C172.033 33.3252 174.972 33.4021 177.902 33.634C182.692 35.1644 182.845 37.019 178.366 39.1977C175.352 40.1894 172.26 40.73 169.093 40.8204C169.093 38.3478 169.093 35.8747 169.093 33.4021Z" fill="#FEECA3"/>
<path fill-rule="evenodd" clip-rule="evenodd" d="M115.774 34.793C117.782 34.793 119.794 34.793 121.802 34.793C121.802 37.5748 121.802 40.3567 121.802 43.1385C117.536 42.9197 113.595 41.6832 109.979 39.4294C109.005 38.1938 109.237 37.1891 110.674 36.4157C112.371 35.6771 114.073 35.1365 115.774 34.793Z" fill="#FDECA3"/>
<path fill-rule="evenodd" clip-rule="evenodd" d="M164.457 52.4114C169.149 54.692 171.773 58.4012 172.339 63.5388C167.869 63.1196 164.081 61.2651 160.98 57.9751C160.669 57.6658 160.669 57.357 160.98 57.0478C162.25 55.5507 163.409 54.0054 164.457 52.4114Z" fill="#FDECA3"/>
<path fill-rule="evenodd" clip-rule="evenodd" d="M126.438 53.8025C128.659 55.4813 130.824 57.2585 132.929 59.1344C129.563 62.4017 125.622 64.6424 121.106 65.8572C119.308 66.0102 118.301 65.2373 118.093 63.539C118.213 62.3669 118.603 61.2852 119.252 60.2935C121.45 57.8621 123.847 55.6988 126.438 53.8025Z" fill="#FEECA3"/>
<path fill-rule="evenodd" clip-rule="evenodd" d="M143.593 62.6116C145.601 62.6116 147.613 62.6116 149.62 62.6116C150.191 66.986 149.106 70.8496 146.375 74.2026C145.216 73.4381 144.52 72.3559 144.288 70.9571C143.714 68.2054 143.482 65.4236 143.593 62.6116Z" fill="#FEECA3"/>
<path fill-rule="evenodd" clip-rule="evenodd" d="M136.638 129.376C137.125 129.307 137.589 129.384 138.029 129.608C140.904 132.327 143.607 135.186 146.143 138.185C149.648 135.51 153.357 133.501 157.27 132.158C156.459 136.101 155.453 140.042 154.257 143.981C157.971 145.991 161.527 148.232 164.921 150.704C164.823 150.975 164.67 151.207 164.457 151.399C160.627 152.316 156.844 153.32 153.098 154.413C152.866 158.583 152.787 162.755 152.866 166.931C152.379 167 151.915 166.923 151.475 166.699C148.6 163.98 145.897 161.121 143.361 158.122C139.763 160.576 135.98 162.585 132.002 164.149C132.656 160.095 133.741 156.154 135.247 152.326C131.979 150.146 128.576 148.136 125.047 146.299C124.384 145.504 124.542 144.886 125.511 144.444C129.188 143.45 132.897 142.601 136.638 141.894C136.638 137.722 136.638 133.549 136.638 129.376Z" fill="#D8B7AA"/>
<path fill-rule="evenodd" clip-rule="evenodd" d="M138.493 133.549C138.943 133.775 139.406 134.006 139.884 134.244C142.058 136.373 144.071 138.614 145.911 140.967C148.304 138.921 150.928 137.22 153.793 135.867C153.946 136.099 154.104 136.331 154.257 136.563C153.483 139.654 152.629 142.667 151.707 145.604C154.79 146.643 157.651 148.111 160.284 150.008C157.247 151.434 154.081 152.284 150.78 152.558C151.072 155.955 150.997 159.355 150.548 162.758C147.891 160.565 145.573 158.092 143.593 155.34C141.076 157.315 138.368 159.015 135.479 160.44C135.169 159.667 135.169 158.895 135.479 158.122C136.184 155.55 136.958 153.077 137.798 150.704C134.779 149.468 131.923 147.923 129.22 146.067C132.248 144.676 135.419 143.903 138.725 143.749C138.586 140.366 138.507 136.966 138.493 133.549Z" fill="white"/>
<path fill-rule="evenodd" clip-rule="evenodd" d="M143.593 144.676C146.913 144.516 148.378 146.062 147.998 149.313C146.63 151.064 144.849 151.604 142.666 150.935C140.667 148.493 140.973 146.406 143.593 144.676Z" fill="#D8B7AA"/>
<path fill-rule="evenodd" clip-rule="evenodd" d="M143.593 146.995C145.281 146.641 145.976 147.259 145.679 148.849C143.978 149.549 143.282 148.931 143.593 146.995Z" fill="white"/>
<path fill-rule="evenodd" clip-rule="evenodd" d="M75.4376 206.341C77.2968 206.264 79.1514 206.341 81.0013 206.572C79.2997 209.509 77.6028 212.445 75.9012 215.382C83.8063 213.775 91.8412 213.157 100.011 213.527C101.123 213.613 102.204 213.845 103.256 214.222C100.947 217.38 98.5548 220.47 96.0697 223.495C95.7497 223.881 95.8286 224.19 96.3015 224.423C105.542 222.79 114.193 224.413 122.265 229.291C120.49 231.995 118.709 234.7 116.934 237.405C116.382 238.12 116.229 238.893 116.47 239.723C119.887 242.94 123.675 245.644 127.829 247.836C135.655 251.98 143.537 255.998 151.475 259.891C140.065 266.442 128.084 269.765 115.543 269.859C118.148 273.451 120.698 277.083 123.193 280.755C116.938 281.885 110.758 281.576 104.647 279.828C97.4467 277.424 90.7239 274.102 84.4786 269.859C86.6902 274.981 89.2402 280.004 92.1287 284.928C88.4938 284.696 85.0953 283.614 81.9286 281.682C74.297 276.369 67.7272 269.956 62.2238 262.441C62.2006 265.774 62.4324 269.097 62.9193 272.41C62.7663 272.641 62.6086 272.873 62.4556 273.105C49.8538 263.056 42.825 249.919 41.3599 233.695C40.4929 230.278 41.2626 227.342 43.6781 224.886C52.1767 215.064 62.7616 208.882 75.4376 206.341Z" fill="#95C812"/>
<path fill-rule="evenodd" clip-rule="evenodd" d="M83.7833 249.923C82.9812 249.687 82.8235 249.301 83.3196 248.764C81.2379 248.046 79.2303 247.195 77.2923 246.214C76.9817 246.368 76.6757 246.523 76.365 246.677C76.0683 245.985 75.6046 245.522 74.9741 245.286C74.4548 244.704 74.1442 244.858 74.0468 245.75C73.4858 245.412 73.0222 244.948 72.6559 244.359C72.8367 244.924 72.5261 245.311 71.7286 245.518C73.3328 248.11 75.1874 250.814 77.2923 253.632C77.7003 253.98 78.1639 254.212 78.6832 254.327C78.252 254.507 77.946 254.817 77.7559 255.255C78.5951 256.791 78.827 258.414 78.4514 260.123C76.1749 257.25 74.1674 254.159 72.4241 250.85C71.928 250.53 71.3901 250.298 70.8013 250.155C71.163 249.334 71.0841 248.484 70.5695 247.605C69.4707 245.965 68.4692 244.265 67.5558 242.505C62.4975 239.861 57.6293 236.925 52.9511 233.695C52.6312 233.31 52.71 233.001 53.1829 232.768C57.875 234.881 62.3538 237.354 66.6285 240.186C71.0424 236.467 75.5258 232.835 80.0742 229.291C82.5593 227.739 85.1881 226.425 87.9561 225.35C89.0549 225.75 89.0549 226.291 87.9561 226.973C80.8716 230.591 74.5383 235.228 68.9468 240.882C73.0963 242.794 77.4221 244.804 81.9287 246.909C83.0044 247.068 84.0058 246.836 84.9424 246.214C84.9702 247.319 85.3597 247.628 86.1015 247.141C86.5837 248.296 86.9685 248.296 87.2606 247.141C87.3765 247.662 87.6083 248.126 87.9561 248.532C88.9807 248.813 89.9868 249.122 90.9697 249.459C92.713 246.74 94.5676 244.112 96.5334 241.577C96.6864 241.732 96.8441 241.887 96.9971 242.041C100.229 238.34 104.091 235.558 108.588 233.695C108.82 233.85 109.052 234.005 109.284 234.159C107.308 236.232 104.99 237.855 102.329 239.027C99.7418 240.841 97.6554 243.082 96.0698 245.75C95.7592 245.132 95.4532 245.132 95.1425 245.75C94.4053 246.756 93.7887 247.838 93.2879 248.996C92.9402 249.522 93.019 249.985 93.5198 250.387C101.93 252.717 110.586 254.649 119.484 256.182C121.909 257.097 124.38 257.87 126.902 258.5C127.852 258.819 128.627 259.36 129.22 260.123C126.443 260.357 123.661 260.125 120.875 259.428C112.191 257.563 103.613 255.322 95.1425 252.705C95.5181 253.856 96.1393 254.939 96.9971 255.95C101.077 259.873 104.633 264.2 107.661 268.932C108.022 269.602 107.944 270.22 107.429 270.787C103.233 266.748 99.3709 262.42 95.838 257.805C94.9061 258.854 94.7531 258.622 95.3743 257.109C93.8489 255.214 92.3792 253.282 90.9697 251.314C90.4829 251.785 89.9404 251.863 89.347 251.546C89.5 251.391 89.6576 251.236 89.8106 251.082C88.0024 250.406 86.2267 249.71 84.4787 248.996C84.0012 249.151 83.7694 249.461 83.7833 249.923Z" fill="#F4F7DC"/>
<path fill-rule="evenodd" clip-rule="evenodd" d="M74.0469 237.405C74.798 237.538 75.2616 238.001 75.4378 238.795C75.0576 239.206 74.594 239.361 74.0469 239.259C74.0469 238.641 74.0469 238.023 74.0469 237.405Z" fill="#C0DD6E"/>
<path fill-rule="evenodd" clip-rule="evenodd" d="M76.3648 237.868C77.2179 237.933 77.3709 238.242 76.8285 238.795C76.4575 238.584 76.3045 238.274 76.3648 237.868Z" fill="#D3E793"/>
<path fill-rule="evenodd" clip-rule="evenodd" d="M71.2647 239.259C72.5304 239.503 73.7684 239.89 74.9738 240.418C73.6756 241.487 72.6742 241.255 71.9601 239.723C71.7376 240.162 71.6588 240.626 71.7283 241.114C71.1812 241.215 70.7176 241.061 70.3374 240.65C70.852 240.295 71.1627 239.832 71.2647 239.259Z" fill="#D1E690"/>
<path fill-rule="evenodd" clip-rule="evenodd" d="M79.1468 240.65C79.1746 240.398 79.3276 240.244 79.6104 240.186C80.1251 240.753 80.2039 241.371 79.8423 242.041C79.3044 241.576 79.0726 241.113 79.1468 240.65Z" fill="#E0EDAE"/>
<path fill-rule="evenodd" clip-rule="evenodd" d="M75.4378 240.65C76.0266 240.97 76.0266 241.356 75.4378 241.809C74.9742 242.119 74.5105 242.119 74.0469 241.809C74.7145 241.634 75.1782 241.248 75.4378 240.65Z" fill="#E6F0BC"/>
<path fill-rule="evenodd" clip-rule="evenodd" d="M88.8833 242.041C89.2496 242.172 89.5602 242.404 89.8106 242.736C89.1986 242.981 88.8926 242.749 88.8833 242.041Z" fill="#EBF3C8"/>
<path fill-rule="evenodd" clip-rule="evenodd" d="M74.9742 245.286C74.8953 245.926 74.8165 246.699 74.7423 247.605C74.3761 247.027 74.1442 246.409 74.0469 245.75C74.1442 244.858 74.4549 244.704 74.9742 245.286Z" fill="#C3DE73"/>
<path fill-rule="evenodd" clip-rule="evenodd" d="M86.5649 244.823C86.5928 244.571 86.7458 244.417 87.0286 244.359C87.6452 245.132 87.6452 245.904 87.0286 246.677C86.908 246.026 86.755 245.408 86.5649 244.823Z" fill="#DDECAA"/>
<path fill-rule="evenodd" clip-rule="evenodd" d="M89.8107 246.214C90.1538 246.153 90.4644 246.231 90.738 246.446C90.6962 247.105 90.5386 247.8 90.2743 248.532C89.8339 247.816 89.6762 247.043 89.8107 246.214Z" fill="#D1E68F"/>
<path fill-rule="evenodd" clip-rule="evenodd" d="M85.6378 250.386C86.4909 250.451 86.6439 250.76 86.1014 251.314C85.7305 251.102 85.5775 250.793 85.6378 250.386Z" fill="#E9F2C3"/>
<path fill-rule="evenodd" clip-rule="evenodd" d="M83.7832 249.923C84.2979 250.593 84.3767 251.366 84.0151 252.241C83.6673 251.951 83.2825 251.719 82.856 251.546C83.468 251.167 83.7786 250.626 83.7832 249.923Z" fill="#E3EEB5"/>
<path fill-rule="evenodd" clip-rule="evenodd" d="M85.1741 251.777C86.7273 251.946 87.1909 252.719 86.565 254.096C86.2173 253.689 85.9855 253.226 85.8696 252.705C84.7429 253.199 84.5111 252.89 85.1741 251.777Z" fill="#C1DE6E"/>
<path fill-rule="evenodd" clip-rule="evenodd" d="M87.9559 251.777C88.656 252.324 89.4303 252.788 90.2741 253.168C88.6607 254.5 87.891 254.037 87.9559 251.777Z" fill="#C9E17D"/>
<path fill-rule="evenodd" clip-rule="evenodd" d="M87.4926 254.559C88.0861 254.97 88.0861 255.434 87.4926 255.95C87.0012 255.521 87.0012 255.058 87.4926 254.559Z" fill="#DFEDAD"/>
<path fill-rule="evenodd" clip-rule="evenodd" d="M90.7378 255.95C91.1041 256.081 91.4147 256.313 91.6651 256.646C91.0531 256.89 90.7471 256.659 90.7378 255.95Z" fill="#E6F0BD"/>
<path fill-rule="evenodd" clip-rule="evenodd" d="M84.7104 259.196C85.2575 259.094 85.7212 259.249 86.1014 259.659C85.3827 260.261 84.9191 260.107 84.7104 259.196Z" fill="#CFE58A"/>
<path fill-rule="evenodd" clip-rule="evenodd" d="M89.347 260.587C90.418 261.006 90.418 261.624 89.347 262.441C88.9807 261.885 88.9807 261.267 89.347 260.587Z" fill="#C8E17B"/>
</svg>
